<svg width="29" height="29" viewBox="0 0 29 29" fill="none" xmlns="http://www.w3.org/2000/svg">
<path d="M15 18.75V23.125M9.33333 10.7646V5H20.6669V10.7646M9.33333 10.7646C9.33333 13.2598 10.5198 15.6252 12.5698 17.2167C13.3158 17.796 14.1373 18.2445 15.0001 18.5623C15.8629 18.2445 16.6843 17.796 17.4304 17.2167C19.4804 15.6252 20.6669 13.2598 20.6669 10.7646M9.33333 10.7646L9.33301 7.49994H5.29268C5.23757 7.65537 5.18974 7.81378 5.14953 7.9748C4.7402 9.61408 5.18434 11.3589 6.32131 12.6621C7.32867 13.8167 8.79976 14.551 10.3727 14.6864C9.69794 13.4923 9.33333 12.1484 9.33333 10.7646ZM20.6669 10.7646L20.667 7.49994H24.7073C24.7624 7.65537 24.8103 7.81378 24.8505 7.9748C25.2598 9.61408 24.8157 11.3589 23.6787 12.6621C22.6713 13.8167 21.2002 14.551 19.6273 14.6864C20.3021 13.4923 20.6669 12.1484 20.6669 10.7646ZM11 25H19C19.123 25 19.1846 24.8606 19.0976 24.779L18.6083 24.3203C17.792 23.555 16.6847 23.125 15.5302 23.125H14.4698C13.3153 23.125 12.208 23.555 11.3917 24.3203L10.9024 24.779C10.8154 24.8606 10.877 25 11 25Z" stroke="#949494" stroke-linecap="round" stroke-linejoin="round"/>
</svg>
