<?xml version="1.0" encoding="UTF-8"?>
<!DOCTYPE svg PUBLIC "-//W3C//DTD SVG 1.1//EN" "http://www.w3.org/Graphics/SVG/1.1/DTD/svg11.dtd">
<!-- Creator: CorelDRAW 2021.5 -->
<svg xmlns="http://www.w3.org/2000/svg" xml:space="preserve" width="31px" height="31px" version="1.1" style="shape-rendering:geometricPrecision; text-rendering:geometricPrecision; image-rendering:optimizeQuality; fill-rule:evenodd; clip-rule:evenodd"
viewBox="0 0 31 31"
 xmlns:xlink="http://www.w3.org/1999/xlink"
 xmlns:xodm="http://www.corel.com/coreldraw/odm/2003">
 <defs>
  <style type="text/css">
   <![CDATA[
    .fil0 {fill:#949494}
   ]]>
  </style>
 </defs>
 <g id="Слой_x0020_1">
  <metadata id="CorelCorpID_0Corel-Layer"/>
  <g id="_1281809708272">
   <path class="fil0" d="M1.929 17.632c0.226,0.088 0.405,0.205 0.641,0.302 1.297,0.531 2.363,0.721 3.762,0.869 1.42,0.15 3.881,0.098 5.306,-0.092 3.298,-0.44 4.466,-0.659 7.661,-1.7 1.226,-0.4 2.3,-0.861 3.356,-1.346 0.961,-0.44 2.089,-1.094 2.86,-1.662 0.799,-0.589 1.095,-0.847 1.747,-1.537 0.181,-0.192 0.306,-0.39 0.483,-0.576 0.207,0.933 1.182,4.805 1.132,5.379 -0.111,1.28 -1.719,2.326 -2.714,2.98 -2.184,1.437 -6.91,2.863 -9.348,3.405 -3.437,0.765 -7.09,1.166 -9.908,0.875 -1.229,-0.127 -3.091,-0.497 -3.701,-1.506 -0.326,-0.54 -1.06,-4.415 -1.277,-5.391zm-0.521 -2.342c-0.441,-1.979 3.203,-4.092 4.352,-4.684 0.993,-0.511 3.223,-1.501 4.448,-1.829 0.243,-0.065 0.731,-0.199 0.997,-0.298 0.564,-0.208 1.095,-0.257 1.606,-0.4 0.731,-0.205 -0.021,-0.084 0.973,-0.22 0.459,-0.063 1.073,-0.285 1.628,-0.324 0.271,-0.019 0.79,-0.105 1.024,-0.144 2.411,-0.398 10.156,-0.684 10.788,2.158 0.4,1.801 -2.663,3.749 -3.987,4.475 -1.017,0.559 -2.023,1.018 -3.227,1.478 -2.82,1.079 -6.481,1.895 -9.494,2.12 -2.282,0.171 -4.62,0.122 -6.742,-0.501 -0.792,-0.233 -2.138,-0.804 -2.366,-1.831zm-1.194 0.026l1.728 7.768c0.492,2.211 4.439,2.673 6.311,2.72 5.658,0.14 16.319,-2.108 20.302,-5.847 0.396,-0.373 0.854,-0.856 1.093,-1.315 0.237,-0.454 0.544,-1.138 0.395,-1.809l-1.728 -7.767c-0.255,-1.148 -1.651,-1.945 -2.638,-2.327 -3.38,-1.307 -8.812,-0.82 -12.676,0.039 -1.587,0.353 -3.094,0.808 -4.485,1.315 -2.626,0.956 -4.88,2.105 -6.865,3.969 -0.657,0.618 -1.696,2.089 -1.437,3.254z"/>
   <path class="fil0" d="M14.367 15.345c0.163,0.734 0.865,0.407 1.669,0.228 0.968,-0.215 2.37,-0.613 3.284,-0.951 1.484,-0.551 7.333,-2.52 6.818,-4.832 -0.147,-0.664 -1.134,-0.598 -1.163,0.094 -0.018,0.447 0.003,0.356 -0.268,0.663 -1.221,1.387 -4.564,2.532 -6.439,3.161 -0.223,0.074 -0.624,0.172 -0.883,0.272l-2.717 0.723c-0.232,0.117 -0.363,0.363 -0.301,0.642z"/>
  </g>
 </g>
</svg>
