<?xml version="1.0" encoding="UTF-8"?>
<!DOCTYPE svg PUBLIC "-//W3C//DTD SVG 1.1//EN" "http://www.w3.org/Graphics/SVG/1.1/DTD/svg11.dtd">
<!-- Creator: CorelDRAW 2021.5 -->
<svg xmlns="http://www.w3.org/2000/svg" xml:space="preserve" width="74px" height="74px" version="1.1" style="shape-rendering:geometricPrecision; text-rendering:geometricPrecision; image-rendering:optimizeQuality; fill-rule:evenodd; clip-rule:evenodd"
viewBox="0 0 74 74"
 xmlns:xlink="http://www.w3.org/1999/xlink"
 xmlns:xodm="http://www.corel.com/coreldraw/odm/2003">
 <defs>
  <style type="text/css">
   <![CDATA[
    .fil0 {fill:#949494}
   ]]>
  </style>
 </defs>
 <g id="Слой_x0020_1">
  <metadata id="CorelCorpID_0Corel-Layer"/>
  <g id="_1711402162688">
   <g id="_1281809708272">
    <path class="fil0" d="M6.39 41.81c0.51,0.2 0.91,0.46 1.44,0.68 2.93,1.2 5.34,1.63 8.49,1.96 3.2,0.34 8.76,0.22 11.97,-0.21 7.44,-0.99 10.07,-1.49 17.28,-3.83 2.77,-0.91 5.19,-1.95 7.57,-3.04 2.17,-0.99 4.71,-2.47 6.45,-3.75 1.81,-1.33 2.47,-1.91 3.94,-3.47 0.41,-0.43 0.69,-0.88 1.09,-1.29 0.47,2.1 2.67,10.83 2.56,12.13 -0.25,2.89 -3.88,5.25 -6.13,6.72 -4.92,3.24 -15.58,6.46 -21.08,7.68 -7.76,1.73 -16,2.63 -22.35,1.98 -2.78,-0.29 -6.98,-1.13 -8.35,-3.4 -0.74,-1.22 -2.39,-9.96 -2.88,-12.16zm-1.18 -5.29c-0.99,-4.46 7.23,-9.23 9.82,-10.56 2.24,-1.15 7.27,-3.39 10.03,-4.13 0.55,-0.14 1.65,-0.45 2.25,-0.67 1.28,-0.47 2.47,-0.58 3.63,-0.9 1.64,-0.46 -0.05,-0.19 2.19,-0.5 1.04,-0.14 2.42,-0.64 3.67,-0.73 0.61,-0.04 1.79,-0.24 2.31,-0.32 5.44,-0.9 22.91,-1.55 24.34,4.86 0.9,4.07 -6.01,8.46 -9,10.1 -2.29,1.26 -4.56,2.3 -7.28,3.33 -6.36,2.44 -14.62,4.28 -21.41,4.79 -5.15,0.38 -10.42,0.27 -15.21,-1.13 -1.79,-0.53 -4.82,-1.82 -5.34,-4.14l0 0zm-2.69 0.06l3.9 17.53c1.11,4.98 10.01,6.02 14.23,6.13 12.77,0.32 36.82,-4.75 45.8,-13.19 0.89,-0.84 1.93,-1.93 2.47,-2.96 0.53,-1.03 1.22,-2.57 0.89,-4.08l-3.9 -17.52c-0.58,-2.59 -3.72,-4.39 -5.95,-5.25 -7.63,-2.95 -19.88,-1.85 -28.6,0.08 -3.58,0.8 -6.97,1.83 -10.11,2.97 -5.93,2.16 -11.01,4.75 -15.49,8.95 -1.48,1.4 -3.82,4.72 -3.24,7.34l0 0z"/>
    <path class="fil0" d="M34.45 36.65c0.36,1.65 1.95,0.92 3.76,0.51 2.18,-0.48 5.35,-1.38 7.41,-2.14 3.35,-1.25 16.54,-5.69 15.38,-10.9 -0.33,-1.5 -2.56,-1.35 -2.63,0.21 -0.04,1.01 0.01,0.8 -0.6,1.49 -2.75,3.13 -10.3,5.72 -14.52,7.14 -0.51,0.16 -1.41,0.38 -2,0.61l-6.13 1.63c-0.52,0.26 -0.81,0.82 -0.67,1.45z"/>
   </g>
  </g>
 </g>
</svg>
