<?xml version="1.0" encoding="UTF-8"?>
<!DOCTYPE svg PUBLIC "-//W3C//DTD SVG 1.1//EN" "http://www.w3.org/Graphics/SVG/1.1/DTD/svg11.dtd">
<!-- Creator: CorelDRAW 2021.5 -->
<svg xmlns="http://www.w3.org/2000/svg" xml:space="preserve" width="121px" height="121px" version="1.1" style="shape-rendering:geometricPrecision; text-rendering:geometricPrecision; image-rendering:optimizeQuality; fill-rule:evenodd; clip-rule:evenodd"
viewBox="0 0 121 121"
 xmlns:xlink="http://www.w3.org/1999/xlink"
 xmlns:xodm="http://www.corel.com/coreldraw/odm/2003">
 <defs>
  <style type="text/css">
   <![CDATA[
    .fil0 {fill:#949494}
   ]]>
  </style>
 </defs>
 <g id="Слой_x0020_1">
  <metadata id="CorelCorpID_0Corel-Layer"/>
  <g id="_1711402130864">
   <g id="_1711402162688">
    <g id="_1281809708272">
     <path class="fil0" d="M9.41 67.75c0.86,0.34 1.54,0.78 2.44,1.15 4.98,2.04 9.08,2.77 14.43,3.33 5.44,0.58 14.89,0.38 20.34,-0.35 12.65,-1.69 17.12,-2.53 29.37,-6.51 4.7,-1.55 8.82,-3.32 12.86,-5.17 3.69,-1.68 8.01,-4.2 10.96,-6.37 3.08,-2.26 4.2,-3.25 6.7,-5.9 0.69,-0.73 1.17,-1.49 1.85,-2.19 0.8,3.57 4.54,18.4 4.35,20.61 -0.42,4.91 -6.59,8.93 -10.42,11.42 -8.36,5.51 -26.47,10.98 -35.82,13.06 -13.19,2.93 -27.19,4.46 -37.98,3.36 -4.72,-0.49 -11.86,-1.92 -14.19,-5.78 -1.26,-2.07 -4.06,-16.92 -4.89,-20.66l0 0zm-2.01 -8.99c-1.68,-7.58 12.29,-15.69 16.69,-17.95 3.81,-1.95 12.35,-5.76 17.04,-7.01 0.94,-0.24 2.81,-0.77 3.83,-1.14 2.17,-0.8 4.19,-0.99 6.17,-1.53 2.78,-0.78 -0.09,-0.33 3.72,-0.85 1.76,-0.24 4.11,-1.09 6.23,-1.24 1.04,-0.07 3.04,-0.41 3.93,-0.55 9.24,-1.53 38.93,-2.63 41.36,8.26 1.53,6.92 -10.21,14.38 -15.29,17.17 -3.9,2.14 -7.75,3.9 -12.37,5.66 -10.81,4.14 -24.85,7.27 -36.39,8.14 -8.75,0.64 -17.71,0.45 -25.84,-1.93 -3.05,-0.9 -8.2,-3.09 -9.08,-7.03l0 0 0 0zm-4.57 0.1l6.63 29.79c1.88,8.46 17.01,10.23 24.18,10.42 21.7,0.54 62.57,-8.07 77.83,-22.42 1.51,-1.43 3.28,-3.28 4.2,-5.03 0.9,-1.75 2.07,-4.37 1.51,-6.93l-6.63 -29.77c-0.98,-4.41 -6.32,-7.46 -10.11,-8.93 -12.97,-5.01 -33.78,-3.14 -48.6,0.14 -6.08,1.36 -11.85,3.11 -17.18,5.05 -10.08,3.67 -18.71,8.07 -26.32,15.21 -2.52,2.38 -6.5,8.02 -5.51,12.47l0 0 0 0z"/>
     <path class="fil0" d="M57.09 58.98c0.61,2.8 3.31,1.56 6.39,0.87 3.7,-0.82 9.09,-2.35 12.59,-3.64 5.69,-2.12 28.11,-9.67 26.14,-18.52 -0.56,-2.55 -4.35,-2.3 -4.47,0.35 -0.07,1.72 0.01,1.36 -1.02,2.53 -4.67,5.32 -17.51,9.73 -24.68,12.14 -0.86,0.27 -2.39,0.64 -3.4,1.04l-10.41 2.76c-0.89,0.45 -1.38,1.4 -1.14,2.47l0 0z"/>
    </g>
   </g>
  </g>
 </g>
</svg>
