<svg width="29" height="29" viewBox="0 0 29 29" fill="none" xmlns="http://www.w3.org/2000/svg">
<path d="M8.21343 18.8108L4.99999 25.9694L8.21343 25.0859L10.0717 27.9314L13 21" stroke="#949494" stroke-linecap="round" stroke-linejoin="round"/>
<path d="M22 19L24.8615 25.9693L21.648 25.0858L19.7898 27.9314L17.0001 21" stroke="#949494" stroke-linecap="round" stroke-linejoin="round"/>
<path d="M18.2097 3.32311C19.4739 2.71142 21.0269 2.94439 22.0712 4.02186C23.1155 5.09932 23.3412 6.70157 22.7484 8.00598C24.0616 8.4958 25 9.7935 25 11.3173C25 12.841 24.0616 14.1387 22.7484 14.6286C23.3412 15.933 23.1155 17.5352 22.0712 18.6127C21.0269 19.6901 19.4739 19.9231 18.2097 19.3114C17.7349 20.6663 16.4772 21.6345 15.0003 21.6345C13.5235 21.6345 12.2657 20.6663 11.791 19.3114C10.5267 19.9231 8.97378 19.6901 7.92948 18.6127C6.88518 17.5352 6.65938 15.933 7.25224 14.6286C5.93907 14.1387 5.00064 12.841 5.00064 11.3173C5.00064 9.7935 5.93907 8.4958 7.25224 8.00598C6.65938 6.70157 6.88518 5.09932 7.92948 4.02186C8.97378 2.94439 10.5267 2.71142 11.791 3.32311C12.2657 1.96823 13.5235 1 15.0003 1C16.4772 1 17.7349 1.96823 18.2097 3.32311Z" stroke="#949494" stroke-linecap="round" stroke-linejoin="round"/>
</svg>
