<svg width="29" height="29" viewBox="0 0 29 29" fill="none" xmlns="http://www.w3.org/2000/svg">
<path d="M8.42857 7.57143L8.2612 7.40406C8.00249 7.14534 7.65159 7 7.28571 7H18.645C19.4211 7 20.1655 7.30832 20.7143 7.85714C21.2631 8.40596 21.5714 9.15032 21.5714 9.92647V11.4388L19.8571 12.4286L21.5714 13.4183V18.7143H15M8.42857 7.57143C8.79445 7.93731 9 8.43355 9 8.95098M8.42857 7.57143L8.42826 7.57112C8.06241 7.20543 7.56631 7 7.04902 7H6.95098C6.43355 7 5.93731 7.20555 5.57143 7.57143C5.20555 7.93731 5 8.43355 5 8.95098V11.8571C5 12.0149 5.12792 12.1429 5.28571 12.1429H6.50513L7 11.2857L7.49487 12.1429H8.71429C8.87208 12.1429 9 12.0149 9 11.8571V8.95098M15 18.7143C14.8422 18.7143 14.7143 18.8422 14.7143 19V20.0735C14.7143 20.8497 14.406 21.594 13.8571 22.1429L13.8081 22.1919M15 18.7143H24.7143C24.8721 18.7143 25 18.8422 25 19V20.0735C25 20.8497 24.6917 21.594 24.1429 22.1429C23.594 22.6917 22.8497 23 22.0735 23H11.8571C12.5889 23 13.2907 22.7093 13.8081 22.1919M13.8081 22.1919C13.2987 22.7013 12.6107 22.9909 11.8913 22.9998C11.1279 22.9906 10.3977 22.6834 9.85714 22.1429C9.30832 21.594 9 20.8497 9 20.0735V18.6819L10.4286 17.8571L9 17.0324V8.95098" stroke="#949494" stroke-linecap="round" stroke-linejoin="round"/>
</svg>
