<svg width="29" height="29" viewBox="0 0 29 29" fill="none" xmlns="http://www.w3.org/2000/svg">
<path d="M17.625 25H6.125C5.50368 25 5 24.4963 5 23.875C5 22.0163 6.15904 20.3547 7.90341 19.7128L8.34545 19.5502C10.6238 18.7118 13.1262 18.7118 15.4046 19.5502L15.8466 19.7128C17.591 20.3547 18.75 22.0163 18.75 23.875C18.75 24.4963 18.2463 25 17.625 25Z" stroke="#949494" stroke-linecap="round" stroke-linejoin="round"/>
<path d="M10.1473 16.2537C11.2339 16.8017 12.5161 16.8017 13.6027 16.2537C14.6349 15.7331 15.3774 14.7747 15.6236 13.6451L15.6699 13.4326C15.92 12.2849 15.6541 11.0852 14.9425 10.1507L14.8688 10.0539C14.1571 9.11927 13.0498 8.57064 11.875 8.57064C10.7002 8.57064 9.59289 9.11927 8.88119 10.0539L8.80751 10.1507C8.09586 11.0852 7.82997 12.2849 8.08011 13.4326L8.1264 13.6451C8.37259 14.7747 9.11506 15.7331 10.1473 16.2537Z" stroke="#949494" stroke-linecap="round" stroke-linejoin="round"/>
<path d="M18.75 5C18.0596 5 17.5 5.55965 17.5 6.25V9.64286C17.5 10.3332 18.0596 10.8929 18.75 10.8929H19.1071V12.5L21.25 10.8929H23.75C24.4404 10.8929 25 10.3332 25 9.64286V6.25C25 5.55964 24.4404 5 23.75 5H18.75Z" stroke="#949494" stroke-linecap="round" stroke-linejoin="round"/>
</svg>
