<svg width="29" height="29" viewBox="0 0 29 29" fill="none" xmlns="http://www.w3.org/2000/svg">
<path d="M23.0284 14.2628C22.8738 14.9934 22.4069 15.6135 21.7574 15.9509C21.0715 16.3072 20.2615 16.3072 19.5756 15.9509C18.9261 15.6135 18.4592 14.9934 18.3047 14.2628L18.2737 14.1167C18.1165 13.3737 18.2838 12.5972 18.7314 11.9917L18.7807 11.925C19.2284 11.3194 19.9262 10.9637 20.6665 10.9637C21.4069 10.9637 22.1046 11.3194 22.5523 11.925L22.6016 11.9917C23.0493 12.5972 23.2165 13.3737 23.0593 14.1167L23.0284 14.2628Z" stroke="#949494" stroke-linecap="round" stroke-linejoin="round"/>
<path d="M24.2889 21.6304H17.6584C17.6057 20.7652 17.3047 19.9534 16.8155 19.2842C17.1372 18.7961 17.6041 18.4096 18.1677 18.196L18.4376 18.0937C19.8761 17.5485 21.4569 17.5485 22.8954 18.0937L23.1653 18.196C24.2678 18.6139 25 19.693 25 20.9C25 21.3034 24.6816 21.6304 24.2889 21.6304Z" stroke="#949494" stroke-linecap="round" stroke-linejoin="round"/>
<path d="M16.6004 23H6.06671C5.47758 23 5 22.5095 5 21.9044C5 20.091 6.09215 18.4667 7.74327 17.8244L8.02046 17.7165C10.1552 16.8861 12.5119 16.8861 14.6466 17.7165L14.9238 17.8244C16.575 18.4667 17.6671 20.091 17.6671 21.9044C17.6671 22.5095 17.1895 23 16.6004 23Z" stroke="#949494" stroke-linecap="round" stroke-linejoin="round"/>
<path d="M9.71394 14.4673C10.7294 15.0087 11.9377 15.0087 12.9532 14.4673C13.8871 13.9694 14.5548 13.068 14.7727 12.0106L14.841 11.6797C15.0647 10.5945 14.8251 9.46275 14.1827 8.57096L14.0726 8.41812C13.4301 7.52616 12.4138 7 11.3336 7C10.2533 7 9.23702 7.52616 8.59452 8.41812L8.48442 8.57097C7.84204 9.46275 7.6024 10.5945 7.82615 11.6797L7.89437 12.0106C8.11235 13.068 8.78001 13.9694 9.71394 14.4673Z" stroke="#949494" stroke-linecap="round" stroke-linejoin="round"/>
</svg>
