<svg width="29" height="29" viewBox="0 0 29 29" fill="none" xmlns="http://www.w3.org/2000/svg">
<path d="M23.3333 27H6.66667C5.74619 27 5 26.2642 5 25.3566C5 22.6383 6.71034 20.2052 9.29179 19.2512L9.80433 19.0617C13.1543 17.8237 16.8457 17.8237 20.1957 19.0617L20.7082 19.2512C23.2897 20.2052 25 22.6383 25 25.3566C25 26.2642 24.2538 27 23.3333 27Z" stroke="#949494" stroke-linecap="round" stroke-linejoin="round"/>
<path d="M12.4589 14.2091C14.0539 15.017 15.9461 15.017 17.5411 14.2091C19.0255 13.4573 20.089 12.0879 20.4382 10.4788L20.5314 10.0494C20.8884 8.40393 20.507 6.6866 19.4852 5.33891L19.3355 5.14156C18.3136 3.79369 16.7068 3 15 3C13.2932 3 11.6864 3.79369 10.6645 5.14157L10.5148 5.33892C9.49298 6.6866 9.11157 8.40393 9.46865 10.0494L9.56184 10.4788C9.91102 12.0879 10.9745 13.4573 12.4589 14.2091Z" stroke="#949494" stroke-linecap="round" stroke-linejoin="round"/>
</svg>
