<?xml version="1.0" encoding="UTF-8"?>
<!DOCTYPE svg PUBLIC "-//W3C//DTD SVG 1.1//EN" "http://www.w3.org/Graphics/SVG/1.1/DTD/svg11.dtd">
<!-- Creator: CorelDRAW 2021.5 -->
<svg xmlns="http://www.w3.org/2000/svg" xml:space="preserve" width="2500px" height="2500px" version="1.1" style="shape-rendering:geometricPrecision; text-rendering:geometricPrecision; image-rendering:optimizeQuality; fill-rule:evenodd; clip-rule:evenodd"
viewBox="0 0 2500 2500"
 xmlns:xlink="http://www.w3.org/1999/xlink"
 xmlns:xodm="http://www.corel.com/coreldraw/odm/2003">
 <defs>
  <style type="text/css">
   <![CDATA[
    .str0 {stroke:white;stroke-width:154.688;stroke-miterlimit:22.9256}
    .fil0 {fill:none}
   ]]>
  </style>
 </defs>
 <g id="Слой_x0020_1">
  <metadata id="CorelCorpID_0Corel-Layer"/>
  <rect class="fil0" x="-0.001" width="2500.001" height="2500.001"/>
  <path class="fil0 str0" d="M1444.164 295.511c165.091,-61.613 318.275,-27.348 445.728,73.503 76.222,60.314 232.03,308.938 287.34,405.087 92.705,161.167 237.156,428.982 214.93,630.76 -6.584,59.76 -18.109,104.355 -52.1,152.43 -11.496,16.249 -21.837,29.343 -36.171,43.403 -155.16,152.27 -349.164,80.208 -499.868,-24.403 -19.511,-13.541 -91.39,-68.429 -102.251,-84.798 -85.556,31.93 -144.81,39.331 -224.541,20.954 -11.314,-2.614 -19.914,-4.868 -31.398,-8.422 -8.466,-2.615 -24.626,-9.452 -32.221,-6.618l-203.89 76.093c-23.353,8.716 -36.379,115.205 -221.571,184.32 5.268,40.863 -45.884,235.216 -77.4,285.368 -7.113,11.329 -8.455,16.495 -15.025,28.384 -34.191,61.787 -93.769,118.685 -166.73,145.915 -60.175,22.457 -126.698,22.044 -183.142,7.465 -57.1,-14.74 -94.431,-41.61 -138.528,-82.542 -27.663,-25.669 -52.897,-59.175 -73.82,-93.063 -146.606,-237.44 -171.993,-512.034 -212.806,-775.574 -18.32,-118.353 -28.865,-235.748 21.693,-346.037 99.866,-217.851 310.237,-312.746 541.188,-239.863 17.807,5.625 32.068,9.828 48.512,17.27 40.231,18.21 57.237,42.85 100.589,26.671l314.342 -117.314c45.87,-17.119 41.508,-52.93 59.884,-88.958 49.522,-97.101 126.389,-188.655 237.256,-230.031zm341.15 539.903c-51.133,-137.009 -203.651,-206.626 -340.661,-155.493 -137.009,51.133 -206.625,203.651 -155.493,340.66 51.133,137.01 203.652,206.627 340.661,155.494 137.009,-51.133 206.625,-203.652 155.493,-340.661zm-744.794 386.032c-51.133,-137.009 -203.651,-206.625 -340.661,-155.493 -137.009,51.133 -206.625,203.652 -155.493,340.661 51.133,137.009 203.652,206.625 340.661,155.493 137.009,-51.133 206.626,-203.652 155.493,-340.661z"/>
 </g>
</svg>
