<?xml version="1.0" encoding="UTF-8"?>
<!DOCTYPE svg PUBLIC "-//W3C//DTD SVG 1.1//EN" "http://www.w3.org/Graphics/SVG/1.1/DTD/svg11.dtd">
<!-- Creator: CorelDRAW 2021.5 -->
<svg xmlns="http://www.w3.org/2000/svg" xml:space="preserve" width="2500px" height="2500px" version="1.1" style="shape-rendering:geometricPrecision; text-rendering:geometricPrecision; image-rendering:optimizeQuality; fill-rule:evenodd; clip-rule:evenodd"
viewBox="0 0 2500 2500"
 xmlns:xlink="http://www.w3.org/1999/xlink"
 xmlns:xodm="http://www.corel.com/coreldraw/odm/2003">
 <defs>
  <style type="text/css">
   <![CDATA[
    .str0 {stroke:white;stroke-width:55;stroke-miterlimit:22.9256}
    .fil0 {fill:none}
    .fil1 {fill:white}
   ]]>
  </style>
 </defs>
 <g id="Слой_x0020_1">
  <metadata id="CorelCorpID_0Corel-Layer"/>
  <rect class="fil0" x="-0.001" width="2500.001" height="2500.001"/>
  <path class="fil1 str0" d="M501.233 2060.329l126.167 -6.466c105.485,-7.52 284.55,-82.467 374.456,-134.477 376.491,-217.82 712.246,-601.58 878.095,-1003.683 126.556,-306.832 67.936,-474.45 73.169,-514.916 57.628,50.413 115.246,100.824 172.874,151.239 73.629,64.42 95.787,85.796 122.587,154.591 75.581,194 -29.55,498.493 -123.836,666.604 -170.656,304.27 -355.696,515.219 -633.456,725.343 -155.097,117.333 -443.072,261.014 -644.005,214.866 -70.895,-16.287 -97.69,-35.802 -169.342,-98.501 -58.907,-51.539 -117.81,-103.073 -176.709,-154.6l0 0zm-165.193 -144.524c-49.947,-43.698 -76.126,-91.071 -88.93,-138.751 -39.205,-146.007 -13.131,-285.667 34.454,-429.131 35.977,-108.486 81.895,-196.165 138.522,-295.004 156.574,-273.314 409.014,-537.752 672.16,-705.96 81.732,-52.25 175.342,-100.009 266.272,-129.429l99.465 -27.212c219.42,-39.362 400.789,38.831 424.942,269.413 1.741,16.673 5.492,19.957 5.752,35.786 1.753,107.9 -19.369,217.665 -53.943,321.921 -149.58,451.024 -640.869,990.464 -1073.534,1127.418 -48.738,15.428 -89.892,28.207 -138.853,33.25 -53.146,5.483 -80.18,11.268 -141.013,0.926 -46.422,-7.892 -98.907,-22.645 -145.294,-63.227l0 0zm-38.888 67.708l353.427 309.203c101.355,88.678 200.467,107.803 321.353,99.731 473.463,-31.597 966.682,-543.042 1185.698,-923.759 16.208,-28.173 29.273,-53.276 44.276,-82.529 89.505,-174.474 155.856,-369.372 142.702,-566.576 -4.248,-63.68 -9.63,-93.928 -35.124,-156.818 -22.698,-55.992 -54.571,-99.68 -113.872,-151.562l-338.055 -295.755c-144.435,-126.362 -305.809,-128.178 -479.305,-81.612 -87.174,23.389 -229.65,87.1 -309.011,139.374 -210.984,138.958 -313.802,225.248 -492.24,429.214 -180.351,206.148 -376.149,532.339 -415.375,812.663l-7.9 148.837c0.029,1.043 0.036,2.558 0.084,3.607 5.5,121.768 42.18,227.478 143.341,315.982l0.001 0z"/>
 </g>
</svg>
