<?xml version="1.0" encoding="UTF-8"?>
<!DOCTYPE svg PUBLIC "-//W3C//DTD SVG 1.1//EN" "http://www.w3.org/Graphics/SVG/1.1/DTD/svg11.dtd">
<!-- Creator: CorelDRAW 2021.5 -->
<svg xmlns="http://www.w3.org/2000/svg" xml:space="preserve" width="2500px" height="2500px" version="1.1" style="shape-rendering:geometricPrecision; text-rendering:geometricPrecision; image-rendering:optimizeQuality; fill-rule:evenodd; clip-rule:evenodd"
viewBox="0 0 2500 2500"
 xmlns:xlink="http://www.w3.org/1999/xlink"
 xmlns:xodm="http://www.corel.com/coreldraw/odm/2003">
 <defs>
  <style type="text/css">
   <![CDATA[
    .fil0 {fill:none}
    .fil1 {fill:white}
   ]]>
  </style>
 </defs>
 <g id="Слой_x0020_1">
  <metadata id="CorelCorpID_0Corel-Layer"/>
  <rect class="fil0" x="-0.001" width="2500.001" height="2500.001"/>
  <path class="fil1" d="M1793.329 1916.157l0 -689.611c0,-93.505 175.537,-82.734 175.537,-8.357l0 706.328c0,72.162 -175.537,86.283 -175.537,-8.36zm-1448.646 -49.828c7.512,16.355 15.245,32.301 23.164,47.796 130.104,254.563 331.684,404.786 543.335,438.553 15.537,2.478 155.105,84.344 170.727,85.563l136.168 -214.509c-14.36,-1.066 -288.773,33.668 -302.853,31.489 -32.711,-5.064 -64.412,-13.147 -93.896,-24.287 -74.663,-28.209 -91.378,-41.155 -156.623,-85.552 -26.888,-18.297 -52.808,-40.721 -77.501,-65.635 59.498,8.696 123.305,-8.086 166.575,-49.609 36.526,-35.053 53.199,-69.447 53.199,-139.058l0 -639.457c0,-162.368 -144.16,-218.052 -255.559,-180.326 -19.817,6.711 -38.252,21.554 -53.722,25.686 0,-195.564 94.842,-372.772 224.647,-502.579 74.959,-74.962 175.295,-140.117 280.507,-175.056 272.49,-90.489 570.771,-29.001 772.717,172.965 71.782,71.793 104.264,113.966 152.902,210.712 36.84,73.281 73.833,185.99 73.833,293.958 -15.47,-4.132 -33.905,-18.975 -53.722,-25.686 -102.22,-34.619 -209.865,16.258 -242.568,97.187 -8.852,21.903 -12.991,52.809 -12.991,83.139l0 639.457c0,116.286 70.973,185.426 184.517,191.68 19.461,1.071 60.085,-7.97 76.916,-13.837 72.249,-25.183 114.719,-88.484 114.719,-173.664 31.146,-2.591 65.288,-16.693 87.028,-29.996 137.787,-84.305 114.627,-184.667 113.559,-371.26 -0.274,-47.596 27.812,-128.409 39.55,-202.857 2.728,-17.292 4.349,-37.396 6.096,-52.415 2.088,-17.943 3.591,-36.151 4.534,-54.547l0 -97.313c-7.224,-149.041 -46.381,-300.617 -103.089,-413.409 -15.638,-31.104 -28.442,-55.065 -44.609,-84.955 -39.672,-73.337 -119.157,-165.872 -175.165,-221.884 -464.93,-464.977 -1248.47,-382.421 -1616.378,141.083 -114.378,162.75 -200.641,375.118 -200.641,589.277 0,114.322 1.919,177.694 30.04,291.779 8.629,35.014 20.486,55.609 20.17,101.033 -0.279,40.394 -0.057,80.861 -0.057,121.262 0,98.811 -0.72,140.433 45.311,197.097 16.426,20.218 40.699,41.593 69.16,58.175zm278.398 116.698c-44.561,0 -91.947,-22.06 -91.947,-58.51l0 -706.328c0,-74.377 175.537,-85.148 175.537,8.357l0 689.611c0,42.596 -40.311,66.87 -83.59,66.87zm1446.093 -188.075l0 -447.201c54.246,4.515 104.486,56.764 104.486,129.562l0 188.076c0,73.668 -53.721,125.34 -104.486,129.563zm-1742.834 -129.563l0 -188.076c0,-39.083 11.134,-66.986 29.177,-87.847 13.743,-15.893 47.886,-39.432 75.309,-41.715l0 447.201c-32.911,-2.737 -55.655,-24.026 -74.297,-42.727 -20.36,-20.427 -30.189,-47.574 -30.189,-86.836zm71.05 -551.689c0,68.981 3.231,76.295 8.36,137.923 -33.165,7.728 -61.503,22.712 -87.834,41.732 -10.539,7.614 -14.46,13.895 -25.012,20.96 -0.654,-29.411 -16.717,-90.963 -16.717,-179.716 0,-291.75 130.565,-533.899 276.889,-680.208 67.983,-67.976 148.157,-134.558 235.824,-177.942 89.717,-44.397 112.701,-57.343 215.367,-85.551 148.963,-40.933 339.045,-40.597 488.176,-0.892 87.364,23.26 135.644,43.561 213.068,83.674 52.849,27.385 63.751,35.742 111.217,68.5 252.7,174.389 440.104,516.903 402.274,883.734 -1.098,10.643 -3.119,30.46 -5.222,44.931 -2.229,15.322 -6.358,28.895 -6.684,43.47 -15.009,-10.051 -16.929,-18.124 -50.287,-37.482 -18.46,-10.714 -39.163,-19.758 -62.559,-25.21 5.129,-61.628 8.36,-68.942 8.36,-137.923 0,-144.813 -50.324,-301.071 -116.237,-410.375 -42.832,-71.03 -42.247,-65.217 -86.774,-122.198 -75.474,-96.584 -194.394,-174.372 -302.634,-228.156 -20.96,-10.416 -53.056,-20.434 -75.755,-28.732 -26.559,-9.705 -50.327,-16.379 -81.327,-23.159 -31.677,-6.931 -54.809,-10.633 -88.828,-15.661l-198.491 -0.561c-57.603,8.77 -118.407,18.742 -170.727,38.247 -80.241,29.912 -141.596,55.204 -212.506,105.133 -58.617,41.27 -67.227,52.289 -116.341,96.812l-12.538 12.538c-55.167,60.856 -108.356,122.445 -145.584,197.135 -52.291,104.918 -97.478,234.519 -97.478,378.977z"/>
 </g>
</svg>
