<?xml version="1.0" encoding="UTF-8"?>
<!DOCTYPE svg PUBLIC "-//W3C//DTD SVG 1.1//EN" "http://www.w3.org/Graphics/SVG/1.1/DTD/svg11.dtd">
<!-- Creator: CorelDRAW 2021.5 -->
<svg xmlns="http://www.w3.org/2000/svg" xml:space="preserve" width="2500px" height="2500px" version="1.1" style="shape-rendering:geometricPrecision; text-rendering:geometricPrecision; image-rendering:optimizeQuality; fill-rule:evenodd; clip-rule:evenodd"
viewBox="0 0 2500 2500"
 xmlns:xlink="http://www.w3.org/1999/xlink"
 xmlns:xodm="http://www.corel.com/coreldraw/odm/2003">
 <defs>
  <style type="text/css">
   <![CDATA[
    .str0 {stroke:white;stroke-width:66;stroke-miterlimit:22.9256}
    .fil0 {fill:none}
    .fil1 {fill:white}
   ]]>
  </style>
 </defs>
 <g id="Слой_x0020_1">
  <metadata id="CorelCorpID_0Corel-Layer"/>
  <rect class="fil0" x="-0.001" width="2500.001" height="2500.001"/>
  <path class="fil1 str0" d="M438.06 2218.083c-55.465,0 -66.902,-10.451 -106.297,-49.846 -12.013,-12.012 -22.358,-24.243 -35.468,-34.196 -9.149,-6.947 -8.369,-9.421 -16.131,-17.5l-118.924 -126.098c-22.183,-24.754 -20.947,-76.03 -1.442,-105.873 13.636,-20.864 87.422,-91.675 104.29,-104.7l70.677 -66.248c25.486,-19.449 107.455,-102.763 143.423,-132.829 6.105,-5.101 11.216,-10.955 16.913,-16.717l106.878 -99.71c30.145,-27.883 62.253,-54.725 91.309,-84.052l321.908 -297.855c30.793,-31.177 74.246,-67.512 108.04,-100.95 24.007,-23.754 64.545,-57.164 90.095,-82.863l55.887 -49.81 248.022 246.826 -362.97 392.513c-4.863,6.094 -10.787,11.316 -16.578,17.052l-182.559 196.987c-12.606,12.523 -21.09,23.549 -33.634,36.03 -12.112,12.054 -20.194,22.674 -32.431,34.832l-399.889 426.463c-10.17,9.995 -31.968,18.544 -51.119,18.544zm1.787 74.467l-25.069 0c-22.828,-1.598 -45.477,-7.604 -66.454,-18.363l-38.324 -26.535c-4.805,-4.04 -5.874,-4.058 -10.697,-8.52 -7.791,-7.209 -13.956,-14.048 -21.555,-21.685 -8.157,-8.2 -14.45,-11.86 -22.867,-20.373l-52.817 -52.877c-47.53,-53.973 -129.137,-111.465 -129.137,-190.356 0,-47.66 1.35,-75.399 26.835,-114.894 5.125,-7.941 10.368,-12.414 17.004,-19.029 12.616,-12.573 23.459,-23.417 36.033,-36.033 12.389,-12.43 23.464,-21.056 36.033,-33.63 6.263,-6.264 11.539,-12.276 18.035,-17.998l403.568 -377.143c7.219,-6.357 10.803,-8.331 18.009,-15.622 6.187,-6.26 11.572,-12.326 18.024,-18.008l92.418 -85.344c7.146,-7.07 12.003,-9.398 19.3,-16.732l109.23 -102.163c7.297,-7.336 12.155,-9.664 19.3,-16.734l182.762 -170.36c14.649,-11.686 23.095,-22.948 37.779,-34.286l91.726 -86.036c6.012,-5.202 14.984,-8.479 14.984,-18.646 0,-9.431 -16.815,-37.36 -16.815,-62.458 0,-85.132 45.641,-96.788 45.641,-120.11 0,-42.722 -181.565,-167.971 -218.461,-189.91 -9.397,-5.587 -18.546,-11.156 -28.483,-17.16 -48.087,-29.051 -134.597,-60.755 -152.385,-73.42 -6.415,-4.567 -6.107,-3.875 -10.604,-11.014 -5.953,-9.45 -5.646,-19.292 -5.646,-30.388 0,-16.105 20.31,-36.019 32.378,-42.091 37.069,-18.649 145.427,-37.182 186.222,-37.182 169.74,0 249.017,5.005 404.474,56.746 108.942,36.26 212.902,90.071 302.128,161.496l25.357 22.686c8.156,6.817 15.195,15.154 22.881,22.759 5.654,5.594 7.387,6.053 13.152,10.871 25.473,21.294 100.101,99.886 127.423,127.209l44.411 46.872c15.791,17.073 30.062,30.472 44.764,48.921 15.008,18.834 24.329,40.281 24.329,66.955 0,57.896 -24.022,52.263 -24.022,81.673 0,20.383 31.272,50.753 49.765,56.199 10.705,3.154 23.644,-11.137 33.44,-16.233 12.707,-6.609 23.437,-8.736 41.709,-8.736 44.44,0 57.669,6.875 87.504,30.204l111.308 104.888c34.516,37.318 72.636,68.093 72.636,124.343 0,37.998 -1.856,55.074 -35.405,89.509 -8.907,9.143 -13.709,16.15 -22.844,25.202l-253.388 251.071c-21.321,20.54 -43.321,40.188 -79.92,40.188 -22.933,0 -48.112,-1.81 -64.428,-12.441 -46.599,-30.364 -123.612,-113.853 -160.824,-151.46 -5.697,-5.757 -8.916,-10.811 -14.351,-16.879 -15.711,-17.544 -29.442,-37.19 -29.442,-64.242 0,-49.677 11.778,-74.257 37.44,-109.095 19.95,-27.081 19.122,-75.874 -27.831,-75.874 -26.234,0 -39.444,14.856 -55.697,25.978 -73.093,50.016 -140.004,3.955 -153.294,2.848 -3.012,11.277 -103.475,111.374 -119.401,130.426l-50.555 55.143c-27.448,27.313 -58.46,65.477 -85.229,92.531 -6.09,6.155 -10.877,10.45 -16.912,16.72l-135.626 147.832c-33.579,34.886 -70.822,78.09 -103.344,110.451 -12.476,12.416 -20.977,23.488 -33.635,36.029 -29.713,29.437 -55.597,63.1 -85.268,92.495l-50.864 54.831c-5.865,7.595 -10.991,11.87 -17.608,18.425 -7.667,7.597 -10.07,11.53 -16.829,19.204l-222.291 238.929c-5.103,6.104 -10.955,11.215 -16.719,16.911 -24.285,24.002 -43.476,49.564 -69.784,71.945 -28.894,24.579 -65.533,38.943 -103.177,41.57zm514.683 -1998.621c8.082,-0.672 16.697,-3.336 24.396,-4.43 10.618,-1.508 16.426,-2.198 27.412,-3.816 60.137,-8.858 116.701,-8.188 176.758,-1.721 66.162,7.124 74.936,4.136 150.018,22.94 12.554,3.146 22.732,5.524 34.315,8.925 41.917,12.309 86.562,26.955 126.012,44.542 55.711,24.835 89.118,41.185 142.298,73.901 43.406,26.704 39.893,26.481 74.104,53.212 34.359,26.846 215.99,206.581 229.942,224.071 15.193,19.043 42.882,42.471 42.882,67.618 0,2.813 -69.063,78.756 13.776,161.585 36.205,36.2 101.722,48.312 135.113,30.543 41.868,-22.281 20.8,-34.017 102.633,34.387 11.077,9.258 24.26,26.291 37.755,36.712 20.1,15.52 31.434,32.378 48.83,49.66 9.434,9.373 14.337,14.855 22.864,25.18 7.537,9.122 11.369,23.469 11.369,39.077 0,14.711 -59.09,72.301 -71.466,84.677 -27.01,27.01 -52.26,52.262 -79.272,79.272 -9.232,9.232 -150.229,155.542 -159.145,155.542 -55.952,0 -35.808,6.229 -82.275,-40.236l-96.069 -96.106c-26.585,-30.187 -25.841,-27.073 -25.841,-55.833 0,-26.769 50.446,-55.357 50.446,-120.11 0,-59.441 -48.36,-115.305 -98.491,-115.305 -54.424,0 -68.124,0.091 -112.503,36.433 -17.573,14.391 -29.211,11.612 -53.248,11.612 -7.825,0 -83.87,-80.268 -90.682,-87.081l-223.404 -223.402c-37.199,-37.2 -43.839,-34.163 -43.839,-61.858 0,-26.224 12.394,-35.648 23.725,-50.742 30.004,-39.971 30.623,-99.173 -1.482,-134.85 -7.468,-8.3 -10.765,-13.584 -19.191,-21.646l-54.886 -48.409c-5.358,-4.169 -6.501,-6.159 -11.34,-10.278 -51.988,-44.228 -136.835,-103.221 -197.865,-133.639 -9.831,-4.9 -18.22,-8.876 -27.255,-13.581 -7.085,-3.687 -22.324,-11.292 -26.394,-16.846z"/>
 </g>
</svg>
