<?xml version="1.0" encoding="UTF-8"?>
<!DOCTYPE svg PUBLIC "-//W3C//DTD SVG 1.1//EN" "http://www.w3.org/Graphics/SVG/1.1/DTD/svg11.dtd">
<!-- Creator: CorelDRAW 2021.5 -->
<svg xmlns="http://www.w3.org/2000/svg" xml:space="preserve" width="2500px" height="2500px" version="1.1" style="shape-rendering:geometricPrecision; text-rendering:geometricPrecision; image-rendering:optimizeQuality; fill-rule:evenodd; clip-rule:evenodd"
viewBox="0 0 2500 2500"
 xmlns:xlink="http://www.w3.org/1999/xlink"
 xmlns:xodm="http://www.corel.com/coreldraw/odm/2003">
 <defs>
  <style type="text/css">
   <![CDATA[
    .str0 {stroke:white;stroke-width:25;stroke-miterlimit:22.9256}
    .fil0 {fill:none}
    .fil1 {fill:white}
   ]]>
  </style>
 </defs>
 <g id="Слой_x0020_1">
  <metadata id="CorelCorpID_0Corel-Layer"/>
  <rect class="fil0" x="-0.001" width="2500.001" height="2500.001"/>
  <path class="fil1 str0" d="M1088.794 1383.724c0,-4.267 7.641,-6.926 15.304,-11.346l113.05 -64.832 0.006 148.154 -125.686 68.397 -2.674 -140.373zm194.367 -75.787c5.616,1.129 82.028,46.682 97.882,55.762 4.513,2.585 30.548,15.605 30.525,20.025l-2.844 138.906c-2.916,1.17 -5.269,-0.768 -8.05,-2.42l-23.961 -13.261c-25.134,-13.987 -71.338,-38.169 -93.513,-51.639l-0.039 -147.373zm34.33 -58.158c3.342,-3.047 124.744,-72.686 125.893,-72.907 4.763,-0.92 26.426,14.079 31.626,17.209l91.41 55.698c-2.505,2.826 -25.09,16.099 -30.112,18.986 -10.857,6.24 -20.393,12.225 -30.984,18.632l-46.472 27.968c-4.258,2.634 -11.144,8.695 -16.515,7.119l-94.526 -54.515c-9.887,-5.556 -22.298,-11.39 -30.32,-18.19zm-383.522 0c6.372,-5.256 79.018,-48.208 92.655,-56.572 5.592,-3.43 10.249,-6.05 15.597,-9.249 4.694,-2.807 10.682,-8.23 15.454,-6.836 3.125,0.913 123.148,70.735 125.159,72.657l-126.901 73.756c-6.575,-2.126 -24.543,-14.212 -31.645,-18.534l-90.319 -55.222zm157.697 -274.197c6.191,2.002 25.076,13.113 31.702,17.004l93.763 51.317c0.156,39.305 1.598,113.36 -0.505,148.283l-96.139 -55.341c-5.828,-3.306 -10.059,-5.967 -15.653,-9.148 -4.476,-2.545 -11.321,-6.042 -16.002,-9.387l2.166 -120.298 0.668 -22.43zm191.602 68.677c35.889,-20.505 75.552,-40.605 110.241,-60.856l13.596 -6.687 4.463 141.655c-6.347,3.876 -122.823,71.839 -128.378,73.294l0.078 -147.406zm0.12 -568.911c-1.527,-24.674 -0.192,-53.701 -0.192,-78.852 -0.001,-24.52 -3.864,-21.307 9.717,-29.674 33.069,-20.371 66.71,-39.077 100.586,-58.143 7.648,-4.305 18.464,-10.008 24.956,-14.715 37.033,-26.853 17.012,-89.017 -30.13,-89.425 -13.37,-0.116 -20.135,4.503 -29.554,9.861 -14.492,8.242 -64.755,39.576 -75.63,43.033 0.574,-29.517 0.055,-59.563 0.055,-89.14 0,-13.075 2.469,-30.563 -4.302,-40.644 -13.455,-20.038 -45.451,-20.995 -57.938,1.038 -5.914,10.435 -3.797,27.687 -3.797,40.846 0,29.335 0.346,58.882 -0.054,88.19 -28.891,-13.969 -55.86,-34.395 -84.484,-48.329 -52.865,-25.737 -103.907,55.103 -41.702,90.104 14.301,8.048 27.29,16.042 41.671,24.061 14.599,8.141 28.7,16.228 42.494,24.494 13.177,7.896 27.962,16.943 42.065,23.948l-0.283 103.547c-27.481,-13.99 -56.015,-32.316 -83.062,-47.817 -18.277,-10.475 -147.258,-87.175 -164.922,-95.504 -35.8,-16.88 -73.282,15.8 -68.834,52.977 2.437,20.385 13.582,29.471 27.894,37.594 14.258,8.091 27.848,15.812 41.642,24.082 27.041,16.212 55.08,32.209 82.536,47.713 28.121,15.88 55.29,31.444 82.425,47.788 14.17,8.534 27.45,15.801 41.586,24.151 6.632,3.916 13.562,7.603 20.469,11.763 5.757,3.467 14.77,9.268 20.551,11.622l0.042 99.676c-7.312,-3.118 -15.026,-8.508 -21.628,-12.286 -21.307,-12.193 -41.652,-26.296 -63.384,-37.054 -36.117,-17.879 -74.033,16.682 -69.225,53.15 2.9,21.991 14.53,29.077 28.972,37.936 12.019,7.373 115.329,68.693 125.234,72.638l-0.059 125.902c-14.677,-6.193 -28.693,-15.84 -43.654,-23.344 -14.207,-7.125 -27.862,-15.714 -42.47,-23.259 -14.569,-7.526 -28.995,-16.07 -43.44,-23.54 -14.593,-7.546 -28.411,-19.135 -49.853,-15.174 -17.723,3.275 -32.471,16.265 -38.695,28.339 -7.326,14.209 -5.192,42.04 -5.769,60.209 -0.945,29.775 -0.68,103.939 -3.448,127.71 -3.044,-1.425 -107.311,-60.181 -108.674,-62.81 -1.645,-3.168 -0.657,-98.226 -0.657,-110.381 0.001,-38.476 4.271,-66.679 -25.671,-82.844 -13.02,-7.028 -32.491,-7.362 -46.244,-0.823 -11.341,5.391 -21.609,16.062 -25.382,29.138 -5.372,18.611 -0.121,82.647 -1.502,107.686 -6.647,-2.877 -15.333,-8.554 -22.012,-12.365 -7.715,-4.402 -14.038,-8.082 -21.151,-12.316 -14.216,-8.463 -28.841,-16.969 -43.099,-24.918 -0.885,-68.071 0.466,-136.353 -0.347,-204.476 -0.404,-33.8 -0.003,-67.869 -0.003,-101.699 0,-38.699 2.557,-60.506 -26.23,-75.512 -28.868,-15.047 -59.078,1.667 -68.701,22.783 -7.012,15.387 -3.995,75.778 -3.996,97.378 -0.002,67.452 1.847,136.382 -0.087,204.198l-89.205 -51.623c0.159,-36.788 0.011,-73.615 0.011,-110.408 0,-40.93 4.466,-67.204 -26.511,-82.981 -30.229,-15.397 -62.944,3.015 -70.499,28.446 -4.38,14.745 -1.914,86.334 -1.914,107.241 -20.065,-6.139 -84.984,-53.035 -105.615,-59.301 -17.92,-5.444 -31.539,5.733 -37.353,15.519 -8.673,14.595 -4.217,32.642 5.585,41.044 6.759,5.793 93.584,55.655 103.704,60.059 -3.414,3.551 -6.695,4.657 -13.175,8.665l-40.119 23.136c-28.888,16.981 -61.04,30.615 -49.032,71.72 6.393,21.882 24.21,36.25 47.333,36.38 14.308,0.081 21.246,-5.069 30.905,-10.652 35.208,-20.352 71.344,-41.23 106.229,-61.224 16.55,-9.485 12.904,-12.581 27.587,-4.151l52.662 30.397c7.926,4.668 18.4,9.579 25.635,15.224 -2.337,2.918 -8.163,5.426 -11.306,7.248l-35.353 20.42c-15.826,8.822 -31.188,17.817 -46.512,26.681l-140.812 81.161c-16.647,9.272 -30.14,17.172 -32.889,40.557 -2.808,23.885 10.852,41.454 23.712,49.791 20.413,13.235 37.336,7.173 55.592,-2.966 77.86,-43.242 156.933,-90.231 234.57,-135.009 15.386,-8.874 31.083,-17.375 46.475,-26.772 5.501,-3.36 6.021,-4.244 11.481,-1.13 25.998,14.829 55.367,34.464 81.009,46.905 -6.68,5.343 -19.417,11.746 -27.811,16.459 -8.928,5.013 -18.236,10.512 -27.557,15.817 -9.063,5.157 -19.224,10.378 -28.44,16.221 -32.604,20.672 -23.806,68.377 4.496,84.093 27.919,15.503 44.127,1.354 64.765,-9.835 10.396,-5.636 103.177,-60.453 111.365,-63.652 5.677,-2.218 10.048,2.718 14.668,5.407 31.856,18.545 65.634,36.248 96.55,55.956 -4.844,4.184 -16.43,10.463 -22.307,14.042l-115.542 70.479c-16.628,10.222 -27.93,20.223 -27.922,46.548 0.007,26.829 11.559,36.509 27.92,46.563 20.975,12.891 122.946,73.625 137.787,84.509 -10.18,8.231 -67.628,39.408 -83.674,48.868 -25.585,15.085 -19.785,17.273 -42.611,3.94l-97.084 -55.478c-19.769,-11.177 -38.728,-25.152 -65.394,-8.43 -28.451,17.841 -35.342,64.243 -1.635,84.161 13.16,7.775 76.262,41.447 82.332,47.444 -14.924,9.304 -31.857,18.421 -47.163,27.23 -8.36,4.813 -14.816,8.859 -23.468,13.704 -9.487,5.313 -12.17,10.902 -22.671,4.442 -30.618,-18.838 -62.668,-36.15 -93.584,-54.003l-186.567 -107.387c-18.1,-10.168 -35.613,-16.08 -56.118,-2.317 -12.832,8.613 -26.295,25.963 -23.018,50.32 3.156,23.471 17.246,30.784 34.151,40.4 16.107,9.161 30.772,17.816 46.539,26.664 32.022,17.97 62.279,36.502 93.583,53.967 16.087,8.975 30.983,17.8 46.59,26.641 8.977,5.084 40.52,21.632 45.919,27.197 -7.443,7.085 -66.081,38.306 -79.878,46.633 -5.576,3.364 -7.057,6.002 -12.815,2.819 -39.943,-22.075 -78.995,-45.883 -118.844,-68.622 -21.523,-12.281 -41.755,-17.699 -62.549,0.542 -24.796,21.752 -27.609,60.725 6.675,81.413l53.494 30.867c4.936,2.84 8.346,4.859 13.266,7.768 2.627,1.553 3.667,1.979 6.355,3.571l5.18 3.837c0.115,-0.225 0.472,0.448 0.692,0.688 -11.117,5.696 -22.757,13.297 -34.464,19.796 -11.79,6.544 -23.132,13.093 -34.622,19.939 -9.45,5.631 -26.922,14.198 -34.078,20.513 -10.453,9.225 -14.487,25.466 -5.82,40.835 5.571,9.881 19.767,20.94 37.507,15.653 18.002,-5.364 84.378,-51.808 105.511,-59.389 -0.2,20.687 -2.328,93.705 2.132,108.198 7.662,24.891 40.558,43.031 71.235,27.159 30.668,-15.866 25.535,-43.595 25.535,-83.938 0,-36.327 -0.157,-72.687 0.016,-109.009 13.429,-8.984 29.634,-17.04 44.495,-25.959 11.442,-6.867 33.278,-20.817 45.021,-25.251 1.175,68.009 -0.251,136.8 -0.251,204.868 0,21.63 -3.308,81.578 4.363,96.99 10.444,20.979 39.572,37.302 69.322,21.666 28.286,-14.866 25.242,-38.623 25.242,-76.489 0,-33.6 -0.819,-68.228 0.054,-101.699 1.756,-67.391 -1.33,-135.708 0.28,-203.15l86.104 -49.532c3.23,27.612 -4.832,86.212 1.96,108.481 13.24,43.416 85.253,45.558 95.761,-3.954 2.309,-10.882 1.252,-40.132 1.252,-52.763 0,-19.249 -1.035,-96.298 0.777,-109.14 8.068,-6.036 18.742,-10.998 27.195,-16.063 12.561,-7.528 72.426,-43.753 81.643,-46.352 1.375,43.571 2.314,87.012 3.201,130.676 0.368,18.101 -1.458,44.025 6.494,58.564 6.316,11.549 21.747,24.031 38.9,26.941 21.422,3.633 35.842,-8.633 50.554,-16.293 28.24,-14.703 56.594,-31.764 85.149,-46.332 12.19,-6.22 30.416,-18.876 42.799,-22.822l-0.264 125.156c-5.302,4.323 -14.401,8.831 -20.661,12.539l-105.792 61.661c-14.223,8.107 -25.327,16.989 -27.555,38.02 -3.912,36.947 33.986,70.551 70.268,51.788l42.081 -24.839c13.386,-8.216 27.588,-17.48 41.924,-24.16l0.005 99.794c-14.675,6.136 -67.128,38.768 -83.36,47.863 -69.259,38.809 -137.115,80.464 -206.491,119.661 -14.191,8.018 -24.834,16.6 -27.32,37.119 -4.541,37.452 32.964,69.792 69.818,52.556 14.411,-6.74 27.591,-16.196 41.672,-24.077l123.277 -71.435c27.214,-15.456 54.525,-32.431 82.366,-47.346l-0.147 103.591c-13.86,6.637 -28.707,16.277 -42.544,24.329 -13.603,7.915 -28.011,15.951 -41.812,23.959 -15.372,8.921 -50.924,26.056 -60.881,39.547 -27.625,37.428 13.779,98.992 60.98,74.674 21.347,-10.998 42.608,-24.815 63.831,-36.658 6.422,-3.584 14.164,-8.981 20.54,-11.626 0.553,29.59 0.069,59.641 0.069,89.282 0,13.502 -2.136,29.807 4.166,40.495 4.837,8.203 15.294,16.076 29.335,15.844 14.228,-0.235 23.76,-8.022 28.683,-16.484 6.191,-10.643 3.853,-28.021 3.853,-41.095 0,-29.072 -0.603,-58.795 0.079,-87.784 5.411,1.806 15.505,8.293 21.18,11.673 20.364,12.124 41.731,25.619 62.97,36.246 36.018,18.024 73.45,-13.82 70.042,-51.606 -1.865,-20.676 -13.667,-30.393 -28.32,-38.504l-125.943 -72.638 -0.016 -102.751c9.103,2.479 70.867,39.886 83.878,47.598 27.935,16.556 54.209,31.611 82.433,47.78 21.304,12.204 63.174,38.724 82.48,47.711 35.721,16.63 73.759,-17.032 68.2,-54.594 -2.929,-19.797 -14.616,-28.876 -28.866,-36.842 -13.642,-7.623 -27.683,-15.711 -40.843,-23.626 -27.286,-16.414 -54.816,-32.065 -82.473,-47.764 -55.39,-31.44 -109.076,-65.04 -164.799,-95.514l0.006 -98.98c9.874,2.854 32.267,18.334 42.342,24.226 13.967,8.168 27.887,17.414 42.35,24.64 47.653,23.809 89.257,-39.249 59.429,-76.78 -9.284,-11.683 -46.602,-30.372 -60.606,-38.587 -26.994,-15.835 -57.423,-31.498 -83.522,-48.834l-0.033 -125.041c12.105,3.558 31.459,16.773 43.409,23.009 14.571,7.603 28.398,15.598 42.644,23.099 14.69,7.736 27.979,15.745 42.513,23.197 15.102,7.741 28.221,19.451 49.694,15.991 17.677,-2.849 33.024,-15.289 39.505,-27.546 7.669,-14.507 5.738,-40.901 6.153,-59.284 0.969,-43.011 2.683,-86.11 3.106,-129.163 0.869,0.133 101.075,55.008 109.374,62.673 0.658,36.377 0.362,73.466 0.362,109.898 -0.001,40.457 -3.985,67.697 26.206,83.231 30.972,15.936 63.522,-3.399 71.001,-28.498 4.167,-13.985 1.616,-87.247 1.408,-107.253 6.795,2.172 16.624,8.697 22.694,12.161 13.436,7.668 52.655,32.269 63.726,36.524 1.434,67.628 0.155,136.951 0.074,204.753 -0.041,33.853 0.309,67.81 0.309,101.7 0,38.256 -2.657,60.747 25.942,75.493 29.003,14.954 59.523,-1.089 68.949,-22.451 6.952,-15.755 4.512,-76.441 3.964,-97.691 -1.722,-66.772 -0.784,-136.72 0.036,-204.115l89.302 51.203c0.149,36.905 0.016,73.836 0.016,110.744 0,40.671 -5.069,66.962 26.22,82.967 30.708,15.707 63.281,-3 70.75,-28.14 4.351,-14.647 2.05,-87.061 1.934,-107.502 7.478,2.447 29.144,15.96 36.372,20.355 11.509,6.998 60.123,36.607 69.862,39.254 17.437,4.739 31.424,-6.418 37.091,-16.492 8.109,-14.413 2.955,-32.599 -6.162,-40.473 -8.325,-7.192 -91.193,-53.588 -103.216,-60.251 3.117,-3.553 45.088,-26.991 52.922,-31.355 17.013,-9.477 38.265,-17.883 46.782,-36.322 11.232,-24.321 0.018,-49.183 -14.18,-60.302 -21.937,-17.178 -39.319,-13.453 -61.788,-0.808 -36.084,20.308 -70.373,41.22 -106.208,61.249 -15.688,8.768 -12.529,12.788 -27.787,3.918 -9.188,-5.34 -17.048,-9.933 -26.009,-14.929 -9.065,-5.055 -17.538,-10.068 -26.653,-15.492 -6.185,-3.68 -20.816,-10.925 -25.421,-15.199 4.384,-4.556 177.316,-102.733 186.76,-108.069 16.314,-9.214 31.32,-18.508 47.179,-27.245 16.339,-9.003 29.962,-17.472 32.9,-40.154 5.687,-43.883 -39.827,-72.084 -77.804,-48.181 -15.309,9.636 -31.914,17.852 -47.294,27.098 -15.471,9.3 -30.616,18.032 -46.402,26.804 -47.978,26.661 -93.694,54.371 -140.892,81.106 -15.814,8.959 -31.246,17.663 -46.472,26.719 -5.801,3.451 -6.978,5.435 -13.251,1.981l-80.69 -47.102c12.45,-9.501 40.625,-23.129 55.425,-31.85 18.909,-11.141 40.107,-18.309 47.002,-39.814 8.84,-27.57 -5.79,-50.268 -22.531,-60.355 -25.93,-15.624 -44.983,-2.304 -64.629,9.157l-83.652 47.795c-5.376,3.01 -8.878,5.13 -14.165,8.153 -15.209,8.698 -12.74,12.084 -28.484,3.054l-69.235 -39.917c-8.057,-4.575 -19.523,-10.506 -27.231,-16.143l1.844 -1.863c0.184,-0.158 0.476,-0.403 0.675,-0.561 8.938,-7.077 123.061,-75.438 135.502,-82.793 16.299,-9.634 27.298,-20.237 27.268,-46.247 -0.031,-27.117 -11.509,-36.373 -28.145,-46.611l-137.584 -85.407c10.645,-3.747 69.203,-39.268 83.686,-47.662 6.351,-3.681 21.346,-15.589 28.205,-12.534 10.294,4.584 98.835,56.99 111.176,63.828 21.086,11.683 37.95,25.069 65.747,8.708 15.495,-9.12 30.713,-33.918 21.549,-59.976 -4.173,-11.865 -10.871,-18.893 -20.238,-24.458 -14.143,-8.404 -74.676,-40.555 -82.106,-47.245 13.795,-9.85 31.911,-18.833 47.027,-27.32l35.44 -20.54c4.884,-2.565 6.453,0.06 10.47,2.354l187.428 107.809c31.374,17.785 63.288,35.504 93.638,53.949 44.943,27.314 83.926,-9.862 78.684,-47.949 -3.284,-23.863 -16.899,-30.542 -33.798,-40.392 -30.974,-18.052 -228.576,-129.328 -232.982,-134.983 8.415,-6.794 65.914,-38.601 79.692,-46.455 6.746,-3.847 7.11,-6.578 14.414,-2.132 38.482,23.426 79.178,45.443 117.929,68.173 22.72,13.326 41.784,16.334 62.678,-1.247 23.67,-19.916 27.369,-61.161 -8.435,-81.579l-52.663 -30.417c-8.696,-4.897 -18.925,-9.518 -25.493,-15.605 12.686,-6.526 99.15,-55.54 104.908,-61.23 21.191,-20.944 0.194,-67.353 -34.239,-55.305 -10.168,3.558 -59.461,33.597 -69.608,39.53 -11.025,6.446 -22.775,14.943 -34.253,19.607 -4.778,-27.16 4.779,-83.821 -2.547,-107.617 -7.894,-25.642 -39.23,-43.204 -70.608,-28.104 -31.082,14.957 -26.304,44.259 -26.304,84.1 0,36.56 -0.095,73.133 -0.005,109.69 -15.965,5.807 -71.398,43.833 -89.561,50.818 -0.265,-68.378 -0.219,-136.793 0.278,-205.157 0.162,-22.145 3.181,-81.377 -4.484,-97.218 -10.327,-21.344 -39.643,-36.199 -69.274,-21.201 -9.863,4.992 -19.488,15.041 -23.207,27.671 -3.402,11.553 -1.956,35.406 -1.956,48.58l-0.32 305.34c-19.657,7.957 -68.141,42.1 -86.37,49.002 -1.043,-23.412 3.564,-92.26 -1.759,-108.681 -8.047,-24.831 -40.608,-42.946 -71.415,-26.97 -30.308,15.719 -25.554,43.956 -25.554,83.927 0,36.261 -0.265,72.506 -0.32,108.779 -7.988,7.761 -107.921,62.433 -109.463,62.634 0.22,-43.169 -2.144,-87.261 -3.07,-130.486 -0.392,-18.286 1.514,-44.668 -6.586,-58.854 -6.442,-11.284 -21.541,-23.926 -39.146,-26.619 -19.976,-3.056 -36.62,8.449 -50.424,16.32 -28.381,16.18 -56.969,30.064 -85.085,46.36 -7.943,4.604 -36.099,20.895 -42.633,22.629l0.013 -125.045c9.456,-7.431 111.729,-65.497 126.617,-74.044 62.576,-35.922 8.93,-116.326 -42.555,-89.709 -15.254,7.886 -73.82,46.023 -84.078,48.319l0.126 -98.859c12.879,-8.618 27.788,-16.432 41.492,-24.125l248.174 -143.733c14.845,-8.453 24.927,-18.474 27.317,-37.121 4.749,-37.05 -33.977,-71.262 -69.925,-52.621 -28.097,14.571 -54.766,32.132 -82.426,47.762 -48.54,27.429 -96.068,56.553 -144.491,83.729 -5.65,3.172 -14.643,9.279 -20.073,11.162z"/>
 </g>
</svg>
