<?xml version="1.0" encoding="UTF-8"?>
<!DOCTYPE svg PUBLIC "-//W3C//DTD SVG 1.1//EN" "http://www.w3.org/Graphics/SVG/1.1/DTD/svg11.dtd">
<!-- Creator: CorelDRAW 2021.5 -->
<svg xmlns="http://www.w3.org/2000/svg" xml:space="preserve" width="2500px" height="2500px" version="1.1" style="shape-rendering:geometricPrecision; text-rendering:geometricPrecision; image-rendering:optimizeQuality; fill-rule:evenodd; clip-rule:evenodd"
viewBox="0 0 2500 2500"
 xmlns:xlink="http://www.w3.org/1999/xlink"
 xmlns:xodm="http://www.corel.com/coreldraw/odm/2003">
 <defs>
  <style type="text/css">
   <![CDATA[
    .str0 {stroke:white;stroke-width:20;stroke-miterlimit:22.9256}
    .fil0 {fill:none}
    .fil1 {fill:white;fill-rule:nonzero}
   ]]>
  </style>
 </defs>
 <g id="Слой_x0020_1">
  <metadata id="CorelCorpID_0Corel-Layer"/>
  <rect class="fil0" x="-0.001" width="2500.001" height="2500.001"/>
  <path class="fil1 str0" d="M1723.701 2370.78l-947.402 0c-232.162,0 -421.094,-188.932 -421.094,-421.093l0 -596.3c0,-135.181 66.561,-261.668 176.123,-340.352 -10.522,-50.092 -15.783,-99.955 -15.783,-149.132 0,-405.082 329.373,-734.683 734.454,-734.683 405.083,0 734.684,329.601 734.684,734.683 0,48.949 -5.261,98.812 -15.782,148.904 109.561,78.684 175.894,205.4 175.894,340.352l0 596.3c-0.001,232.389 -188.933,421.321 -421.094,421.321zm-263.04 -323.196l-421.094 0c-19.443,0 -37.512,-9.379 -48.949,-25.161 -11.207,-15.782 -14.41,-35.91 -8.005,-54.209l85.545 -252.975c-46.889,-46.891 -73.651,-110.477 -73.651,-177.724 0,-138.839 112.992,-251.832 251.832,-251.832 138.839,0 251.605,113.223 251.605,252.061 0,64.502 -24.474,125.116 -68.162,171.548l87.833 258.922c6.176,18.299 3.202,38.427 -8.005,54.209 -11.438,16.012 -29.736,25.161 -48.949,25.161zm-337.377 -120.313l253.205 0 -73.423 -217.294c-8.234,-24.703 0.229,-51.921 21.043,-67.704 34.081,-25.161 53.524,-63.587 53.524,-104.988 0,-72.736 -59.013,-131.519 -131.52,-131.519 -72.737,0 -131.52,59.013 -131.52,131.519 0,43.229 21.501,83.944 57.411,108.419 22.188,15.324 31.794,43.458 22.873,68.849l-71.593 212.718zm444.443 -962.702l-632.846 0c-17.945,0 -36.196,-11.809 -41.106,-28.987 -10.889,-37.885 -15.951,-70.556 -15.951,-102.611 0,-205.223 166.878,-372.101 372.1,-372.101 205.376,0 372.252,166.879 372.252,372.101 0,31.902 -5.06,64.418 -15.951,102.458 -4.601,17.177 -20.553,29.14 -38.498,29.14zm-317.803 -423.175c-160.741,0 -291.422,130.833 -291.422,291.423 0,16.258 1.841,32.975 5.522,51.227l572.108 -0.153c3.833,-18.405 5.521,-34.97 5.521,-51.074 0,-160.59 -130.834,-291.423 -291.729,-291.423zm0.075 -291.862c-338.75,0 -614.141,275.62 -614.141,614.37 0,52.608 7.548,106.589 22.187,160.798 7.32,26.533 -4.345,54.666 -28.362,68.162 -94.923,53.751 -153.937,153.478 -153.937,260.753l0 596.301c0,165.829 134.952,300.78 300.782,300.78l947.402 0c165.83,0 300.78,-134.951 300.78,-300.78l0 -596.529c0,-107.046 -58.783,-207.002 -153.706,-260.754 -24.017,-13.494 -35.683,-41.4 -28.363,-67.932 14.638,-54.209 22.187,-108.189 22.187,-160.798 -0.458,-338.751 -276.078,-614.371 -614.829,-614.371z"/>
 </g>
</svg>
