<?xml version="1.0" encoding="UTF-8"?>
<!DOCTYPE svg PUBLIC "-//W3C//DTD SVG 1.1//EN" "http://www.w3.org/Graphics/SVG/1.1/DTD/svg11.dtd">
<!-- Creator: CorelDRAW 2021.5 -->
<svg xmlns="http://www.w3.org/2000/svg" xml:space="preserve" width="2500px" height="2500px" version="1.1" style="shape-rendering:geometricPrecision; text-rendering:geometricPrecision; image-rendering:optimizeQuality; fill-rule:evenodd; clip-rule:evenodd"
viewBox="0 0 2500 2500"
 xmlns:xlink="http://www.w3.org/1999/xlink"
 xmlns:xodm="http://www.corel.com/coreldraw/odm/2003">
 <defs>
  <style type="text/css">
   <![CDATA[
    .str0 {stroke:white;stroke-width:55;stroke-miterlimit:22.9256}
    .fil0 {fill:none}
    .fil1 {fill:white}
   ]]>
  </style>
 </defs>
 <g id="Слой_x0020_1">
  <metadata id="CorelCorpID_0Corel-Layer"/>
  <rect class="fil0" x="-0.001" width="2500.001" height="2500.001"/>
  <path class="fil1 str0" d="M571.342 1593.541l1.335 1.328c-0.089,-0.081 -1.773,-0.89 -1.335,-1.328zm111.544 53.537c152.237,-35.471 212.359,-58.276 352.463,-151.688 52.936,-35.301 169.256,-126.533 210.876,-168.367 18.421,-18.518 46.387,-50.681 65.743,-63.637 22.737,33.958 48.686,61.976 73.997,95.541l68.777 100.762c-52.654,78.632 -333.604,163.175 -442.924,181.708l-108.408 16.516c-58.193,7.972 -109.476,8.417 -171.503,7.075 -49.176,-1.069 -45.661,-5.34 -49.021,-17.91l0 0zm-236.468 -272.155c22.916,15.344 40.803,19.646 71.387,26.773 4.739,56.94 46.277,156.182 53.537,187.381 -27.602,-18.488 -119.51,-171.97 -124.924,-214.153l0 -0.001zm200.775 196.311c-2.277,-27.343 -44.155,-114.86 -49.079,-174.003 35.486,-0.793 126.495,-39.164 151.495,-53.737 22.011,-12.829 42.101,-23.197 64.423,-38.192 105.041,-70.557 110.262,-78.691 206.611,-159.237 10.042,-8.388 17.606,-17.184 26.973,-26.565l54.656 -52.424c13.816,9.255 28.173,18.807 41.159,30.228 27.847,24.495 99.843,85.44 114.993,108.074 -19.318,12.948 -43.428,41.04 -61.323,59.135 -12.77,12.927 -17.643,15.656 -31.029,26.973 -77.72,65.736 -154.929,134.23 -246.747,181.567 -78.417,40.432 -125.91,69.599 -218.862,88.985 -17.799,3.708 -36.279,5.236 -53.269,9.196l-0.001 0zm865.542 -169.538c-2.388,-2.759 -5.28,-6.059 -8.209,-9.641l-27.462 -39.454c-11.035,-16.67 -22.76,-33.001 -35.011,-49.761l-76.549 -97.461 120.46 -156.153c24.28,16.256 48.849,50.6 65.72,68.131 16.872,17.532 50.66,54.019 68.132,65.721 -13.683,28.508 -23.954,65.87 -47.589,113.028l-59.491 105.59 -0.001 0zm-928.007 -80.308c0,-138.421 12.837,-246.71 38.289,-376.639 3.782,-19.304 9.396,-34.908 10.79,-51.676 136.166,0 245.182,44.029 358.47,101.074 16.493,8.306 27.358,15.536 43.072,23.85 -5.021,18.815 -74.116,74.271 -94.762,92.619 -105.687,93.909 -214.547,177.844 -355.86,210.772l0.001 0zm727.24 -178.468l-151.695 -133.845c14.09,-21.047 42.76,-43.74 61.797,-67.59 10.116,-12.673 19.401,-18.695 30.013,-32.452 11.125,-14.41 19.008,-24.362 33.113,-33.81l72.084 52.854c16.353,13.312 57.356,55.131 70.69,58.691 -1.58,18.992 -14.009,29.159 -24.221,42.709 -10.746,14.253 -18.466,24.554 -28.678,38.245l-63.103 75.198 0 0zm-803.084 174.003c-21.907,-10.516 -23.924,-7.134 -45.898,-29.946 -40.106,-41.642 -65.639,-127.571 -65.639,-188.672 0,-54.752 15.321,-109.253 25.741,-152.718 8.483,-35.39 11.361,-34.033 47.447,-41.775 26.09,-5.607 54.071,-10.739 82.963,-10.739 -18.51,79.448 -45.082,234.458 -44.719,312.209 0.09,18.814 1.476,38.496 -1.142,56.911 -4.323,30.398 -1.09,26.675 1.246,54.73l0.001 0zm1137.704 -218.618l-111.538 -116.002c4.584,-17.176 82.422,-135.855 89.23,-165.074 17.769,9.404 42.88,22.99 54.657,39.15 11.406,15.663 5.28,56.844 0.934,83.371l-33.283 158.556 0 -0.001zm-954.78 -414.921c106.517,0 211.284,14.973 292.838,41.775 93.412,30.688 96.201,32.4 177.117,72.729 16.301,8.128 42.502,24.992 56.511,28.263l-59.314 70.067c-20.957,25.073 -45.697,39.053 -61.153,68.242 -31.466,-16.649 -56.606,-35.144 -90.706,-52.061 -100.813,-50.006 -228.836,-95.17 -350.986,-95.17 0.712,-31.822 33.498,-107.481 35.693,-133.845zm785.241 240.926c-15.41,-4.116 -85.647,-68.614 -104.573,-82.823 -9.567,-7.179 -28.307,-21.314 -33.743,-28.722 5.058,-18.926 37.228,-49.235 49.086,-66.923 24.177,0.534 62.926,12.104 84.247,18.362 19.274,5.659 60.841,21.344 80.827,21.789l-75.843 138.317 -0.001 0zm-321.241 -218.625c21.974,0 134.69,16.292 147.238,22.307l-31.236 40.158c-20.149,-10.664 -38.067,-20.105 -57.764,-31.458 -9.952,-5.741 -15.818,-10.013 -28.411,-16.212 -7.275,-3.59 -7.883,-3.634 -15.173,-7.135l-14.654 -7.66 0 0zm-691.539 120.466c5.688,-24.414 17.635,-46.817 26.127,-67.568 8.135,-19.889 25.726,-46.009 27.409,-66.277 28.048,0 67.175,-6.719 93.695,-8.921l-32.69 110.076c-5.607,19.601 0.764,13.809 -16.248,19.445 -4.903,1.617 -24.221,3.901 -31.467,4.227 -20.29,0.912 -53.529,2.633 -66.826,9.018l0 0zm995.627 -559.43c108.148,0 146.838,22.248 231.336,64.164 25.452,12.622 51.809,28.819 74.591,45.868 69.807,52.231 134.609,118.286 170.747,199.566 21.529,48.412 49.095,127.482 49.095,196.296 0,0 1.979,85.366 1.979,85.366 45.535,18.006 38.253,10.412 81.384,32.044 7.245,3.635 10.286,5.065 17.205,9.56 12.675,8.261 3.775,7.03 19.898,11.339 0,21.002 -2.729,60.574 -5.659,83.572 -14.395,112.894 -44.526,277.337 -84.884,379.123 -27.966,70.534 -60.893,210.423 -150.635,219.671 -61.308,6.325 -102.379,17.212 -150.813,36.576 -50.474,20.179 -79.611,35.27 -111.181,71.743 -44.215,51.081 -85.7,107.725 -156.568,120.051 -49.583,8.625 -129.81,75.658 -169.056,112.019 -65.195,60.412 -127.571,116.81 -195.991,174.33 -56.933,47.848 -121.631,97.253 -187.382,133.837 -73.441,40.862 -210.682,98.011 -284.368,62.992 -55.45,-26.349 -1.194,-49.599 10.226,-163.131 8.751,-87.065 -16.441,-209.459 -40.44,-297.436 -22.485,-82.437 -33.564,-67.693 5.347,-125.805 76.742,1.705 117.003,54.538 388.179,8.936 126.94,-21.343 247.956,-50.763 365.952,-102.505 23.525,-10.308 45.097,-19.141 66.612,-31.547 60.641,-34.96 60.626,-39.966 109.245,-78.143 87.495,-68.696 168.137,-270.634 199.381,-371.701 18.814,-60.87 70.385,-258.285 40.521,-313.847 -82.703,-153.839 -647.748,-220.664 -817.493,-222.051l-231.93 -4.531c-51.994,0 -86.827,4.457 -138.309,4.457 4.16,-17.866 27.877,-56.748 40.098,-80.368 5.97,-11.532 9.938,-15.997 16.412,-28.196 37.273,-70.244 42.293,-57.734 86.263,-78.825 170.303,34.945 93.583,-122.714 312.246,-209.749 96.49,-38.407 305.682,-26.712 423.909,-26.712 15.862,0 13.386,8.692 13.386,26.764 0,0 0.697,56.273 0.697,56.273l0 0zm-705.63 68.658c-147.29,0 -189.057,96.349 -245.382,209.696l-52.054 99.635c-54.062,108.126 -139.792,311.533 -139.792,466.981 0,182.954 43.585,300.461 131.264,444.274 100.673,165.103 6.178,159.556 53.337,303.598 12.681,38.727 27.454,112.805 33.275,154.106 10.287,72.973 16.59,111.559 -7.572,182.805 -22.781,67.19 -40.936,111.753 25.378,165.237 35.998,29.041 75.095,30.414 119.139,30.45l2.099 0c170.302,0 364.41,-139.251 489.734,-250.892 52.305,-46.587 201.901,-181.886 245.107,-214.435 71.358,-53.737 98.545,-2.803 227.807,-142.507 13.49,-14.58 28.247,-38.667 43.658,-50.029 98.151,-72.41 211.617,-44.689 274.942,-95.363 58.914,-47.151 109.38,-163.516 133.675,-236.639 14.958,-45.045 30.353,-94.569 41.47,-145.918 18.963,-87.628 32.49,-147.275 43.518,-237.565 3.856,-31.563 19.4,-114.741 -1.884,-146.979 -7.32,-11.08 -12.281,-17.421 -23.724,-25.356l-60.24 -33.461c-30.836,-13.601 -17.821,-65.261 -38.067,-153.779 -23.909,-104.567 -65.684,-173.054 -129.833,-249.395 -17.124,-20.386 -25.251,-31.822 -45.994,-47.692 -59.224,-45.35 -77.846,-71.41 -171.007,-114.541 -42.664,-19.756 -93.109,-38.237 -140.957,-50.889 -22.248,-5.881 -21.009,1.053 -27.113,-17.502 -4.858,-14.758 -12.288,-71.38 -75.852,-71.38l-325.69 0c-105.672,0 -204.342,50.57 -274.105,105.13l-33.298 29.16c-19.831,20.795 -64.854,67.116 -71.839,93.25l0 0z"/>
 </g>
</svg>
