<?xml version="1.0" encoding="UTF-8"?>
<!DOCTYPE svg PUBLIC "-//W3C//DTD SVG 1.1//EN" "http://www.w3.org/Graphics/SVG/1.1/DTD/svg11.dtd">
<!-- Creator: CorelDRAW 2021.5 -->
<svg xmlns="http://www.w3.org/2000/svg" xml:space="preserve" width="2500px" height="2500px" version="1.1" style="shape-rendering:geometricPrecision; text-rendering:geometricPrecision; image-rendering:optimizeQuality; fill-rule:evenodd; clip-rule:evenodd"
viewBox="0 0 2500 2500"
 xmlns:xlink="http://www.w3.org/1999/xlink"
 xmlns:xodm="http://www.corel.com/coreldraw/odm/2003">
 <defs>
  <style type="text/css">
   <![CDATA[
    .str0 {stroke:white;stroke-width:44;stroke-miterlimit:22.9256}
    .fil0 {fill:none}
    .fil1 {fill:white}
   ]]>
  </style>
 </defs>
 <g id="Слой_x0020_1">
  <metadata id="CorelCorpID_0Corel-Layer"/>
  <rect class="fil0" x="-0.001" width="2500.001" height="2500.001"/>
  <path class="fil1 str0" d="M1223.397 1318.724c0,81.723 -11.707,157.167 -30.589,233.227l-16.755 54.187c-0.254,0.657 -1.011,2.558 -1.285,3.15 -2.072,4.511 -0.737,1.951 -2.361,4.29 -17.597,-75.537 -46.794,-128.826 -87.348,-189.768 -5.471,-8.222 -19.064,-20.842 -19.064,-20.842l-11.542 37.231c-23.575,86.537 -38.336,99.482 -80.657,169.855l-53.38 95.155c-43.945,88.033 -78.332,166.584 -78.332,274.161l2.218 115.281c-28.764,-19.26 -87.601,-77.604 -109.283,-103.543l-76.503 -94.2c-62.944,-94.254 -86.897,-187.086 -86.897,-327.67 0,-158.847 66.311,-295.348 120.032,-429.767 12.63,-31.604 24.579,-66.9 38.822,-98.628 4.662,-10.388 8.277,-24.405 16.284,-30.272 0,18.497 4.343,44.249 6.325,62.401 2.43,22.267 2.116,45.816 4.435,66.506 2.487,22.167 1.31,45.689 2.531,68.411 0.621,11.558 2.298,18.485 2.183,33.288 -0.114,14.707 2.262,19.045 2.262,33.21 11.182,-7.489 61.684,-88.099 70.052,-100.651 34.283,-51.424 66.851,-103.876 96.923,-158.025 5.406,-9.735 10.258,-18.071 14.829,-27.293 14.511,-29.28 30.311,-54.694 43.041,-85.541l27.143 -59.317c28.296,-58.865 50.05,-123.362 69.184,-185.763 6.787,-22.129 13.764,-44.614 19.778,-66.683 21.978,-80.645 38.019,-164.149 50.486,-248.799 2.145,-14.56 2.143,-26.395 7.611,-36.729 22.695,5.288 95.462,75.274 114.626,98.199 3.772,4.513 3.581,5.343 7.841,9.895 3.454,3.691 5.505,5.157 8.666,9.07 71.224,88.176 97.926,138.582 150.442,244.173 24.112,48.485 45.022,103.8 59.363,155.678 7.67,27.745 64.76,227.875 64.76,227.875 0,0 33.577,-38.471 41.592,-47.084l23.98 -29.227c22.927,-29.367 36.854,-58.323 46.188,-95.696 7.305,-29.253 13.98,-61.954 14.564,-91.884 0.665,-34.066 12.465,-8.593 24.324,11.265 31.256,52.341 61.51,104.974 88.78,159.515 15.371,30.74 30.493,64.536 43.403,98.48 13.278,34.91 25.836,69.85 35.94,105.943 45.421,162.224 58.912,330.006 12.032,496.608 -9.988,35.496 -22.169,71.335 -38.136,103.748 -3.963,8.047 -7.54,14.961 -11.871,23.6l-11.793 23.677c-4.703,8.731 -7.277,15.072 -12.241,23.231l-26.627 44.314c-18.372,28.653 -40.218,54.138 -61.318,80.565 -5.624,7.043 -11.275,10.759 -17.13,18.341 -12.781,16.551 -94.829,104.352 -107.349,107.694 0,-18.987 12.761,-75.934 15.919,-103.795 19.22,-169.56 -2.486,-312.281 -80.181,-461.551 -16.443,-31.59 -35.759,-60.834 -55.867,-90.45 -4.893,-7.205 -9.597,-13.658 -14.758,-20.713l-31.383 -39.559c-29.032,-37.35 -111.383,-121.266 -144.1,-146.319l-20.471 -17.216c-13.449,-11.982 -25.892,-21.835 -39.895,-33.263 -6.982,-5.698 -12.689,-10.418 -19.74,-15.732 -6.467,-4.872 -24.09,-13.598 -24.09,-13.598 0,30.257 9.463,56.688 14.252,85.511 4.873,29.317 10.135,59.261 10.135,91.843zm798.095 83.662l0 62.036c-1.802,57.669 -8.594,115.113 -20.112,171.166 -31.237,152.039 -114.49,307.739 -225.418,417.491 -8.837,8.744 -13.416,15.762 -22.155,24.401l-69.875 67.575c-23.019,23.211 -49.239,42.533 -75.399,62.05l-54.476 38.635c-31.884,23.681 -94.231,67.071 -130.036,85.006 -3.052,1.529 -5.088,2.057 -7.751,3.334 0.307,-13.842 13.027,-35.663 19.196,-49.53l40.661 -96.787c6.284,-15.7 12.727,-31.016 18.588,-47.92 41.838,-120.666 47.92,-159.106 47.92,-289.054 0,-107.179 -29.385,-197.664 -74.604,-286.756 -24.807,-48.874 -56.653,-94.926 -90.967,-137.377l-20.071 -24.268c-7.335,-7.532 -35.253,-40.987 -42.701,-45.975 0,74.512 -10.697,131.28 -25.715,191.546 -18.71,75.08 -49.47,170.409 -91.76,234.128 -28.451,42.866 -58.465,86.459 -90.612,126.647 -11.543,14.43 -31.861,48.225 -49.078,57.334 0,-31.382 19.958,-134.048 25.359,-167.513 4.094,-25.37 8.66,-62.171 6.077,-85.464 -3.135,-28.289 0.545,-65.763 -9.266,-86.212 -25.331,6.763 -87.214,144.949 -96.092,163.289 -14.796,30.563 -27.085,60.233 -35.2,93.383 -10.388,42.45 -12.809,102.558 -12.809,151.243 0,86.923 39.054,158.619 70.306,231.196l29.456 70.307c-11.509,-0.959 -19.053,-8.654 -28.113,-14.009 -44.331,-26.197 -122.206,-80.731 -165.712,-113.621l-78.364 -61.303c-4.699,-4.095 -6.318,-4.561 -11.019,-8.934l-42.146 -37.663c-26.445,-26.748 -54.026,-52.94 -77.2,-82.419 -6.557,-8.341 -10.838,-14.162 -17.383,-22.522 -6.538,-8.353 -11.004,-14.505 -17.136,-22.769 -16.94,-22.825 -32.653,-48.398 -45.471,-74.243l-13.297 -26.607c-40.99,-85.96 -59.767,-179.635 -60.609,-274.246l0 -13.531c0.461,-50.869 6.035,-101.915 16.073,-152.087 23.365,-116.774 65.583,-214.267 109.039,-323.263 28.163,-70.642 56.429,-139.568 72.752,-215.449 4.393,-20.418 5.926,-39.825 9.269,-63.89 4.881,-35.13 9.061,-95.554 10.06,-134.04 0.298,-11.408 1.881,-19.148 2.226,-33.246 0.29,-11.879 2.274,-18.488 2.274,-33.196 5.296,1.916 1.737,-0.112 5.07,3.798l75.704 165.942c30.854,77.391 39.153,106.886 58.893,191.62l47.294 -87.939c4.132,-8.262 6.939,-13.893 11.102,-22.152 4.155,-8.244 6.539,-15.375 10.305,-22.949 69.157,-139.054 118.677,-305.794 143.826,-456.962 7.459,-44.829 29.118,-197.355 29.118,-236.914 12.612,0.281 18.57,5.218 28.481,9.206 58.913,23.709 111.136,55.167 159.272,95.676l99.955 101.786c3.786,4.344 4.248,4.683 8.11,9.626 11.02,14.103 19.991,25.972 30.717,40.224 26.053,34.617 51.804,72.868 71.767,112.237 20.157,39.754 43.115,79.576 60.296,121.494 7.264,17.724 13.795,33.525 21.216,51.943 7.486,18.582 13.234,34.016 19.804,53.354 2.656,7.819 13.93,45.801 19.143,51.798 0,-12.648 2.218,-15.333 2.218,-28.82l0 -33.254c0,-121.14 -80.926,-257.197 -84.243,-297.069 13.695,3.19 29.76,21.232 40.568,30.374l107.439 96.517c68.002,62.899 146.743,190.31 189.676,267.013 5.86,10.47 10.132,20.104 15.543,31.013 3.251,6.552 5.155,9.933 8.59,15.795 13.117,22.387 24.571,53.372 35.759,77.306l38.864 98.586c19.24,58.472 36.651,116.344 48.899,177.228 10.351,51.466 16.25,103.979 17.905,156.65z"/>
 </g>
</svg>
