<svg width="33" height="31" viewBox="0 0 33 31" fill="none" xmlns="http://www.w3.org/2000/svg">
<path d="M30.5573 0.00288758C30.1308 0.0236331 29.7292 0.153292 29.3721 0.298511H29.3671C29.0051 0.448916 27.2843 1.20613 24.6709 2.35232C22.0575 3.5037 18.6655 4.99738 15.2983 6.48068C8.57389 9.44211 1.96349 12.3569 1.96349 12.3569L2.04284 12.3257C2.04284 12.3257 1.5866 12.4813 1.11054 12.8236C0.867543 12.9896 0.599754 13.2178 0.36668 13.5757C0.133605 13.9335 -0.054839 14.4833 0.0145882 15.0486C0.128646 16.0081 0.723731 16.5838 1.15021 16.9001C1.58164 17.2217 1.99325 17.3721 1.99325 17.3721H2.00316L8.20196 19.5556C8.47967 20.4891 10.0914 26.0282 10.4782 27.304C10.7063 28.0664 10.9294 28.5436 11.2071 28.9066C11.341 29.0933 11.4997 29.2489 11.6882 29.3734C11.7626 29.4201 11.8419 29.4564 11.9212 29.4875C11.946 29.503 11.9708 29.5082 12.0006 29.5134L11.9361 29.4979C11.956 29.503 11.9708 29.5186 11.9857 29.5238C12.0353 29.5394 12.07 29.5445 12.1345 29.5549C13.1164 29.8661 13.9049 29.2282 13.9049 29.2282L13.9495 29.1919L17.6093 25.7066L23.7436 30.6285L23.8824 30.6907C25.1619 31.2768 26.4562 30.9501 27.1405 30.3744C27.8298 29.7935 28.0976 29.0518 28.0976 29.0518L28.1423 28.9325L32.8831 3.53482C33.017 2.90726 33.0517 2.3212 32.9029 1.7507C32.7542 1.1802 32.3723 0.645999 31.9111 0.360748C31.445 0.0703103 30.9838 -0.017858 30.5573 0.00288758ZM30.4284 2.72574C30.4234 2.80872 30.4383 2.79835 30.4036 2.95913V2.97469L25.7074 28.1079C25.6875 28.1442 25.6528 28.222 25.5586 28.2998C25.4594 28.3828 25.3801 28.4347 24.9685 28.2635L17.4655 22.2473L12.9329 26.5676L13.885 20.209C13.885 20.209 25.6379 8.75232 26.1438 8.25961C26.6496 7.76691 26.481 7.66318 26.481 7.66318C26.5157 7.06156 25.7173 7.48684 25.7173 7.48684L10.26 17.5018L10.255 17.4758L2.8462 14.8671V14.8619C2.84124 14.8619 2.83132 14.8567 2.82636 14.8567C2.83132 14.8567 2.86604 14.8411 2.86604 14.8411L2.90571 14.8204L2.94538 14.8048C2.94538 14.8048 9.56074 11.8901 16.2852 8.92866C19.6524 7.44535 23.0444 5.95167 25.6528 4.80029C28.2613 3.6541 30.1903 2.81391 30.2994 2.76723C30.4036 2.72574 30.354 2.72574 30.4284 2.72574Z" fill="#949494"/>
</svg>
