<svg width="33" height="31" viewBox="0 0 33 31" fill="none" xmlns="http://www.w3.org/2000/svg">
<path d="M33 3.66941C31.7854 4.29296 30.4807 4.71257 29.1112 4.90184C30.5099 3.9335 31.5823 2.4003 32.0875 0.5722C30.7802 1.46865 29.3308 2.12007 27.7875 2.47219C26.5526 0.950731 24.7935 0 22.8465 0C19.1075 0 16.0767 3.50509 16.0767 7.82593C16.0767 8.43921 16.1376 9.03782 16.2519 9.60855C10.6256 9.28283 5.63771 6.16655 2.29722 1.4305C1.71593 2.58663 1.38214 3.93057 1.38214 5.36694C1.38214 8.08121 2.57644 10.4771 4.39264 11.8797C3.28337 11.8387 2.23884 11.4865 1.3263 10.9011C1.3263 10.9349 1.3263 10.9657 1.3263 10.9994C1.3263 14.7921 3.65905 17.9553 6.75712 18.6728C6.1898 18.8518 5.59075 18.9471 4.97265 18.9471C4.53733 18.9471 4.11215 18.8972 3.69967 18.8078C4.56144 21.9167 7.06173 24.1806 10.024 24.2436C7.70774 26.3432 4.78862 27.5947 1.61567 27.5947C1.06992 27.5947 0.530518 27.558 0 27.4846C2.99654 29.7045 6.55406 31 10.3781 31C22.8313 31 29.6392 19.0748 29.6392 8.73264C29.6392 8.39372 29.6329 8.05627 29.6202 7.72029C30.9439 6.6155 32.0925 5.23782 33 3.66941Z" fill="#949494"/>
</svg>
