<svg width="38" height="25" viewBox="0 0 38 25" fill="none" xmlns="http://www.w3.org/2000/svg">
<path d="M32.7337 2.77238C29.4455 0.417207 24.2437 0.0179772 24.0211 0.00361591C23.6758 -0.0222333 23.3466 0.150096 23.2047 0.43444C23.1917 0.451673 23.0788 0.684318 22.953 1.04621C25.1279 1.37364 27.7998 2.03136 30.2167 3.36691C30.6039 3.57945 30.7233 4.03325 30.4845 4.37791C30.3264 4.60481 30.0586 4.72832 29.7811 4.72832C29.6326 4.72832 29.481 4.69098 29.3454 4.6163C25.1892 2.32145 20.0003 2.20656 19 2.20656C17.9997 2.20656 12.8076 2.32145 8.65455 4.6163C8.26732 4.83171 7.75747 4.72544 7.51868 4.38078C7.27666 4.03325 7.39606 3.58232 7.78329 3.36691C10.2002 2.03423 12.8721 1.37364 15.047 1.04908C14.9212 0.684318 14.8083 0.454545 14.7986 0.43444C14.6534 0.150096 14.3274 -0.0279773 13.9789 0.00361591C13.7563 0.0179772 8.55452 0.417207 5.22113 2.80397C3.48183 4.23718 0 12.6124 0 19.8531C0 19.9823 0.0387228 20.1058 0.109715 20.2179C2.51053 23.9746 9.06437 24.9569 10.5584 25C10.5649 25 10.5746 25 10.5842 25C10.8488 25 11.0973 24.888 11.2522 24.6984L12.7624 22.8488C8.68682 21.9124 6.60547 20.3213 6.48607 20.2265C6.14402 19.9594 6.11175 19.4941 6.41508 19.1896C6.71518 18.8852 7.23794 18.8565 7.57999 19.1236C7.6284 19.1638 11.462 22.0589 19 22.0589C26.551 22.0589 30.3845 19.1523 30.4232 19.1236C30.7653 18.8593 31.2848 18.8852 31.5881 19.1925C31.8882 19.4969 31.856 19.9594 31.5139 20.2265C31.3945 20.3213 29.3132 21.9124 25.2376 22.8488L26.7478 24.6984C26.9027 24.888 27.1512 25 27.4158 25C27.4254 25 27.4351 25 27.4416 25C28.9356 24.9569 35.4895 23.9746 37.8903 20.2179C37.9613 20.1058 38 19.9823 38 19.8531C38 12.6124 34.5182 4.23718 32.7337 2.77238ZM13.6304 16.912C12.0331 16.912 10.7391 15.5966 10.7391 13.9709C10.7391 12.3453 12.0331 11.0298 13.6304 11.0298C15.2278 11.0298 16.5217 12.3453 16.5217 13.9709C16.5217 15.5966 15.2278 16.912 13.6304 16.912ZM24.3696 16.912C22.7722 16.912 21.4783 15.5966 21.4783 13.9709C21.4783 12.3453 22.7722 11.0298 24.3696 11.0298C25.9669 11.0298 27.2609 12.3453 27.2609 13.9709C27.2609 15.5966 25.9669 16.912 24.3696 16.912Z" fill="#949494"/>
</svg>
