<svg width="40" height="25" viewBox="0 0 40 25" fill="none" xmlns="http://www.w3.org/2000/svg">
<path d="M0.631318 0.117535C0.506167 0.176281 0.31062 0.335737 0.201113 0.461622C-0.714048 1.52745 1.60123 7.89727 4.97247 13.5789C6.662 16.4155 7.99172 18.2535 9.47788 19.8061C11.535 21.9461 13.6861 23.4064 16.0405 24.2456C17.5344 24.7827 18.3479 24.9338 19.9514 24.9841C21.8991 25.0429 22.7204 24.8499 23.1506 24.2288C23.307 24.0022 23.3148 23.868 23.3539 21.1656C23.393 18.7654 23.4165 18.287 23.526 18.0185C23.6903 17.624 23.9406 17.5149 24.6132 17.5569C25.896 17.6324 27.7029 19.0927 30.5892 22.3993C31.4339 23.3728 32.2943 24.296 32.5055 24.4638C33.2017 25.0093 33.2564 25.0177 36.3852 24.9925C39.1463 24.9674 39.2011 24.9674 39.4748 24.7743C40.1319 24.3379 40.171 23.6078 39.6 22.3825C38.9273 20.9558 37.449 19.0256 34.68 15.9791C33.7883 15.0056 33.014 14.0908 32.9436 13.9482C32.8732 13.8055 32.8184 13.5202 32.8184 13.3104C32.8184 12.9663 32.8888 12.8152 33.452 11.9424C37.1126 6.2104 38.7005 3.32342 39.0759 1.71209C39.2871 0.80571 39.2011 0.470015 38.6848 0.184673C38.3485 4.19617e-05 38.2859 4.19617e-05 35.6499 4.19617e-05C33.8274 4.19617e-05 32.8575 0.0336113 32.6542 0.10075C32.1692 0.251814 31.7703 0.679825 31.4809 1.35961C30.0495 4.70816 28.4694 7.59514 26.9442 9.65127C26.2871 10.5493 25.1921 11.6822 24.7697 11.9172C24.0892 12.2865 23.612 12.0851 23.44 11.3717C23.3852 11.1283 23.3539 9.34915 23.3539 5.98381C23.3539 1.23372 23.3461 0.94838 23.2053 0.612686C22.9315 -0.0167427 23.0645 4.19617e-05 18.7234 4.19617e-05C14.9923 4.19617e-05 14.8593 0.0084343 14.609 0.167889C14.2962 0.377699 14.0928 0.847672 14.1554 1.22533C14.1867 1.37639 14.4213 1.79601 14.6794 2.15688C15.2739 2.97934 15.5007 3.4577 15.6963 4.26337C15.8371 4.84244 15.8449 5.21171 15.8449 9.05542C15.8449 11.6654 15.8136 13.3355 15.7667 13.5286C15.4773 14.628 14.3431 14.1244 12.9664 12.2949C11.1752 9.91144 9.46224 6.42021 7.78835 1.71209C7.4833 0.839279 7.1626 0.369307 6.74804 0.159496C6.44299 0.0168266 6.20833 4.19617e-05 3.64275 0.0084343C1.49955 0.0084343 0.811221 0.0336113 0.631318 0.117535Z" fill="#949494"/>
</svg>
