<svg width="33" height="33" viewBox="0 0 33 33" fill="none" xmlns="http://www.w3.org/2000/svg">
<path d="M8.66747 27.2151L9.86207 27.913C11.8766 29.0879 14.1679 29.7048 16.5 29.7C19.1107 29.7 21.6628 28.9258 23.8335 27.4754C26.0043 26.0249 27.6961 23.9634 28.6952 21.5514C29.6943 19.1394 29.9557 16.4853 29.4464 13.9248C28.937 11.3643 27.6799 9.01224 25.8338 7.16619C23.9878 5.32013 21.6357 4.06296 19.0752 3.55363C16.5147 3.04431 13.8606 3.30571 11.4486 4.30479C9.03661 5.30386 6.97505 6.99574 5.52462 9.16647C4.07419 11.3372 3.30002 13.8893 3.30002 16.5C3.30002 18.8694 3.92207 21.1414 5.08862 23.1396L5.78492 24.3342L4.70747 28.2958L8.66747 27.2151ZM0.00662207 33L2.23742 24.8028C0.767499 22.283 -0.00476954 19.4172 2.21632e-05 16.5C2.21632e-05 7.38705 7.38707 0 16.5 0C25.613 0 33 7.38705 33 16.5C33 25.6129 25.613 33 16.5 33C13.5841 33.0047 10.7195 32.233 8.20052 30.7642L0.00662207 33ZM10.5452 8.75819C10.7663 8.74169 10.989 8.74169 11.2101 8.75159C11.2992 8.75819 11.3883 8.76809 11.4774 8.77799C11.7398 8.80769 12.0285 8.96774 12.1259 9.18884C12.6176 10.3042 13.0961 11.4279 13.5581 12.5548C13.6604 12.8056 13.5993 13.1274 13.4046 13.4409C13.2707 13.6529 13.1259 13.8578 12.9707 14.0547C12.7842 14.2939 12.3833 14.7328 12.3833 14.7328C12.3833 14.7328 12.2199 14.9275 12.2826 15.1701C12.3057 15.2625 12.3816 15.3961 12.4509 15.5083L12.5483 15.6651C12.9707 16.3696 13.5383 17.0841 14.2313 17.7573C14.4293 17.9487 14.6223 18.145 14.8302 18.3282C15.6024 19.0096 16.4769 19.5657 17.4207 19.9782L17.429 19.9815C17.5692 20.0425 17.6402 20.0755 17.8448 20.163C17.9471 20.2059 18.0527 20.2438 18.1599 20.2719C18.2707 20.3001 18.3875 20.2948 18.4953 20.2566C18.6031 20.2184 18.6971 20.1491 18.7655 20.0574C19.9601 18.6103 20.069 18.5163 20.0789 18.5163V18.5196C20.1618 18.4422 20.2604 18.3834 20.368 18.3473C20.4756 18.3111 20.5897 18.2984 20.7026 18.31C20.8016 18.3166 20.9022 18.3348 20.9946 18.376C21.8708 18.777 23.3046 19.4023 23.3046 19.4023L24.2649 19.833C24.4266 19.9105 24.5735 20.0937 24.5784 20.2702C24.585 20.3808 24.5949 20.559 24.557 20.8857C24.5042 21.313 24.3755 21.8262 24.2468 22.0951C24.1586 22.2787 24.0416 22.4469 23.9003 22.5934C23.7338 22.7682 23.5515 22.9273 23.3558 23.0686C23.288 23.1196 23.2193 23.1691 23.1495 23.2171C22.9443 23.3473 22.7334 23.4685 22.5176 23.5801C22.0927 23.8058 21.6235 23.9353 21.1431 23.9596C20.8379 23.9761 20.5326 23.9992 20.2257 23.9827C20.2125 23.9827 19.2885 23.8392 19.2885 23.8392C16.9426 23.2221 14.7731 22.0662 12.9525 20.4633C12.5796 20.1349 12.2348 19.7818 11.8817 19.4304C10.4132 17.9701 9.30437 16.3944 8.63117 14.9061C8.2866 14.1756 8.10047 13.3805 8.08502 12.573C8.07821 11.5712 8.40569 10.5957 9.01562 9.80099C9.13607 9.64589 9.24992 9.48419 9.44627 9.29774C9.65582 9.09974 9.78782 8.99414 9.93137 8.92154C10.1222 8.8259 10.3304 8.76977 10.5435 8.75654L10.5452 8.75819Z" fill="#949494"/>
</svg>
