<svg width="41" height="31" viewBox="0 0 41 31" fill="none" xmlns="http://www.w3.org/2000/svg">
<path d="M14.2939 0.123169C10.7385 0.31164 5.06895 0.851347 3.96387 1.10835C2.4584 1.45959 1.025 2.99304 0.648633 4.655C0.368359 5.89718 0 12.0224 0 15.492C0 18.9615 0.368359 25.0868 0.648633 26.329C1.025 27.9909 2.4584 29.5158 3.96387 29.8756C4.53242 30.0041 7.6875 30.3639 10.0498 30.5695C16.7604 31.1435 24.1436 31.1435 30.9742 30.5695C33.3125 30.3725 36.4516 30.0127 37.0361 29.8756C38.5496 29.5158 39.975 27.9909 40.3514 26.329C40.6316 25.0868 41 18.9615 41 15.492C41 12.0224 40.6316 5.89718 40.3514 4.655C39.975 2.99304 38.5416 1.46815 37.0361 1.10835C35.867 0.834213 30.3656 0.320206 26.4658 0.114603C23.4629 -0.0395985 17.2889 -0.0395985 14.2939 0.123169ZM22.2537 11.8511C25.0324 13.83 27.2986 15.4663 27.2986 15.492C27.2986 15.5348 17.2648 22.7052 17.1287 22.7566C17.0887 22.7737 17.0566 19.7754 17.0566 15.492C17.0566 11.2086 17.0887 8.21021 17.1287 8.22735C17.1687 8.23591 19.475 9.87217 22.2537 11.8511Z" fill="url(#paint0_linear_76_59297)"/>
<defs>
<linearGradient id="paint0_linear_76_59297" x1="0" y1="31" x2="29.8266" y2="-8.44815" gradientUnits="userSpaceOnUse">
<stop stop-color="#4568DC"/>
<stop offset="1" stop-color="#AF6AB4"/>
</linearGradient>
</defs>
</svg>
