<?xml version="1.0" encoding="UTF-8"?>
<!DOCTYPE svg PUBLIC "-//W3C//DTD SVG 1.1//EN" "http://www.w3.org/Graphics/SVG/1.1/DTD/svg11.dtd">
<!-- Creator: CorelDRAW 2021.5 -->
<svg xmlns="http://www.w3.org/2000/svg" xml:space="preserve" width="4724px" height="4724px" version="1.1" style="shape-rendering:geometricPrecision; text-rendering:geometricPrecision; image-rendering:optimizeQuality; fill-rule:evenodd; clip-rule:evenodd"
viewBox="0 0 4724 4724"
 xmlns:xlink="http://www.w3.org/1999/xlink"
 xmlns:xodm="http://www.corel.com/coreldraw/odm/2003">
 <defs>
  <style type="text/css">
   <![CDATA[
    .fil0 {fill:url(#id0)}
   ]]>
  </style>
  <linearGradient id="id0" gradientUnits="userSpaceOnUse" x1="512.16" y1="1018.37" x2="4208.71" y2="3702.51">
   <stop offset="0" style="stop-opacity:1; stop-color:#4967DF"/>
   <stop offset="1" style="stop-opacity:1; stop-color:#A86BB8"/>
  </linearGradient>
 </defs>
 <g id="Слой_x0020_1">
  <metadata id="CorelCorpID_0Corel-Layer"/>
  <path class="fil0" d="M2362 76.26c1262.38,0 2285.74,1023.36 2285.74,2285.74 0,1262.38 -1023.36,2285.74 -2285.74,2285.74 -1262.38,0 -2285.74,-1023.36 -2285.74,-2285.74 0,-1262.38 1023.36,-2285.74 2285.74,-2285.74zm373.51 1766.92c118.09,0 206.23,57.4 262.62,150.59 33.72,55.72 73.29,248.32 85.48,321.65 20.44,122.9 48.38,324.89 -12.85,446.37 -18.14,35.97 -35.82,61.27 -68.42,83.49 -11.03,7.51 -20.59,13.31 -32.88,18.77 -133.1,59.25 -238.01,-31.45 -308.12,-132.44 -9.08,-13.08 -41.34,-64.38 -44.33,-77.2 -61.19,0 -100.13,-9.23 -145.88,-39.46 -6.49,-4.28 -11.36,-7.72 -17.74,-12.64 -4.7,-3.63 -13.25,-11.71 -18.68,-11.71l-145.83 0c-16.71,0 -49.84,63.81 -182.3,63.81 -6.27,26.89 -83.92,136.93 -115.46,161.03 -7.12,5.44 -9.18,8.38 -16.09,14.3 -35.94,30.78 -86.67,52.54 -138.86,52.54 -43.04,0 -84.71,-15.84 -116.73,-38.22 -32.4,-22.64 -49.54,-48.25 -67.64,-84.28 -11.35,-22.6 -19.34,-49.55 -24.53,-75.73 -36.41,-183.42 11.99,-361.77 48.12,-536.79 16.22,-78.6 37.11,-154.77 94.69,-212.17 113.75,-113.37 268.06,-123.66 395.98,-23.79 9.86,7.71 17.83,13.69 26.41,22.21 20.99,20.86 25.9,40.32 56.91,40.32l224.83 0c32.81,0 38.47,-23.51 58.44,-41.82 53.85,-49.36 123.56,-88.83 202.86,-88.83l0 0zm-373.51 -1674.45c1211.31,0 2193.27,981.96 2193.27,2193.27 0,1211.31 -981.96,2193.27 -2193.27,2193.27 -1211.31,0 -2193.27,-981.96 -2193.27,-2193.27 0,-1211.31 981.96,-2193.27 2193.27,-2193.27z"/>
 </g>
</svg>
