<?xml version="1.0" encoding="UTF-8"?>
<!DOCTYPE svg PUBLIC "-//W3C//DTD SVG 1.1//EN" "http://www.w3.org/Graphics/SVG/1.1/DTD/svg11.dtd">
<!-- Creator: CorelDRAW 2021.5 -->
<svg xmlns="http://www.w3.org/2000/svg" xml:space="preserve" width="1500px" height="1500px" version="1.1" style="shape-rendering:geometricPrecision; text-rendering:geometricPrecision; image-rendering:optimizeQuality; fill-rule:evenodd; clip-rule:evenodd"
viewBox="0 0 1500 1500"
 xmlns:xlink="http://www.w3.org/1999/xlink"
 xmlns:xodm="http://www.corel.com/coreldraw/odm/2003">
 <defs>
  <style type="text/css">
   <![CDATA[
    .fil0 {fill:url(#id0)}
   ]]>
  </style>
  <linearGradient id="id0" gradientUnits="userSpaceOnUse" x1="158.203" y1="320.035" x2="1341.797" y2="1179.965">
   <stop offset="0" style="stop-opacity:1; stop-color:#4967DF"/>
   <stop offset="1" style="stop-opacity:1; stop-color:#A86BB8"/>
  </linearGradient>
 </defs>
 <g id="Слой_x0020_1">
  <metadata id="CorelCorpID_0Corel-Layer"/>
  <path class="fil0" d="M750 18.5c403.996,0 731.5,327.504 731.5,731.5 0,403.996 -327.504,731.5 -731.5,731.5 -403.996,0 -731.5,-327.504 -731.5,-731.5 0,-403.996 327.504,-731.5 731.5,-731.5zm232.751 722.594l-465.501 0 0 17.812 465.501 0 0 -17.812zm-232.75 -693.001c387.651,0 701.906,314.255 701.906,701.906 0,387.653 -314.255,701.908 -701.906,701.908 -387.653,0 -701.908,-314.255 -701.908,-701.908 0,-387.651 314.255,-701.906 701.908,-701.906z"/>
 </g>
</svg>
