<?xml version="1.0" encoding="UTF-8"?>
<!DOCTYPE svg PUBLIC "-//W3C//DTD SVG 1.1//EN" "http://www.w3.org/Graphics/SVG/1.1/DTD/svg11.dtd">
<!-- Creator: CorelDRAW 2021.5 -->
<svg xmlns="http://www.w3.org/2000/svg" xml:space="preserve" width="1500px" height="1500px" version="1.1" style="shape-rendering:geometricPrecision; text-rendering:geometricPrecision; image-rendering:optimizeQuality; fill-rule:evenodd; clip-rule:evenodd"
viewBox="0 0 1500 1500"
 xmlns:xlink="http://www.w3.org/1999/xlink"
 xmlns:xodm="http://www.corel.com/coreldraw/odm/2003">
 <defs>
  <style type="text/css">
   <![CDATA[
    .fil1 {fill:url(#id0)}
    .fil0 {fill:url(#id1)}
   ]]>
  </style>
  <linearGradient id="id0" gradientUnits="userSpaceOnUse" x1="535.75" y1="750" x2="964.25" y2="750">
   <stop offset="0" style="stop-opacity:1; stop-color:#4A67DF"/>
   <stop offset="1" style="stop-opacity:1; stop-color:#9E6BBC"/>
  </linearGradient>
  <linearGradient id="id1" gradientUnits="userSpaceOnUse" x1="158.203" y1="320.035" x2="1341.797" y2="1179.965">
   <stop offset="0" style="stop-opacity:1; stop-color:#4967DF"/>
   <stop offset="1" style="stop-opacity:1; stop-color:#A86BB8"/>
  </linearGradient>
 </defs>
 <g id="Слой_x0020_1">
  <metadata id="CorelCorpID_0Corel-Layer"/>
  <path class="fil0" d="M750 18.5c403.996,0 731.5,327.504 731.5,731.5 0,403.996 -327.504,731.5 -731.5,731.5 -403.996,0 -731.5,-327.504 -731.5,-731.5 0,-403.996 327.504,-731.5 731.5,-731.5zm0.001 29.593c387.651,0 701.906,314.255 701.906,701.906 0,387.653 -314.255,701.908 -701.906,701.908 -387.653,0 -701.908,-314.255 -701.908,-701.908 0,-387.651 314.255,-701.906 701.908,-701.906z"/>
  <path class="fil1" d="M699.267 751.258c0,-56.718 72.996,-72.639 97.287,-23.494 15.504,31.365 -5.866,72.969 -46.973,72.969 -27.894,0 -50.314,-24.151 -50.314,-49.475zm-109.85 -128.298l34.588 -34.174c4.661,2.393 36.65,19.08 39.205,19.08 5.861,0 14.144,-6.466 22.748,-9.955 3.737,-1.516 7.244,-2.977 10.888,-4.206 3.929,-1.324 8.417,-2.151 12.186,-3.747 5.058,-2.143 7.08,-12.963 9.839,-21.187l5.413 -17.229c0.796,-2.582 0.734,-4.89 3.495,-4.89l45.281 0c3.078,0 3.217,4.204 5.139,9.955 1.277,3.824 2.331,7.876 3.76,12.173 9.27,27.879 1.947,16.569 32.921,29.131 26.709,10.83 13.279,15.109 42.035,0.731 6.658,-3.329 13.567,-6.593 20.125,-10.063l34.174 34.588c-5.087,9.797 -9.951,19.278 -15.167,29.701 -8.099,16.188 -3.638,8.422 5.441,31.176 8.993,22.535 5.522,26.021 16.52,29.6 5.773,1.878 31.247,10.44 35.34,10.78l0 49.475c-5.46,1.272 -11.449,3.673 -17.087,5.553 -19.828,6.612 -24.855,4.624 -28.201,17.081l-6.139 17.341c-2.779,5.898 -4.426,9.601 -7.546,15.095 -5.766,10.144 -0.113,12.817 8.661,30.461 1.882,3.784 6.658,12.121 7.547,15.933l-34.174 34.588 -30.953 -15.581c-7.895,-3.972 -7.482,-5.082 -15.672,-0.857 -3.178,1.639 -4.223,2.758 -7.593,4.147 -9.701,4.001 -13.279,6.458 -24.814,9.567 -9.328,2.515 -8.957,2.933 -11.639,11.841l-8.483 25.896c-0.719,2.687 -1.222,7.546 -4.195,7.546l-45.281 0c-2.555,0 -1.817,-0.63 -2.582,-2.45l-9.884 -31.205c-5.037,-15.211 -6.799,-7.747 -28.622,-17.498 -27.797,-12.419 -15.419,-15.183 -46.414,0.548 -4.662,2.366 -10.599,6.665 -15.64,7.839l-34.588 -34.174c0.931,-3.316 5.696,-12.372 7.485,-15.569 3.023,-5.4 5.241,-9.708 8.096,-15.383 3.972,-7.895 5.082,-7.482 0.857,-15.673l-13.714 -32.407c-3.409,-12.644 -6.443,-9.827 -28.829,-17.292 -3.339,-1.113 -5.617,-1.898 -8.796,-2.942 -1.31,-0.431 -3.455,-0.932 -4.565,-1.306 -2.134,-0.719 -3.093,-0.232 -3.093,-2.777l0 -45.281c0,-3.074 4.214,-3.226 9.956,-5.138 48.568,-16.175 23.451,-1.32 45.947,-46.293 8.25,-16.491 7.358,-10.189 -4.205,-32.971 -3.437,-6.773 -6.357,-13.129 -9.771,-19.578zm34.381 -47.798c-5.027,0 -20.716,17.782 -24.947,22.012 -28.972,28.972 -26.319,18.582 -12.232,47.032l7.886 14.799c1.894,3.657 1.896,3.918 0.006,7.577 -7.839,15.18 -7.265,13.786 -13.112,31.376 -1.904,5.727 -3.887,4.593 -14.729,7.911 -5.638,1.726 -10.572,3.529 -16.348,5.455 -4.309,1.436 -14.572,3.565 -14.572,8.069l0 58.699c0,6.563 7.631,7.631 12.756,9.046l25.302 8.241c9.825,3.154 5.525,2.361 9.733,12.907 3.74,9.372 4.827,13.781 10.362,23.204 1.873,3.19 2.564,3.883 0.917,7.257 -1.444,2.955 -2.527,4.87 -4.005,7.826 -2.682,5.363 -4.88,9.722 -7.545,15.096 -9.895,19.95 -13.254,11.483 14.743,39.48 28.333,28.333 18.278,26.604 45.351,13.067l20.685 -10.342c5.418,3.628 11.39,6.031 17.889,8.944 3.902,1.749 16.586,6.648 20.684,6.989 0.31,3.735 6.078,18.946 7.547,24.317 2.518,9.209 4.663,20.126 11.739,20.126l57.022 0c6.694,0 7.397,-7.52 9.117,-12.685l8.161 -25.382c3.143,-9.819 2.801,-5.455 21.427,-12.953l14.794 -7.02c2.957,-1.882 3.844,-2.928 7.441,-1.315 4.379,1.964 34.335,19.105 38.009,19.105 3.653,0 20.622,-18.527 24.108,-22.013 28.065,-28.064 25.698,-20.089 16.142,-39.202l-11.081 -21.634c-1.752,-2.762 -2.974,-4.053 -1.317,-7.443 1.277,-2.614 2.722,-4.069 4.008,-6.985 1.245,-2.823 2.336,-5.224 3.603,-8.137 6.565,-15.094 4.655,-20.1 10.485,-22.219 2.669,-0.97 5.839,-1.587 9.09,-2.648 4.975,-1.625 31.333,-8.69 31.333,-13.112l0 -62.053c0,-4.007 -10.786,-6.248 -14.363,-7.439l-24.77 -7.934c-4.1,-1.307 -4.409,-0.957 -5.664,-5.238 -2.033,-6.94 -3.254,-10.542 -5.865,-16.775 -7.258,-17.328 -10.492,-15.155 -6.963,-21.871 1.415,-2.694 2.31,-4.532 3.678,-7.268 2.591,-5.183 4.691,-9.345 7.265,-14.536 9.06,-18.265 11.303,-13.435 -3.003,-27.74 -5.356,-5.358 -33.514,-34.591 -35.848,-34.591 -3.341,0 -15.661,6.993 -19.566,8.945 -3.514,1.757 -5.988,2.996 -9.503,4.752 -14.182,7.078 -9.915,8.12 -19.298,2.806 -5.525,-3.131 -26.725,-11.86 -32.134,-12.31 -1.859,-7.981 -4.63,-15.16 -7.23,-22.957 -2.032,-6.095 -5.41,-20.648 -9.54,-20.648l-62.053 0c-4.012,0 -6.239,10.777 -7.443,14.359l-7.924 24.779c-2.487,7.855 -4.313,3.437 -21.525,11.18 -23.276,10.47 -14.077,11.407 -29.074,3.908 -4.033,-2.016 -27.423,-14.814 -29.629,-14.814zm129.976 111.528c-21.486,0 -34.318,4.696 -49.272,19.489 -33.898,33.528 -15.53,95.073 31.856,105.26 21.303,4.581 42.648,-1.052 57.877,-16.366 18.825,-18.932 24.378,-42.957 15.001,-69.09 -2.229,-6.212 -8.159,-15.099 -12.474,-19.39 -11.527,-11.463 -25.247,-19.903 -42.988,-19.903z"/>
 </g>
</svg>
