<?xml version="1.0" encoding="UTF-8"?>
<!DOCTYPE svg PUBLIC "-//W3C//DTD SVG 1.1//EN" "http://www.w3.org/Graphics/SVG/1.1/DTD/svg11.dtd">
<!-- Creator: CorelDRAW 2021.5 -->
<svg xmlns="http://www.w3.org/2000/svg" xml:space="preserve" width="1500px" height="1500px" version="1.1" style="shape-rendering:geometricPrecision; text-rendering:geometricPrecision; image-rendering:optimizeQuality; fill-rule:evenodd; clip-rule:evenodd"
viewBox="0 0 1500 1500"
 xmlns:xlink="http://www.w3.org/1999/xlink"
 xmlns:xodm="http://www.corel.com/coreldraw/odm/2003">
 <defs>
  <style type="text/css">
   <![CDATA[
    .fil0 {fill:url(#id0)}
   ]]>
  </style>
  <linearGradient id="id0" gradientUnits="userSpaceOnUse" x1="158.203" y1="320.035" x2="1341.797" y2="1179.965">
   <stop offset="0" style="stop-opacity:1; stop-color:#4967DF"/>
   <stop offset="1" style="stop-opacity:1; stop-color:#A86BB8"/>
  </linearGradient>
 </defs>
 <g id="Слой_x0020_1">
  <metadata id="CorelCorpID_0Corel-Layer"/>
  <path class="fil0" d="M750 18.5c403.996,0 731.5,327.504 731.5,731.5 0,403.996 -327.504,731.5 -731.5,731.5 -403.996,0 -731.5,-327.504 -731.5,-731.5 0,-403.996 327.504,-731.5 731.5,-731.5zm-78.248 621.412c0,-14.612 1.604,-24.158 7.515,-36.851 1.822,-3.913 4.852,-8.564 7.343,-12.016 11.172,-15.473 27.374,-25.696 46.157,-30.474 29.064,-7.394 62.37,5.613 80.273,30.01 11.134,15.171 15.2,29.355 15.2,49.331 0,23.461 -13.377,53.047 -23.615,66.729 -21.435,28.649 -51.514,50.12 -87.241,23.154 -18.097,-13.658 -29.251,-31.939 -37.574,-52.769 -3.677,-9.202 -8.058,-24.397 -8.058,-37.114zm76.63 117.769c20.532,0 36.53,-7.918 49.401,-19.971 2.688,-2.517 4.649,-3.469 7.261,-6.452 13.075,-14.935 23.137,-30.111 30.34,-49.516 10.115,-27.247 12.81,-53.018 1.626,-80.446 -8.437,-20.687 -22.672,-35.779 -41.876,-46.853 -20.337,-11.728 -34.155,-10.521 -56.431,-10.521 -22.079,0 -48.76,17.717 -62.222,34.574 -14.738,18.455 -23.819,42.699 -19.3,75.18 3.473,24.955 16.811,52.197 29.71,67.893 8.298,10.097 8.722,10.465 17.732,18.566 5.277,4.745 16.096,10.86 22.898,13.401 5.404,2.018 13.688,4.145 20.861,4.145zm-66.95 -0.807c8.221,5.505 12.515,11.949 26.841,18.33 23.012,10.249 41.348,13.329 66.744,6.691 10.672,-2.79 28.479,-12 36.886,-19.578 1.869,-1.686 4.779,-4.185 6.657,-5.443 9.178,4.857 22.346,13.325 30.063,20.754 24.235,23.33 40.034,47.182 46.784,82.28 1.101,5.728 2.707,15.76 2.487,23.211 -0.067,2.26 0.154,1.323 -2.023,3.442 -1.31,1.276 -1.923,1.89 -3.438,3.071 -18.605,14.524 -33.535,24.213 -56.467,33.876 -11.936,5.029 -25.45,9.321 -39.52,12.105 -26.444,5.231 -42.985,6.235 -69.917,3.636 -20.643,-1.993 -43.493,-7.913 -61.93,-15.508 -11.801,-4.86 -31.825,-15.157 -41.826,-22.704 -3.814,-2.878 -17.222,-12.319 -19.852,-15.648 -0.935,-1.183 -0.688,-0.791 -0.81,-1.728 -1.348,-10.329 4.515,-33.371 7.833,-43.4 7.754,-23.435 24.95,-49.883 44.525,-65.178l10.832 -8.527c4.825,-3.421 10.744,-6.831 16.131,-9.682zm73.644 199.239l-10.161 0c-15.956,-0.341 -31.985,-2.288 -48.769,-5.842 -16.902,-3.578 -37.373,-11.093 -52.895,-18.894l-26.996 -15.756c-5.969,-3.962 -11.11,-7.827 -16.768,-12.271 -13.416,-10.539 -13.238,-10.532 -13.238,-20.641 0,-30.285 13.19,-66.911 30.417,-89.772 13.303,-17.654 27.79,-32.292 46.553,-43.79 25.422,-15.578 19.89,-10.706 34.338,0.474 14.711,11.385 31.503,20.159 52.439,20.159 40.215,0 59.609,-30.652 66.951,-30.652 5.974,0 30.93,17.144 37.663,22.835 5.83,4.927 10.085,9.095 15.389,14.456 12.646,12.781 28.763,39.726 34.173,56.17 4.687,14.244 9.571,31.118 9.571,50.12 0,10.108 0.479,8.368 -5.837,14.33 -20.377,19.237 -55.157,38.153 -81.972,47.088 -6.419,2.139 -15.33,4.714 -22.089,6.144 -16.783,3.554 -32.812,5.501 -48.769,5.842zm-5.075 -908.02c387.651,0 701.906,314.255 701.906,701.906 0,387.653 -314.255,701.908 -701.906,701.908 -387.653,0 -701.908,-314.255 -701.908,-701.908 0,-387.651 314.255,-701.906 701.908,-701.906z"/>
 </g>
</svg>
