<?xml version="1.0" encoding="UTF-8"?>
<!DOCTYPE svg PUBLIC "-//W3C//DTD SVG 1.1//EN" "http://www.w3.org/Graphics/SVG/1.1/DTD/svg11.dtd">
<!-- Creator: CorelDRAW 2021.5 -->
<svg xmlns="http://www.w3.org/2000/svg" xml:space="preserve" width="85px" height="85px" version="1.1" style="shape-rendering:geometricPrecision; text-rendering:geometricPrecision; image-rendering:optimizeQuality; fill-rule:evenodd; clip-rule:evenodd"
viewBox="0 0 85 85"
 xmlns:xlink="http://www.w3.org/1999/xlink"
 xmlns:xodm="http://www.corel.com/coreldraw/odm/2003">
 <defs>
  <style type="text/css">
   <![CDATA[
    .fil0 {fill:#E6E6E6;fill-rule:nonzero}
   ]]>
  </style>
 </defs>
 <g id="Слой_x0020_1">
  <metadata id="CorelCorpID_0Corel-Layer"/>
  <path class="fil0" d="M67.55 19.75c-0.02,-0.04 -0.06,-0.07 -0.1,-0.09 -4.75,-2.18 -9.79,-3.74 -14.95,-4.63 -0.01,-0.01 -0.03,-0.01 -0.04,-0.01 -0.08,0 -0.16,0.05 -0.2,0.12 -0.68,1.23 -1.31,2.52 -1.86,3.82 -2.78,-0.41 -5.59,-0.63 -8.39,-0.63 -2.81,0 -5.63,0.22 -8.4,0.63 -0.56,-1.3 -1.19,-2.59 -1.89,-3.82 -0.04,-0.07 -0.12,-0.12 -0.2,-0.12 -0.02,0 -0.03,0 -0.04,0.01 -5.16,0.88 -10.2,2.44 -14.95,4.63 -0.04,0.02 -0.07,0.05 -0.1,0.09 -9.52,14.21 -12.13,28.08 -10.85,41.78 0.01,0.07 0.04,0.13 0.1,0.17 5.54,4.1 11.75,7.25 18.34,9.27 0.02,0 0.04,0.01 0.06,0.01 0.08,0 0.15,-0.04 0.19,-0.1 1.41,-1.92 2.68,-3.97 3.76,-6.1 0.01,-0.03 0.02,-0.07 0.02,-0.1 0,-0.1 -0.06,-0.19 -0.15,-0.22 -1.97,-0.76 -3.9,-1.67 -5.73,-2.73 -0.07,-0.04 -0.12,-0.12 -0.12,-0.2 0,-0.08 0.04,-0.15 0.1,-0.19 0.38,-0.29 0.77,-0.59 1.13,-0.89 0.04,-0.03 0.1,-0.05 0.15,-0.05 0.03,0 0.06,0 0.09,0.02 12.02,5.48 25.03,5.48 36.91,0 0.03,-0.02 0.06,-0.02 0.1,-0.02 0.05,0 0.1,0.01 0.14,0.05 0.37,0.3 0.75,0.6 1.14,0.89 0.06,0.04 0.09,0.11 0.09,0.19 0,0.08 -0.04,0.16 -0.11,0.2 -1.83,1.07 -3.75,1.98 -5.73,2.73 -0.09,0.03 -0.15,0.12 -0.15,0.22 0,0.03 0.01,0.07 0.02,0.1 1.1,2.12 2.36,4.17 3.75,6.1 0.05,0.06 0.12,0.1 0.19,0.1 0.02,0 0.05,-0.01 0.07,-0.01 6.61,-2.02 12.82,-5.17 18.37,-9.27 0.05,-0.04 0.09,-0.1 0.09,-0.17 1.54,-15.83 -2.56,-29.59 -10.85,-41.78zm-37.73 33.44c-3.62,0 -6.6,-3.32 -6.6,-7.4 0,-4.08 2.92,-7.4 6.6,-7.4 3.71,0 6.66,3.35 6.6,7.4 0,4.08 -2.92,7.4 -6.6,7.4zm24.4 0c-3.62,0 -6.6,-3.32 -6.6,-7.4 0,-4.08 2.93,-7.4 6.6,-7.4 3.71,0 6.66,3.35 6.6,7.4 0,4.08 -2.89,7.4 -6.6,7.4z"/>
 </g>
</svg>
