<?xml version="1.0" encoding="UTF-8"?>
<!DOCTYPE svg PUBLIC "-//W3C//DTD SVG 1.1//EN" "http://www.w3.org/Graphics/SVG/1.1/DTD/svg11.dtd">
<!-- Creator: CorelDRAW 2021.5 -->
<svg xmlns="http://www.w3.org/2000/svg" xml:space="preserve" width="2500px" height="600px" version="1.1" style="shape-rendering:geometricPrecision; text-rendering:geometricPrecision; image-rendering:optimizeQuality; fill-rule:evenodd; clip-rule:evenodd"
viewBox="0 0 2500 599.999"
 xmlns:xlink="http://www.w3.org/1999/xlink"
 xmlns:xodm="http://www.corel.com/coreldraw/odm/2003">
 <defs>
  <style type="text/css">
   <![CDATA[
    .fil0 {fill:#FEFEFE}
   ]]>
  </style>
 </defs>
 <g id="Слой_x0020_1">
  <metadata id="CorelCorpID_0Corel-Layer"/>
  <path class="fil0" d="M2067.041 205.788l-65.436 0c1.418,-2.957 11.578,-74.788 11.746,-82.217l65.436 0c-0.484,5.768 -2.282,14.867 -3.067,20.424l-8.679 61.793zm-135.907 164.424l48.656 0 14.604 -109.563c1.149,-6.838 2.177,-9.358 2.177,-16.275l40.267 0c0,10.998 1.508,17.693 1.619,30.262l3.422 46.916c0.295,5.43 -0.222,11.371 -0.064,16.838 0.338,11.425 1.735,11.182 1.735,31.823l50.337 0c0,-12.422 -1.355,-19.702 -1.645,-31.912l-6.748 -97.279 25.695 -17.931c3.57,-4.001 3.49,-11.103 4.519,-17.292 1.022,-6.163 2.119,-15.173 2.841,-20.651l10.571 -78.352c-6.891,-4.618 -7.792,-5.678 -13.829,-11.34 -2.325,-2.188 -11.935,-10.476 -14.693,-10.476l-130.872 0c0,12.4 -31.206,231.7 -36.172,265.842 -1.022,7.049 -2.42,12.779 -2.42,19.391l0 -0.001z"/>
  <path class="fil0" d="M2249.928 333.302l-67.118 0c4.091,-8.524 24.009,-183.15 30.203,-209.731l65.437 0 -28.522 209.731zm-117.45 15.1c41.528,27.81 -15.178,21.81 127.514,21.81 6.443,0 23.73,-13.117 29.576,-17.403 8.699,-6.374 8.852,-19.659 10.829,-37.832 0.754,-6.959 2.315,-13.433 3.089,-20.398 3.322,-30.008 27.948,-180.608 24.004,-188.058 -0.585,-1.101 -23.165,-21.541 -27.23,-21.541l-100.669 0c-0.3,0 -31.268,18.094 -33.44,26.961 -4.656,19.016 -23.071,165.294 -28.127,200.063 -1.808,12.415 -2.978,25.379 -5.546,36.398l0 0z"/>
  <path class="fil0" d="M830.469 333.302l-65.437 0c0.164,-7.201 2.383,-17.466 3.454,-25.073l25.068 -184.658 67.118 0c-3.442,7.17 -24.141,183.709 -30.204,209.731l0.001 0zm-88.929 36.91l102.351 0 30.309 -20.028c6.079,-5.647 4.075,-9.801 6.306,-25.57 3.415,-24.156 6.716,-48.677 10.069,-72.147l15.147 -109.01c1.185,-6.848 1.433,-10.132 2.419,-17.714 0.585,-4.476 2.441,-13.849 2.863,-18.947 -8.335,-2.231 -22.032,-21.816 -28.522,-21.816l-98.992 0c-6.944,0 -22.733,13.249 -29.086,17.899 -9.632,7.053 -7.935,15.215 -10.892,36.081 -0.164,1.134 -29.35,205.05 -28.047,208.561 1.26,3.391 21.689,22.692 26.075,22.692l0 -0.001z"/>
  <path class="fil0" d="M511.68 370.212l48.656 0c0.416,-18.647 16.775,-105.646 16.775,-125.838l65.437 0 -12.674 93.025c-1.577,10.839 -4.102,22.164 -4.102,32.813l48.655 0c0.939,-11.261 3.559,-23.772 5.135,-35.133 5.33,-38.465 29.466,-225.753 35.138,-250.099l-50.337 0 -11.645 89.023c-1.646,11.868 -3.454,17.999 -3.454,31.785l-65.436 0 7.881 -60.913c2.605,-19.807 4.756,-42.118 8.894,-59.895l-48.655 0 -40.268 285.232 0 0z"/>
  <path class="fil0" d="M1095.567 370.212c59.294,0 47.585,6.411 52.514,-22.986l6.274 -45.74c1.176,-11.098 25.844,-45.846 30.14,-48.724 0.137,6.137 1.471,8.483 2.631,14.145 1.27,6.21 1.613,9.695 2.815,15.647l15.068 75.537c2.741,15.495 -4.229,12.121 46.599,12.121 0,-8.43 -1.993,-12.49 -3.511,-19.975 -1.382,-6.791 -2.652,-13.339 -4.181,-20.989l-25.068 -124.467c-1.044,-9.532 31.595,-51.782 37.12,-60.069 6.896,-10.344 12.589,-19.122 19.443,-29.213 4.655,-6.858 17.93,-23.444 19.823,-30.519l-52.014 0 -54.697 81.21c-3.559,5.34 -5.963,8.931 -9.4,14.092l-9.732 13.76c0.279,-12.352 14.804,-95.719 15.104,-109.062l-48.66 0c-2.462,10.581 -3.09,24.098 -5.03,35.233l-35.238 249.998 0 0.001z"/>
  <path class="fil0" d="M1880.797 205.788l-65.436 0c0,-20.308 10.069,-58.266 10.069,-82.217l65.437 0 -5.283 40.02c-1.882,10.913 -4.787,29.934 -4.787,42.197zm-137.579 164.424l48.656 0c0.533,-6.442 2.336,-15.268 3.263,-21.9l9.432 -67.75c6.775,-45.925 -10.244,-36.209 66.164,-36.188 7.376,0.006 17.75,1.64 24.304,-0.859 0.401,-0.153 29.038,-17.572 31.542,-25.506l11.994 -85.323c4.028,-27.261 5.968,-24.251 -10.085,-36.672 -3.991,-3.084 -9.158,-11.034 -14.129,-11.034l-132.555 0c0,11.614 -3.115,26.022 -4.544,35.723l-34.042 249.51 0 -0.001z"/>
  <path class="fil0" d="M327.118 370.212l162.747 0c0,-6.406 3.442,-33.594 5.035,-36.91l-114.092 0 10.164 -68.694c3.649,-26.555 -9.416,-20.234 60.301,-20.234 0.28,-12.484 5.035,-26.492 5.035,-38.586l-57.043 0 11.741 -82.217 112.415 0c1.75,-7.502 5.035,-30.251 5.035,-38.591l-161.07 0 -40.268 285.232 0 0z"/>
  <path class="fil0" d="M1286.841 370.212l162.752 0c0,-15.363 3.359,-21.547 3.359,-36.91l-112.416 0 9.923 -68.931c2.778,-25.39 -6.543,-19.997 60.544,-19.997 0,-12.094 4.755,-26.101 5.034,-38.586l-57.048 0c0,-16.913 10.069,-60.544 10.069,-82.217l114.092 0c0.975,-11.672 5.035,-26.93 5.035,-38.591l-161.071 0c-0.401,4.766 -1.845,11.746 -2.652,17.487l-17.239 125.379c-4.703,27.262 -16.143,124.178 -20.382,142.366l0 0z"/>
  <path class="fil0" d="M914.362 350.078c11.763,3.143 14.53,20.134 28.522,20.134l100.669 0 26.977 -18.32c8.862,-6.891 5.546,-18.204 9.938,-37.047l-48.661 0c-2.093,25.179 5.077,18.457 -67.112,18.457 0,-10.87 2.019,-16.717 3.068,-25.458l21.858 -157.67c1.249,-7.313 3.442,-19.502 3.6,-26.603l65.437 0c-5.003,21.473 -3.121,18.705 9.953,18.547 11.778,-0.148 23.566,-0.09 35.349,-0.09 0.87,-10.448 4.782,-23.997 5.029,-35.233 -7.307,-3.869 -8.129,-5.514 -13.839,-11.329 -4.475,-4.56 -8.182,-10.486 -16.359,-10.486l-95.639 0c-7.956,0 -19.438,11.108 -25.18,15.088 -15.209,10.55 -10.275,6.195 -13.912,28.037 -3.87,23.218 -6.812,48.972 -10.06,73.829 -2.477,18.985 -19.638,131.954 -19.638,148.144l0 0z"/>
  <path class="fil0" d="M1545.233 256.12l-15.104 114.092c56.184,0 49.625,4.539 51.887,-16.908 2.167,-20.56 10.803,-90.346 16.839,-103.964l30.825 -64.809c6.606,-13.132 44.533,-91.442 46.421,-99.551l-48.656 0 -11.746 23.492c-4.792,9.559 -30.63,65.173 -35.233,70.466 -0.595,-7.122 -3.337,-16.212 -4.629,-22.222l-13.828 -71.736 -50.332 0c0,8.583 2.162,13.249 3.78,21.383 1.186,5.926 3,15.052 4.186,20.983l25.591 128.774 -0.001 0z"/>
  <path class="fil0" d="M68.725 331.626c6.179,-1.65 7.118,-5.188 12.458,-9.357l71.6 -62.627c7.823,-6.49 4.191,-5.42 18.241,-5.251l65.367 -0.069c8.283,-1.502 31.216,-25.954 37.527,-31.262 5.967,-5.02 21.277,-15.864 22.996,-22.307 -28.849,0 -130.377,-1.597 -156.157,-0.121 -6.669,0.38 -6.058,-0.369 -15.389,8.098 -7.397,6.706 -15.589,14.82 -23.086,20.545 -6.137,4.692 -20.508,16.29 -22.291,23.012 -4.259,16.091 -7.058,61.288 -11.266,79.339l0 0z"/>
  <path class="fil0" d="M85.506 215.852c4.56,-3.052 7.139,-6.536 11.746,-10.064l71.531 -62.7c7.449,-6.226 6.284,-4.581 19.042,-4.444 14.53,0.158 29.118,0.016 43.653,0.032 28.722,0.016 17.835,2.166 34.526,-10.781l47.691 -42.915 -156.178 -0.137c-7.492,0.169 -4.856,-0.633 -9.574,2.172l-41.027 36.156c-13.47,12.457 -9.095,-0.032 -13.749,31.553l-7.66 61.128 -0.001 0z"/>
  <path class="fil0" d="M63.696 370.212l151.122 0.122c15.816,0 7.797,-1.688 30.789,-19.544l36.208 -32.591c-16.817,0 -157.744,-2.478 -165.91,1.876l-44.823 39.071c-4.84,3.591 -6.838,4.429 -7.386,11.067l0 -0.001z"/>
  <path class="fil0" d="M1627.445 370.212l72.148 0 8.387 -67.113c-83.962,0 -70.354,-4.676 -72.854,14.393l-7.681 52.72 0 0z"/>
  <path class="fil0" d="M2182.061 468.751c0.169,-0.169 0.506,0.264 0.506,0.506l0 0c-0.031,-0.031 -0.675,-0.337 -0.506,-0.506zm-42.361 44.054l11.863 0c0,-13.766 3.39,-23.472 3.39,-38.971l3.389 38.971 13.555 0 9.532 -36.214c0.121,-0.232 0.4,-0.722 0.632,-1.06 0,13.291 -3.384,22.78 -3.384,37.274l11.856 0c0,-19.449 8.067,-56.332 8.473,-74.552l-18.637 0 -9.442 39.693c-0.164,0.538 -0.654,2.077 -0.833,2.557 -0.137,0.374 -0.363,0.875 -0.495,1.202 -0.127,0.321 -0.422,0.907 -0.533,1.16 -0.111,0.253 -0.332,0.78 -0.558,1.138l-1.693 -45.75 -18.642 0c0,10.718 -2.404,25.132 -3.886,36.778 -1.186,9.342 -4.375,28.242 -4.586,37.774l-0.001 0z"/>
  <path class="fil0" d="M1955.006 494.167c-13.127,-0.289 -8.609,-7.676 -7.302,-17.439 1.555,-11.62 -2.187,-17.857 10.692,-18.141 0,12.241 -3.39,23.339 -3.39,35.58zm11.857 0c3.727,-15.995 1.423,-44.706 11.904,-34.226 2.647,2.653 0.074,14.082 -0.706,20.002 -1.424,10.84 0.137,13.972 -11.198,14.224zm-6.775 -47.442c-17.804,0 -22.179,2.773 -25.126,27.404 -3.169,26.476 -1.856,30.208 18.346,30.208l0 8.467 11.863 0c0.147,-6.653 -0.464,-3.97 1.692,-8.467 13.749,0 18.278,-1.834 21.942,-11.951 1.36,-3.754 12.474,-45.661 -10.08,-45.661l-5.082 0 0 -8.473c-13.317,0 -13.555,-1.122 -13.555,8.473l0 0z"/>
  <path class="fil0" d="M1385.665 477.223l0.506 0.506c-0.037,-0.036 -0.675,-0.337 -0.506,-0.506zm-15.252 35.582l13.559 0 18.637 -45.751c-0.306,13.834 -5.082,31.69 -5.082,45.751l11.862 0c0,-19.929 8.061,-56.174 8.472,-74.552l-15.252 0 -15.252 37.278c0,-13.886 3.39,-25.084 3.39,-37.278l-11.857 0c0,17.888 -6.806,54.502 -8.477,74.552z"/>
  <path class="fil0" d="M697.714 477.223l0.506 0.506c-0.037,-0.036 -0.675,-0.337 -0.506,-0.506zm-15.252 35.582l13.554 0c3.316,-6.907 6.037,-15.084 9.2,-22.997l9.442 -22.754c-0.306,13.834 -5.082,31.69 -5.082,45.751l11.857 0c0,-19.929 8.066,-56.174 8.477,-74.552l-15.252 0 -15.251 37.278c0,-13.886 3.389,-25.084 3.389,-37.278l-11.862 0c0,17.888 -6.8,54.502 -8.472,74.552z"/>
  <path class="fil0" d="M130.065 477.223l0.506 0.506c-0.031,-0.036 -0.669,-0.337 -0.506,-0.506zm-15.246 35.582l13.554 0 18.642 -45.751c-0.311,13.834 -5.088,31.69 -5.088,45.751l11.863 0c0,-19.929 8.06,-56.174 8.472,-74.552l-15.247 0c-0.517,6.179 -7.713,20.134 -10.876,28.094l-3.754 8.114c-0.122,0.227 -0.385,0.727 -0.622,1.07 0,-13.886 3.39,-25.084 3.39,-37.278l-11.862 0c0,17.888 -6.807,54.502 -8.472,74.551l0 0.001z"/>
  <path class="fil0" d="M775.661 500.942l-10.17 0c0,-12.874 1.545,-13.649 1.693,-20.329l10.169 0c0,5.657 0.585,15.236 -1.692,20.329zm-1.698 -33.889l-5.082 0 2.009 -16.896 4.771 -0.042c2.768,0 5.082,1.012 5.082,3.384 0,6.037 -0.828,13.554 -6.779,13.554l-0.001 0zm-23.719 45.752c30.004,0 40.664,3.479 40.664,-28.802 0,-7.106 -3.079,-8.651 -6.775,-11.862 4.951,-1.323 5.103,-2.272 6.922,-6.637 13.618,-32.697 -16.871,-27.251 -32.344,-27.251 0,17.888 -6.8,54.502 -8.467,74.552z"/>
  <path class="fil0" d="M431.682 512.805l13.555 0c0,-16.412 6.78,-47.206 6.78,-62.69l11.862 0c0,15.13 -6.78,48.85 -6.78,62.69l13.554 0 8.473 -74.552 -38.972 0c0,17.888 -6.806,54.502 -8.472,74.552l0 0z"/>
  <path class="fil0" d="M1672.03 512.805l13.555 0c0,-16.412 6.779,-47.206 6.779,-62.69l11.857 0c0,15.13 -6.774,48.85 -6.774,62.69l13.554 0 8.472 -74.552 -38.971 0c0,11.193 -2.388,25.068 -3.69,36.973 -1.218,11.144 -3.822,26.059 -4.782,37.579l0 0z"/>
  <path class="fil0" d="M1438.195 512.805l13.554 0c0,-10.93 3.164,-22.201 3.391,-32.192l11.856 0c0,11.504 -3.384,21.368 -3.384,32.192l13.554 0 8.472 -74.552 -13.554 0c-0.206,9.152 -3.39,20.967 -3.39,30.498l-11.862 0c0,-10.259 2.615,-21.188 3.39,-30.498l-13.554 0c0,17.888 -6.806,54.502 -8.472,74.552l-0.001 0z"/>
  <path class="fil0" d="M1592.386 470.449l-5.082 0 0 -11.862c0,-4.582 0.812,-4.676 1.697,-8.472l10.165 0c-1.84,7.908 0.527,20.334 -6.78,20.334l0 0zm-18.636 -6.78c0,6.337 2.609,9.859 5.082,13.554 -13.323,8.921 -5.715,22.776 -11.862,35.581l13.559 0c0.733,-8.825 3.211,-20.766 5.083,-28.801l10.112 -1.951c-2.352,5.267 -3.338,22.527 -3.338,30.752l11.862 0c1.761,-21.151 8.472,-55.873 8.472,-74.552 -21.335,0 -38.97,-4.861 -38.97,25.417l0 0z"/>
  <path class="fil0" d="M970.52 470.449l-5.082 0 0 -11.862c0,-4.582 0.806,-4.676 1.697,-8.472l10.165 0c-1.846,7.908 0.527,20.334 -6.78,20.334l0 0zm-18.637 -6.78c0,6.337 2.605,9.859 5.082,13.554 -13.322,8.921 -5.714,22.776 -11.861,35.581l13.559 0c0.733,-8.825 3.211,-20.766 5.083,-28.801l10.106 -1.951c-2.346,5.267 -3.332,22.527 -3.332,30.752l11.862 0c1.761,-21.151 8.472,-55.873 8.472,-74.552 -21.336,0 -38.97,-4.861 -38.97,25.417l-0.001 0z"/>
  <path class="fil0" d="M1736.418 500.942c-0.164,7.449 -1.144,5.283 -1.693,11.862 23.698,0 21.252,-9.547 25.923,-41.849 0.696,-4.787 2.757,-15.136 2.884,-20.84l8.472 0c0,21.277 -5.114,42.666 -6.78,62.689l13.56 0c0,-15.652 8.119,-58.941 8.467,-74.551 -44.817,0 -32.64,-6.912 -39.219,31.943 -4.597,27.188 -0.132,30.493 -11.614,30.746l0 0z"/>
  <path class="fil0" d="M814.631 512.805l13.555 0c0,-10.93 3.168,-22.201 3.389,-32.192l11.863 0c0,11.504 -3.39,21.368 -3.39,32.192l13.554 0c0,-12.295 2.294,-24.358 3.696,-36.973 1.149,-10.365 2.472,-27.684 4.776,-37.579l-13.554 0c-0.206,9.152 -3.39,20.967 -3.39,30.498l-11.862 0c0,-10.259 2.615,-21.188 3.39,-30.498l-13.555 0c0,17.888 -6.806,54.502 -8.472,74.552l0 0z"/>
  <path class="fil0" d="M513.019 502.64c-2.008,-8.604 0.511,-19.933 1.693,-30.499 2.42,-21.71 0.153,-23.46 11.861,-23.724 1.83,7.855 -1.908,34.506 -3.337,45.804 -0.991,7.781 -1.829,8.234 -10.217,8.419zm-13.56 -3.39c0,19.016 21.832,18.215 31.021,8.994 3.933,-3.949 5.383,-9.927 6.026,-16.006 2.953,-28.026 12.104,-55.683 -13.322,-55.683 -12.337,0 -18.811,10.064 -20.102,22.264 -1.514,14.35 -3.623,25.653 -3.623,40.431z"/>
  <path class="fil0" d="M2031.255 502.64c-1.829,-7.855 1.909,-34.506 3.337,-45.804 0.987,-7.781 1.83,-8.234 10.218,-8.419 1.829,7.855 -1.909,34.506 -3.338,45.804 -0.985,7.781 -1.829,8.234 -10.217,8.419zm-13.554 -3.39c0,20.835 33.909,22.67 37.041,-7.012 2.957,-28.026 12.11,-55.683 -13.317,-55.683 -12.342,0 -18.816,10.064 -20.102,22.264 -1.513,14.35 -3.622,25.653 -3.622,40.431l0 0z"/>
  <path class="fil0" d="M1131.496 502.64c-1.83,-7.855 1.908,-34.506 3.337,-45.804 0.986,-7.781 1.83,-8.234 10.217,-8.419 1.83,7.855 -1.908,34.506 -3.337,45.804 -0.986,7.781 -1.83,8.234 -10.217,8.419zm-13.555 -3.39c0,19.016 21.827,18.215 31.021,8.994 8.05,-8.082 9.642,-46.784 9.642,-58.129 0,-17.456 -33.809,-21.911 -37.041,8.704 -1.513,14.35 -3.622,25.653 -3.622,40.431z"/>
  <path class="fil0" d="M206.32 500.942l-10.17 0c0,-10.301 1.698,-12.358 1.698,-22.026l10.164 0c1.603,6.88 0.185,13.976 -1.692,22.026l0 0zm-25.417 11.863c34.506,0 40.664,2.293 40.664,-32.192 0,-13.971 -13.797,-13.56 -22.027,-13.56l2.009 -16.896c24.13,-0.064 21.715,2.235 21.715,-11.904l-33.888 0 -8.473 74.551 0 0.001z"/>
  <path class="fil0" d="M1178.938 512.805l13.56 0c0,-6.901 0.87,-9.78 1.455,-15.485 0.954,-9.315 -1.518,-7.048 5.32,-11.625 0.717,8.584 4.792,18.584 6.779,27.11l13.555 0c-1.561,-3.248 -11.488,-38.181 -11.314,-40.468 0.332,-4.345 16.407,-29.039 19.786,-34.084l-13.555 0 -16.944 28.801c0,-8.773 2.7,-20.519 3.39,-28.801l-13.56 0c0,17.888 -6.8,54.502 -8.472,74.552l0 0z"/>
  <path class="fil0" d="M1245.023 512.805l13.555 0c0,-6.901 0.875,-9.78 1.46,-15.485 0.954,-9.315 -1.519,-7.048 5.319,-11.625 0.717,8.584 4.793,18.584 6.78,27.11l13.554 0c-1.56,-3.248 -11.487,-38.181 -11.314,-40.468 0.333,-4.345 16.407,-29.039 19.786,-34.084l-13.554 0 -16.944 28.801c0,-8.773 2.699,-20.519 3.39,-28.801l-13.56 0c0,17.888 -6.801,54.502 -8.472,74.552l0 0z"/>
  <path class="fil0" d="M48.734 512.805l13.554 0c0,-6.901 0.87,-9.78 1.456,-15.485 0.954,-9.315 -1.514,-7.048 5.324,-11.625 0.712,8.584 4.792,18.584 6.775,27.11l13.559 0c-1.56,-3.248 -11.493,-38.181 -11.313,-40.468 0.331,-4.345 16.406,-29.039 19.785,-34.084l-13.559 0 -16.94 28.801c0,-8.773 2.695,-20.519 3.385,-28.801l-13.554 0c0,17.888 -6.807,54.502 -8.473,74.552l0.001 0z"/>
  <path class="fil0" d="M2241.366 460.279c2.857,1.982 3.39,0.242 3.39,5.083l0 23.724 -10.165 0c1.988,-8.536 6.559,-19.038 6.775,-28.807l0 0zm-25.416 52.526l13.56 0 1.982 -13.507 13.264 -0.048 1.698 13.555 11.862 0 -1.64 -55.973c-0.01,-9.284 -1.587,-11.251 -1.75,-18.579l-18.642 0 -9.563 37.874c-3.211,10.992 -6.601,28 -10.771,36.678l0 0z"/>
  <path class="fil0" d="M902.743 460.279c2.857,1.982 3.39,0.242 3.39,5.083l0 23.724 -10.17 0c1.987,-8.536 6.564,-19.038 6.78,-28.807l0 0zm-25.416 52.526l13.553 0 1.983 -13.507 13.27 -0.048 1.692 13.555 11.862 0 -1.634 -55.973c-0.011,-9.284 -1.592,-11.251 -1.756,-18.579l-18.636 0c-0.475,5.689 -2.81,13.507 -4.487,19.237 -3.907,13.354 -11.799,46.874 -15.848,55.315l0.001 0z"/>
  <path class="fil0" d="M1526.307 460.279c2.852,1.982 3.389,0.242 3.389,5.083l0 23.724 -10.169 0c1.987,-8.536 6.563,-19.038 6.78,-28.807l0 0zm-25.417 52.526l13.555 0 1.982 -13.507 13.269 -0.048 1.693 13.555 11.862 0c0,-6.227 0.063,-12.474 0.058,-18.695l-3.448 -55.857 -18.642 0c-0.775,9.326 -17.946,69.58 -20.329,74.552l0 0z"/>
  <path class="fil0" d="M1829.616 460.279c2.858,1.982 3.39,0.242 3.39,5.083l0 23.724 -10.169 0c1.987,-8.536 6.558,-19.038 6.779,-28.807l0 0zm-25.416 52.526l13.554 0 1.982 -13.507 13.27 -0.048 1.692 13.555 11.862 0c0,-6.227 0.069,-12.474 0.058,-18.695l-3.448 -55.857 -18.636 0c-0.78,9.326 -17.951,69.58 -20.335,74.552l0.001 0z"/>
  <path class="fil0" d="M1046.774 512.805l11.863 0c1.95,-8.394 7.955,-15.922 10.164,-25.417 5.245,3.843 2.668,2.494 4.497,10.755 1.312,5.942 2.277,7.929 2.277,14.662l13.56 0c-0.243,-10.966 -8.572,-33.604 -7.139,-39.704 0.654,-2.768 6.09,-13.971 7.703,-17.34 3.105,-6.458 4.798,-11.635 7.908,-17.508l-11.862 0 -9.69 20.814c-2.04,3.152 -0.696,1.207 -2.172,2.905 -1.787,-7.666 -3.295,-16.054 -5.082,-23.719l-13.56 0c1.54,3.2 3.88,15.41 4.666,19.058 7.855,36.652 -5.973,24.763 -13.132,55.494l-0.001 0z"/>
  <path class="fil0" d="M370.68 499.25c0,22.074 36.388,24.784 37.279,-15.247 -27.494,0 -3.227,8.32 -18.637,18.637 -9.421,-2.515 -6.516,-4.813 -3.706,-27.425 0.902,-7.228 1.202,-10.149 1.861,-16.781 0.881,-8.868 0.939,-9.806 10.317,-10.017 2.447,10.507 0.232,4.734 0,15.252l11.863 0c8.693,-37.336 -32.144,-35.27 -35.35,-4.85 -1.518,14.35 -3.627,25.653 -3.627,40.431l0 0z"/>
  <path class="fil0" d="M2097.34 473.834l1.692 -23.719c10.892,0 10.46,-1.529 8.683,13.644 -1.043,8.894 -0.87,9.864 -10.375,10.075zm-18.642 38.971l13.56 0c0,-33.857 4.977,-26.229 12.821,-27.847 19.391,-3.986 18.173,-36.762 13.481,-42.509 -5.245,-6.416 -19.026,-4.196 -31.384,-4.196 0,11.192 -2.389,25.068 -3.691,36.973 -1.223,11.144 -3.827,26.059 -4.787,37.578l0 0.001z"/>
  <path class="fil0" d="M326.627 473.834l1.692 -23.719c9.891,0 9.106,-0.49 9.68,4.666 0.026,0.216 -0.717,6.584 -1.001,8.978 -1.039,8.894 -0.865,9.864 -10.371,10.075l0 0zm-18.641 38.971l13.553 0c0,-33.857 4.983,-26.229 12.828,-27.847 20.044,-4.123 21.889,-46.705 5.814,-46.705l-23.723 0c0,17.888 -6.802,54.502 -8.473,74.552l0.001 0z"/>
  <path class="fil0" d="M580.796 473.834l1.693 -23.719c10.892,0 10.454,-1.529 8.682,13.644 -1.043,8.894 -0.869,9.864 -10.375,10.075zm-18.641 38.971l13.554 0c0,-33.857 4.982,-26.229 12.822,-27.847 20.049,-4.123 21.894,-46.705 5.82,-46.705l-23.724 0c0,17.888 -6.801,54.502 -8.472,74.552l0 0z"/>
  <path class="fil0" d="M1309.415 512.805l33.889 0 0 -11.863 -18.642 0c0,-12.874 1.55,-13.649 1.698,-20.328l16.944 0 0 -11.863 -15.252 0c0,-9.405 1.698,-10.048 1.698,-18.636l20.329 0c0.168,-7.45 1.149,-5.282 1.697,-11.862l-33.888 0c0,17.888 -6.806,54.502 -8.473,74.552l0 0z"/>
  <path class="fil0" d="M246.983 512.805l33.894 0 0 -11.863 -18.642 0c0,-12.874 1.544,-13.649 1.697,-20.328l16.945 0 0 -11.863 -15.252 0c0,-9.405 1.692,-10.048 1.692,-18.636l20.334 0c0.169,-7.45 1.149,-5.282 1.698,-11.862l-33.894 0c0,17.888 -6.801,54.502 -8.472,74.552l0 0z"/>
  <path class="fil0" d="M2400.663 130.282l11.746 0 2.945 -25.168c3.231,2.351 5.486,7.365 9.476,7.908 5.807,0.791 6.791,-4.466 12.334,-7.908l-2.945 25.168 11.746 0 5.302 -45.302c-17.646,0 -12.198,5.436 -25.063,13.422 -7.514,-13.596 -11.294,-13.422 -20.24,-13.422l-5.301 45.302z"/>
  <path class="fil0" d="M1877.059 450.115l11.862 0c-2.868,5.978 -5.362,56.205 -8.472,62.69l13.554 0c0.354,-15.901 6.78,-44.375 6.78,-62.69 14.883,0 13.554,1.413 13.554,-11.862l-37.278 0 0 11.862 0 0z"/>
  <path class="fil0" d="M628.239 450.115l11.863 0c-2.874,5.978 -5.357,56.205 -8.473,62.69l13.554 0c0.353,-15.901 6.78,-44.375 6.78,-62.69 14.883,0 13.554,1.413 13.554,-11.862l-37.278 0 0 11.862 0 0z"/>
  <path class="fil0" d="M2359.882 91.691c-0.765,6.527 3.712,5.035 14.504,5.035l-3.926 33.556 11.746 0 3.926 -33.556 13.423 0 1.374 -11.746 -40.263 0 -0.784 6.711z"/>
  <path class="fil0" d="M1392.445 433.165c11.662,0 20.028,1.682 20.334,-11.857 -11.793,0.264 -7.824,5.082 -11.862,5.082 -9.642,0 2.615,-5.082 -13.559,-5.082 0.216,9.68 0.853,5.541 5.087,11.857z"/>
 </g>
</svg>
