<?xml version="1.0" encoding="UTF-8"?>
<!DOCTYPE svg PUBLIC "-//W3C//DTD SVG 1.1//EN" "http://www.w3.org/Graphics/SVG/1.1/DTD/svg11.dtd">
<!-- Creator: CorelDRAW 2021.5 -->
<svg xmlns="http://www.w3.org/2000/svg" xml:space="preserve" width="1063px" height="543px" version="1.1" style="shape-rendering:geometricPrecision; text-rendering:geometricPrecision; image-rendering:optimizeQuality; fill-rule:evenodd; clip-rule:evenodd"
viewBox="0 0 1063 543.31"
 xmlns:xlink="http://www.w3.org/1999/xlink"
 xmlns:xodm="http://www.corel.com/coreldraw/odm/2003">
 <defs>
  <style type="text/css">
   <![CDATA[
    .fil0 {fill:#515151}
    .fil1 {fill:#D9DADA;fill-rule:nonzero}
   ]]>
  </style>
 </defs>
 <g id="Слой_x0020_1">
  <metadata id="CorelCorpID_0Corel-Layer"/>
  <g id="_2071881397136">
   <path class="fil0" d="M61.99 117.23l0 309.54c0,38.43 37.4,74.72 77,74.72l784.01 0c39.6,0 77,-36.29 77,-74.72l0 -309.54c0,-10.68 -3.67,-22.17 -7.32,-29.77 -1.74,-3.64 -4.71,-8.36 -7.09,-11.55 -14.13,-18.94 -37.57,-33.39 -62.59,-33.39l-784.01 0c-12.5,0 -21.4,3.49 -30.59,7.18 -3.78,1.53 -8.79,4.55 -11.99,6.8 -19.5,13.7 -34.42,36.3 -34.42,60.73z"/>
   <path class="fil1" d="M151.65 170.11l150.48 0c23.96,23.32 37.69,36.91 41.17,40.77l-102.87 0c-0.64,0 -2.25,5.64 -4.87,16.94 -2.43,7.62 -4.54,15.56 -6.47,23.82l51.28 0c0,0.97 -3.63,14.55 -10.93,40.77l-51.64 0 -21.76 81.48 -52.06 0 44.81 -167.05c-24.52,-23.83 -36.86,-36.08 -37.14,-36.73zm191.57 0l150.47 0c13.91,13.64 27.64,27.09 41.18,40.35 -5.92,22.18 -9.68,36.04 -11.29,41.6 -19.74,12.44 -30.11,19.18 -31.08,20.15 13.45,12.99 20.15,19.87 20.15,20.56 -13.68,50.41 -20.97,77.45 -21.76,81.12l-52.05 0 21.8 -81.48 -51.27 0 -21.76 81.48 -52.06 0 44.8 -167.05c-24.51,-23.83 -36.86,-36.08 -37.13,-36.73zm77.44 81.53l51.28 0c0,-0.92 3.62,-14.5 10.88,-40.76l-50.82 0c-0.64,0 -2.25,5.64 -4.87,16.94 -2.43,7.62 -4.54,15.56 -6.47,23.82zm114.13 -81.53l150.47 0c23.97,23.32 37.69,36.91 41.18,40.77l-102.87 0c-0.65,0 -2.25,5.64 -4.87,16.94 -2.43,7.62 -4.54,15.56 -6.47,23.82l51.27 0c0,0.97 -3.62,14.55 -10.92,40.77l-51.64 0 -10.88 40.71 103.28 0c-6.47,23.42 -10.1,37 -10.88,40.77l-155.34 0 44.8 -167.05c-24.51,-23.83 -36.86,-36.08 -37.13,-36.73zm191.56 0l150.48 0c23.96,23.32 37.69,36.91 41.18,40.77l-102.88 0c-0.64,0 -2.25,5.64 -4.86,16.94 -2.43,7.62 -4.55,15.56 -6.47,23.82l51.27 0c0,0.97 -3.62,14.55 -10.92,40.77l-51.65 0 -10.88 40.71 103.29 0c-6.47,23.42 -10.1,37 -10.88,40.77l-155.34 0 44.8 -167.05c-24.51,-23.83 -36.86,-36.08 -37.14,-36.73z"/>
  </g>
 </g>
</svg>
