<svg width="46" height="30" viewBox="0 0 46 30" fill="none" xmlns="http://www.w3.org/2000/svg">
<path d="M16.53 1.22767C20.8601 1.22768 24.1574 1.22754 24.1574 1.22754C24.1574 1.22754 26.0249 1.22766 29.2412 1.22767M16.53 1.22767C14.5549 1.22766 12.3648 1.22763 10.1748 1.22754C3.81904 1.22728 3.53045 13.3035 1.27692 21.5658C-0.629846 28.5567 7.73744 31.7777 13.3523 27.2858C16.53 24.7436 14.4345 20.2944 18.4367 20.2944C20.3432 20.2944 24.1574 20.2944 24.1574 20.2944H27.3358C31.3381 20.2944 29.2425 24.7436 32.4203 27.2858C38.0351 31.7777 46.4024 28.5567 44.4956 21.5658C42.2421 13.3035 41.9535 1.22728 35.5977 1.22754C33.1359 1.22764 30.9893 1.22767 29.2412 1.22767M16.53 1.22767C16.53 1.22767 16.53 3.13453 17.1656 3.77009C18.2936 4.89809 20.3434 5.04121 22.8856 5.04121C25.4278 5.04121 27.3352 5.04056 28.6056 3.77009C29.2412 3.13453 29.2412 1.22767 29.2412 1.22767M19.0722 17.1168H26.6989" stroke="white" stroke-linecap="round"/>
<path d="M10.1744 8.21894V10.1256H8.2677C7.21467 10.1256 6.36102 10.9793 6.36102 12.0323C6.36102 13.0853 7.21467 13.939 8.2677 13.939H10.1744V15.8456C10.1744 16.8987 11.028 17.7523 12.0811 17.7523C13.1341 17.7523 13.9877 16.8987 13.9877 15.8456V13.939H15.8944C16.9474 13.939 17.8011 13.0853 17.8011 12.0323C17.8011 10.9793 16.9474 10.1256 15.8944 10.1256H13.9877V8.21893C13.9877 7.1659 13.1341 6.31226 12.0811 6.31226C11.028 6.31226 10.1744 7.16591 10.1744 8.21894Z" stroke="white" stroke-linecap="round"/>
<circle cx="33.6901" cy="8.21894" r="1.40668" stroke="white"/>
<circle cx="33.6901" cy="15.8456" r="1.40668" stroke="white"/>
<circle cx="37.5035" cy="12.0324" r="1.40668" transform="rotate(90 37.5035 12.0324)" stroke="white"/>
<circle cx="29.8768" cy="12.0324" r="1.40668" transform="rotate(90 29.8768 12.0324)" stroke="white"/>
</svg>
