<svg width="29" height="20" viewBox="0 0 29 20" fill="none" xmlns="http://www.w3.org/2000/svg">
<path d="M28 10.2271C27.508 11.3298 26.8898 12.3788 26.151 13.3495C23.3233 17.064 19.035 19.2275 14.4998 19.2275C9.96466 19.2275 5.6763 17.064 2.84867 13.3495C2.10997 12.379 1.49196 11.3304 1 10.2279C1.49202 9.12524 2.11015 8.07628 2.84904 7.10562C5.67666 3.39105 9.96502 1.22754 14.5002 1.22754C19.0353 1.22754 23.3237 3.39105 26.1513 7.10562C26.89 8.07603 27.508 9.12472 28 10.2271Z" stroke="white" stroke-linecap="round" stroke-linejoin="round"/>
<path d="M12.4581 14.6694C13.7485 15.3204 15.2515 15.3204 16.5419 14.6694C17.8322 14.0184 18.7693 12.7873 19.088 11.3246C19.4067 9.86186 19.0722 8.32669 18.1793 7.15367C17.2864 5.98064 15.9322 5.29743 14.5 5.29743C13.0678 5.29743 11.7136 5.98064 10.8207 7.15367C9.92776 8.32669 9.59329 9.86186 9.91198 11.3246C10.2307 12.7873 11.1678 14.0184 12.4581 14.6694Z" stroke="white" stroke-linecap="round" stroke-linejoin="round"/>
</svg>
