<svg width="39" height="39" viewBox="0 0 39 39" fill="none" xmlns="http://www.w3.org/2000/svg">
<circle cx="19.5" cy="19.5" r="19.5" fill="url(#paint0_linear_472_9852)"/>
<path fill-rule="evenodd" clip-rule="evenodd" d="M28.8335 9.80043C28.8335 9.80043 29.0948 9.49555 28.6593 9.14712C28.2158 8.79237 27.9188 9.19066 27.9188 9.19066C27.9188 9.19066 23.9281 14.77 20.4709 19.5228L21.1242 20.4558C24.69 15.5337 28.8335 9.80043 28.8335 9.80043ZM12.8052 28.3113C14.7216 28.3113 15.6824 27.9314 16.3332 27.0482C16.876 26.3116 18.1972 24.4936 19.7871 22.3007L19.1433 21.3425C17.8938 23.0496 16.8124 24.5079 16.1589 25.3496C15.644 26.0129 14.4167 26.1771 13.1972 26.1771C12.9154 26.1771 12.62 26.1398 12.3238 26.1024C11.6355 26.0154 10.9434 25.9279 10.4097 26.3078C9.93672 26.6445 9.93059 27.0047 10.1048 27.658C10.279 28.3113 11.7912 28.3113 12.8052 28.3113ZM10.7624 26.9481C10.7515 26.7439 10.9608 26.669 11.1533 26.6L11.1544 26.5996C11.4151 26.5063 11.8221 26.455 11.8513 26.7303C11.8768 26.9707 11.6086 27.0719 11.3722 27.1223C11.13 27.1739 10.7757 27.1954 10.7624 26.9481Z" fill="white"/>
<path fill-rule="evenodd" clip-rule="evenodd" d="M27.4311 28.3113C25.5146 28.3113 24.5539 27.9314 23.9031 27.0482C22.0738 24.5656 11.4028 9.80043 11.4028 9.80043C11.4028 9.80043 11.1415 9.49555 11.577 9.14712C12.0205 8.79237 12.3174 9.19066 12.3174 9.19066C12.3174 9.19066 21.5076 22.0394 24.0773 25.3496C24.5922 26.0129 25.8195 26.1771 27.0391 26.1771C27.3209 26.1771 27.6163 26.1398 27.9124 26.1024C28.6008 26.0154 29.2929 25.9279 29.8266 26.3078C30.2995 26.6445 30.3057 27.0047 30.1315 27.658C29.9573 28.3113 28.4451 28.3113 27.4311 28.3113ZM29.0172 27.345C29.0288 27.1306 28.4506 27.1022 27.9188 27.0761L27.9158 27.076C27.1957 27.0406 26.0798 27.0834 26.0248 27.3759C25.9768 27.6313 26.718 27.673 27.368 27.6695C28.034 27.666 29.0032 27.6046 29.0172 27.345Z" fill="white"/>
<defs>
<linearGradient id="paint0_linear_472_9852" x1="0" y1="0" x2="39" y2="39" gradientUnits="userSpaceOnUse">
<stop stop-color="#4568DC"/>
<stop offset="1" stop-color="#AF6AB4"/>
</linearGradient>
</defs>
</svg>
