<svg xmlns="http://www.w3.org/2000/svg" xml:space="preserve" width="5000" height="1600" style="shape-rendering:geometricPrecision;text-rendering:geometricPrecision;image-rendering:optimizeQuality;fill-rule:evenodd;clip-rule:evenodd"><defs><style>.fil0{fill:#fff}</style></defs><g id="Слой_x0020_1"><g id="_2393294999488"><path class="fil0" d="M4253.61 755.64H4121.9c2.86-5.95 23.31-150.53 23.64-165.48h131.71c-.97 11.61-4.59 29.93-6.17 41.11l-17.47 124.37zm-273.55 330.96H4078l29.38-220.53c2.32-13.76 4.39-18.84 4.39-32.76h81.05c0 22.14 3.04 35.62 3.26 60.92l6.89 94.42c.59 10.93-.45 22.89-.13 33.89.68 23 3.49 22.52 3.49 64.06h101.32c0-25.01-2.73-39.66-3.31-64.23l-13.58-195.81 51.72-36.09c7.18-8.05 7.02-22.34 9.09-34.81 2.06-12.4 4.27-30.54 5.72-41.56l21.28-157.71c-13.88-9.29-15.7-11.42-27.84-22.82-4.68-4.4-24.03-21.08-29.58-21.08h-263.42c0 24.95-62.8 466.35-72.79 535.08-2.07 14.18-4.88 25.72-4.88 39.03zM4621.72 1012.3h-135.09c8.24-17.15 48.33-368.64 60.79-422.14h131.71l-57.41 422.14zm-236.4 30.4c83.59 55.97-30.54 43.9 256.66 43.9 12.97 0 47.77-26.41 59.54-35.03 17.5-12.83 17.81-39.57 21.78-76.14 1.53-14.02 4.67-27.04 6.22-41.07 6.69-60.4 56.26-363.52 48.32-378.51-1.18-2.22-46.63-43.36-54.81-43.36h-202.62c-.61 0-62.94 36.41-67.31 54.26-9.38 38.27-46.44 332.7-56.61 402.68-3.64 25-6 51.08-11.17 73.27zM1764.66 1012.3h-131.71c.32-14.49 4.8-35.16 6.95-50.46l50.46-371.68h135.09c-6.93 14.43-48.59 369.76-60.79 422.14zm-179 74.3h206.01l61-40.31c12.24-11.38 8.22-19.74 12.7-51.47 6.88-48.62 13.52-97.98 20.27-145.22l30.49-219.41c2.38-13.79 2.87-20.4 4.87-35.66 1.17-9.01 4.9-27.87 5.76-38.14-16.79-4.48-44.35-43.9-57.41-43.9h-199.26c-13.97 0-45.75 26.66-58.53 36.02-19.39 14.19-15.98 30.62-21.93 72.63-.33 2.27-59.07 412.71-56.45 419.78 2.54 6.83 43.65 45.68 52.48 45.68zM1123 1086.6h97.94c.83-37.54 33.77-212.65 33.77-253.29h131.7l-25.52 187.24c-3.16 21.82-8.25 44.61-8.25 66.05h97.94c1.89-22.67 7.17-47.85 10.33-70.72 10.73-77.42 59.31-454.4 70.72-503.39h-101.31l-23.44 179.18c-3.31 23.89-6.96 36.23-6.96 63.97h-131.71l15.87-122.59c5.24-39.88 9.57-84.78 17.9-120.56h-97.93L1123 1086.6zM2298.24 1086.6c119.35 0 95.78 12.9 105.71-46.27l12.62-92.07c2.37-22.33 52.02-92.27 60.66-98.06.28 12.34 2.97 17.07 5.3 28.47 2.56 12.49 3.25 19.51 5.67 31.49l30.32 152.04c5.52 31.19-8.51 24.4 93.8 24.4 0-16.98-4.02-25.15-7.07-40.21-2.78-13.67-5.33-26.85-8.41-42.25l-50.46-250.52c-2.1-19.19 63.59-104.23 74.71-120.91 13.88-20.82 25.35-38.49 39.14-58.8 9.37-13.8 36.09-47.18 39.89-61.42h-104.69l-110.09 163.45c-7.17 10.75-12 17.98-18.91 28.37L2446.84 732c.55-24.86 29.79-192.66 30.39-219.51h-97.93c-4.97 21.3-6.23 48.49-10.14 70.92l-70.92 503.19zM3878.75 755.64h-131.71c0-40.87 20.26-117.27 20.26-165.48h131.71l-10.63 80.55c-3.79 21.97-9.63 60.25-9.63 84.93zm-276.93 330.96h97.94c1.08-12.97 4.7-30.74 6.57-44.09l18.98-136.36c13.64-92.44-20.62-72.88 133.17-72.84 14.85.01 35.74 3.3 48.93-1.73.8-.31 58.44-35.36 63.48-51.34l24.14-171.73c8.11-54.88 12.01-48.81-20.3-73.81-8.03-6.22-18.43-22.21-28.44-22.21H3679.5c0 23.37-6.28 52.37-9.16 71.89l-68.52 502.22zM751.51 1086.6h327.59c0-12.9 6.93-67.63 10.13-74.3H859.58l20.46-138.26c7.34-53.45-18.95-40.73 121.38-40.73.56-25.13 10.13-53.32 10.13-77.67H896.73l23.64-165.48h226.27c3.51-15.09 10.13-60.89 10.13-77.67H832.56l-81.05 574.11zM2683.24 1086.6h327.58c0-30.92 6.76-43.38 6.76-74.3h-226.27l19.98-138.74c5.58-51.11-13.18-40.25 121.86-40.25 0-24.34 9.57-52.54 10.13-77.67h-114.83c0-34.03 20.27-121.85 20.27-165.48h229.64c1.96-23.5 10.13-54.2 10.13-77.67h-324.2c-.8 9.58-3.71 23.64-5.33 35.19l-34.7 252.36c-9.47 54.87-32.49 249.95-41.02 286.56zM1933.51 1046.07c23.68 6.33 29.25 40.53 57.41 40.53h202.63l54.3-36.88c17.83-13.86 11.16-36.64 20-74.57h-97.94c-4.22 50.68 10.21 37.15-135.08 37.15 0-21.88 4.06-33.64 6.17-51.24l43.99-317.36c2.52-14.71 6.93-39.24 7.25-53.54h131.71c-10.07 43.22-6.28 37.65 20.04 37.33 23.7-.29 47.43-.18 71.14-.18 1.75-21.04 9.63-48.31 10.13-70.92-14.71-7.78-16.37-11.1-27.86-22.8-9.01-9.18-16.47-21.1-32.93-21.1h-192.5c-16.01 0-39.12 22.35-50.68 30.37-30.61 21.23-20.67 12.46-28 56.42-7.79 46.74-13.71 98.58-20.24 148.61-5 38.21-39.54 265.59-39.54 298.18zM3203.32 856.95l-30.4 229.65c113.09 0 99.89 9.13 104.44-34.03 4.36-41.39 21.74-181.85 33.89-209.27l62.05-130.43c13.29-26.44 89.63-184.06 93.44-200.38h-97.94l-23.64 47.28c-9.65 19.23-61.65 131.17-70.92 141.83-1.19-14.34-6.72-32.63-9.31-44.72l-27.84-144.39h-101.31c0 17.27 4.35 26.66 7.62 43.03 2.38 11.93 6.03 30.3 8.42 42.24l51.5 259.19zM231.43 1008.93c12.43-3.32 14.32-10.45 25.07-18.84l144.12-126.05c15.74-13.06 8.44-10.91 36.71-10.57l131.58-.13c16.67-3.03 62.82-52.24 75.53-62.93 12.01-10.1 42.82-31.93 46.28-44.9-58.06 0-262.42-3.21-314.31-.24-13.42.77-12.19-.75-30.98 16.3-14.88 13.5-31.37 29.83-46.46 41.35-12.35 9.44-41.28 32.79-44.87 46.32-8.57 32.39-14.2 123.35-22.67 159.69zM265.2 775.9c9.18-6.14 14.37-13.16 23.64-20.26l143.98-126.19c15-12.54 12.65-9.23 38.33-8.95 29.25.32 58.61.03 87.86.06 57.81.04 35.9 4.36 69.5-21.69l95.99-86.38-314.35-.28c-15.08.34-9.77-1.28-19.28 4.37l-82.57 72.77c-27.11 25.08-18.31-.06-27.67 63.51L265.2 775.9zM221.3 1086.6l304.18.24c31.84 0 15.7-3.39 61.98-39.34l72.87-65.59c-33.85 0-317.5-5-333.94 3.77l-90.21 78.65c-9.75 7.22-13.77 8.9-14.88 22.27zM3368.8 1086.6h145.21l16.89-135.09c-169 0-141.61-9.41-146.64 28.97l-15.46 106.12z"/></g></g></svg>