<?xml version="1.0" encoding="UTF-8"?>
<!DOCTYPE svg PUBLIC "-//W3C//DTD SVG 1.1//EN" "http://www.w3.org/Graphics/SVG/1.1/DTD/svg11.dtd">
<!-- Creator: CorelDRAW 2021.5 -->
<svg xmlns="http://www.w3.org/2000/svg" xml:space="preserve" width="5000px" height="1600px" version="1.1" style="shape-rendering:geometricPrecision; text-rendering:geometricPrecision; image-rendering:optimizeQuality; fill-rule:evenodd; clip-rule:evenodd"
viewBox="0 0 5000 1600"
 xmlns:xlink="http://www.w3.org/1999/xlink"
 xmlns:xodm="http://www.corel.com/coreldraw/odm/2003">
 <defs>
  <style type="text/css">
   <![CDATA[
    .fil0 {fill:white}
   ]]>
  </style>
 </defs>
 <g id="Слой_x0020_1">
  <metadata id="CorelCorpID_0Corel-Layer"/>
  <g id="_2393293852832">
   <path class="fil0" d="M4049.77 621.3l-124.12 0c2.69,-5.61 21.96,-141.86 22.28,-155.95l124.12 0c-0.92,10.94 -4.33,28.2 -5.82,38.74l-16.46 117.21zm-257.79 311.88l92.29 0 27.7 -207.82c2.18,-12.97 4.13,-17.75 4.13,-30.87l76.38 0c0,20.86 2.86,33.56 3.07,57.4l6.49 88.99c0.56,10.3 -0.42,21.57 -0.12,31.94 0.64,21.67 3.29,21.21 3.29,60.36l95.48 0c0,-23.56 -2.57,-37.37 -3.12,-60.53l-12.8 -184.52 48.74 -34.01c6.77,-7.59 6.62,-21.06 8.57,-32.8 1.94,-11.69 4.02,-28.78 5.39,-39.17l20.05 -148.62c-13.07,-8.76 -14.78,-10.77 -26.23,-21.51 -4.41,-4.15 -22.64,-19.87 -27.87,-19.87l-248.24 0c0,23.52 -59.19,439.49 -68.61,504.25 -1.94,13.37 -4.59,24.24 -4.59,36.78z"/>
   <path class="fil0" d="M4396.67 863.17l-127.31 0c7.76,-16.17 45.54,-347.4 57.29,-397.82l124.12 0 -54.1 397.82zm-222.78 28.64c78.77,52.75 -28.79,41.37 241.87,41.37 12.22,0 45.01,-24.88 56.1,-33.01 16.5,-12.09 16.79,-37.29 20.54,-71.76 1.43,-13.2 4.39,-25.48 5.86,-38.69 6.3,-56.92 53.01,-342.58 45.53,-356.71 -1.11,-2.09 -43.94,-40.86 -51.65,-40.86l-190.95 0c-0.57,0 -59.31,34.32 -63.43,51.14 -8.83,36.07 -43.76,313.53 -53.35,379.48 -3.43,23.55 -5.65,48.14 -10.52,69.04z"/>
   <path class="fil0" d="M1704.23 863.17l-124.12 0c0.31,-13.66 4.52,-33.13 6.55,-47.56l47.55 -350.26 127.31 0c-6.53,13.6 -45.79,348.46 -57.29,397.82zm-168.68 70.01l194.14 0 57.49 -37.99c11.53,-10.71 7.73,-18.59 11.96,-48.5 6.48,-45.82 12.74,-92.33 19.1,-136.85l28.73 -206.77c2.25,-12.99 2.72,-19.22 4.59,-33.6 1.11,-8.49 4.63,-26.27 5.43,-35.94 -15.81,-4.23 -41.79,-41.38 -54.1,-41.38l-187.77 0c-13.17,0 -43.12,25.13 -55.17,33.95 -18.27,13.38 -15.05,28.86 -20.66,68.44 -0.31,2.15 -55.67,388.94 -53.2,395.6 2.39,6.43 41.14,43.04 49.46,43.04z"/>
   <path class="fil0" d="M1099.55 933.18l92.29 0c0.79,-35.37 31.82,-200.39 31.82,-238.69l124.12 0 -24.04 176.45c-2.99,20.56 -7.78,42.04 -7.78,62.24l92.29 0c1.78,-21.36 6.75,-45.09 9.74,-66.64 10.11,-72.96 55.89,-428.21 66.65,-474.39l-95.48 0 -22.09 168.86c-3.12,22.51 -6.55,34.14 -6.55,60.29l-124.12 0 14.95 -115.54c4.94,-37.57 9.02,-79.89 16.87,-113.61l-92.29 0 -76.38 541.03z"/>
   <path class="fil0" d="M2207.07 933.18c112.47,0 90.26,12.16 99.61,-43.6l11.9 -86.76c2.23,-21.05 49.02,-86.96 57.17,-92.42 0.26,11.64 2.79,16.09 4.99,26.83 2.41,11.78 3.06,18.39 5.34,29.68l28.58 143.28c5.2,29.39 -8.02,22.99 88.39,22.99 0,-15.99 -3.78,-23.69 -6.66,-37.89 -2.62,-12.88 -5.03,-25.3 -7.93,-39.81l-47.55 -236.09c-1.98,-18.08 59.93,-98.22 70.41,-113.94 13.08,-19.62 23.88,-36.27 36.88,-55.41 8.83,-13.01 34.01,-44.47 37.6,-57.89l-98.66 0 -103.75 154.04c-6.75,10.13 -11.31,16.94 -17.83,26.73l-18.46 26.1c0.53,-23.43 28.08,-181.56 28.65,-206.87l-92.3 0c-4.67,20.07 -5.86,45.71 -9.54,66.83l-66.84 474.2z"/>
   <path class="fil0" d="M3696.5 621.3l-124.12 0c0,-38.52 19.1,-110.52 19.1,-155.95l124.12 0 -10.02 75.91c-3.57,20.7 -9.08,56.78 -9.08,80.04zm-260.96 311.88l92.29 0c1.01,-12.22 4.43,-28.96 6.19,-41.54l17.89 -128.51c12.85,-87.11 -19.43,-68.68 125.5,-68.64 13.99,0.01 33.67,3.11 46.1,-1.63 0.76,-0.29 55.08,-33.33 59.83,-48.38l22.75 -161.84c7.64,-51.71 11.32,-46 -19.13,-69.56 -7.57,-5.85 -17.37,-20.93 -26.8,-20.93l-251.43 0c0,22.03 -5.91,49.36 -8.62,67.76l-64.57 473.27z"/>
   <path class="fil0" d="M749.47 933.18l308.7 0c0,-12.15 6.53,-63.72 9.55,-70.01l-216.41 0 19.28 -130.3c6.92,-50.37 -17.86,-38.38 114.38,-38.38 0.53,-23.68 9.55,-50.25 9.55,-73.19l-108.2 0 22.27 -155.95 213.23 0c3.32,-14.23 9.55,-57.38 9.55,-73.2l-305.52 0 -76.38 541.03z"/>
   <path class="fil0" d="M2569.88 933.18l308.71 0c0,-29.14 6.37,-40.87 6.37,-70.01l-213.23 0 18.82 -130.75c5.27,-48.16 -12.41,-37.93 114.84,-37.93 0,-22.94 9.02,-49.51 9.55,-73.19l-108.21 0c0,-32.08 19.1,-114.84 19.1,-155.95l216.41 0c1.85,-22.14 9.55,-51.08 9.55,-73.2l-305.52 0c-0.76,9.04 -3.5,22.28 -5.03,33.17l-32.7 237.82c-8.92,51.71 -30.62,235.54 -38.66,270.04z"/>
   <path class="fil0" d="M1863.36 894.99c22.31,5.96 27.56,38.19 54.1,38.19l190.95 0 51.17 -34.75c16.81,-13.07 10.52,-34.53 18.85,-70.27l-92.3 0c-3.97,47.76 9.63,35.01 -127.3,35.01 0,-20.62 3.83,-31.71 5.82,-48.29l41.46 -299.07c2.37,-13.87 6.53,-36.99 6.83,-50.46l124.12 0c-9.49,40.73 -5.92,35.48 18.88,35.18 22.34,-0.28 44.7,-0.17 67.05,-0.17 1.65,-19.82 9.07,-45.52 9.54,-66.83 -13.86,-7.34 -15.42,-10.46 -26.25,-21.49 -8.49,-8.65 -15.52,-19.89 -31.03,-19.89l-181.41 0c-15.09,0 -36.87,21.07 -47.76,28.62 -28.85,20.01 -19.49,11.75 -26.39,53.18 -7.34,44.04 -12.92,92.89 -19.08,140.04 -4.7,36.01 -37.25,250.29 -37.25,281z"/>
   <path class="fil0" d="M3060 716.77l-28.65 216.41c106.57,0 94.13,8.61 98.42,-32.07 4.11,-39 20.49,-171.37 31.94,-197.2l58.47 -122.93c12.53,-24.91 84.47,-173.45 88.05,-188.83l-92.29 0 -22.28 44.56c-9.09,18.13 -58.1,123.62 -66.83,133.66 -1.13,-13.51 -6.33,-30.75 -8.78,-42.15l-26.23 -136.07 -95.47 0c0,16.28 4.1,25.13 7.17,40.56 2.25,11.24 5.69,28.55 7.94,39.8l48.54 244.26z"/>
   <path class="fil0" d="M259.35 859.99c11.72,-3.13 13.5,-9.84 23.63,-17.75l135.81 -118.79c14.84,-12.31 7.95,-10.28 34.6,-9.96l123.99 -0.13c15.71,-2.85 59.21,-49.23 71.18,-59.3 11.32,-9.52 40.36,-30.09 43.62,-42.31 -54.72,0 -247.3,-3.03 -296.2,-0.23 -12.65,0.72 -11.49,-0.7 -29.19,15.36 -14.03,12.72 -29.57,28.11 -43.79,38.97 -11.64,8.9 -38.9,30.9 -42.28,43.65 -8.08,30.52 -13.39,116.25 -21.37,150.49z"/>
   <path class="fil0" d="M291.18 640.39c8.65,-5.79 13.54,-12.4 22.28,-19.09l135.68 -118.93c14.13,-11.81 11.92,-8.69 36.12,-8.43 27.56,0.3 55.23,0.03 82.8,0.06 54.48,0.03 33.83,4.11 65.49,-20.45l90.46 -81.4 -296.24 -0.26c-14.21,0.32 -9.21,-1.2 -18.16,4.12l-77.82 68.58c-25.55,23.63 -17.25,-0.06 -26.08,59.85l-14.53 115.95z"/>
   <path class="fil0" d="M249.81 933.18l286.65 0.23c30,0 14.79,-3.2 58.4,-37.07l68.68 -61.82c-31.9,0 -299.21,-4.7 -314.7,3.56l-85.02 74.11c-9.18,6.81 -12.97,8.4 -14.01,20.99z"/>
   <path class="fil0" d="M3215.94 933.18l136.85 0 15.91 -127.3c-159.26,0 -133.45,-8.87 -138.19,27.3l-14.57 100z"/>
   <path class="fil0" d="M4267.94 1120.09c0.32,-0.32 0.96,0.5 0.96,0.96l0 0c-0.06,-0.06 -1.28,-0.64 -0.96,-0.96zm-80.35 83.56l22.5 0c0,-26.11 6.43,-44.52 6.43,-73.92l6.43 73.92 25.71 0 18.08 -68.69c0.23,-0.44 0.76,-1.37 1.2,-2.01 0,25.21 -6.42,43.21 -6.42,70.7l22.49 0c0,-36.89 15.3,-106.85 16.07,-141.41l-35.35 0 -17.91 75.29c-0.31,1.02 -1.24,3.94 -1.58,4.85 -0.26,0.71 -0.69,1.66 -0.94,2.28 -0.24,0.61 -0.8,1.72 -1.01,2.2 -0.21,0.48 -0.63,1.48 -1.06,2.16l-3.21 -86.78 -35.36 0c0,20.33 -4.56,47.67 -7.37,69.76 -2.25,17.72 -8.3,53.57 -8.7,71.65z"/>
   <path class="fil0" d="M3837.26 1168.3c-24.9,-0.55 -16.33,-14.56 -13.85,-33.08 2.95,-22.04 -4.15,-33.87 20.28,-34.41 0,23.22 -6.43,44.27 -6.43,67.49zm22.49 0c7.07,-30.34 2.7,-84.8 22.58,-64.92 5.02,5.03 0.14,26.71 -1.34,37.94 -2.7,20.56 0.26,26.5 -21.24,26.98zm-12.85 -89.99c-33.77,0 -42.07,5.26 -47.66,51.98 -6.01,50.22 -3.52,57.3 34.8,57.3l0 16.06 22.5 0c0.28,-12.62 -0.88,-7.53 3.21,-16.06 26.08,0 34.67,-3.48 41.62,-22.67 2.58,-7.12 23.66,-86.61 -19.12,-86.61l-9.64 0 0 -16.07c-25.26,0 -25.71,-2.13 -25.71,16.07z"/>
   <path class="fil0" d="M2757.33 1136.16l0.96 0.96c-0.07,-0.07 -1.28,-0.64 -0.96,-0.96zm-28.93 67.49l25.72 0 35.35 -86.78c-0.58,26.24 -9.64,60.11 -9.64,86.78l22.5 0c0,-37.8 15.29,-106.55 16.07,-141.41l-28.93 0 -28.93 70.71c0,-26.34 6.43,-47.58 6.43,-70.71l-22.49 0c0,33.93 -12.91,103.38 -16.08,141.41z"/>
   <path class="fil0" d="M1452.42 1136.16l0.96 0.96c-0.07,-0.07 -1.28,-0.64 -0.96,-0.96zm-28.93 67.49l25.71 0c6.29,-13.1 11.45,-28.61 17.45,-43.62l17.91 -43.16c-0.58,26.24 -9.64,60.11 -9.64,86.78l22.49 0c0,-37.8 15.3,-106.55 16.08,-141.41l-28.93 0 -28.93 70.71c0,-26.34 6.43,-47.58 6.43,-70.71l-22.5 0c0,33.93 -12.9,103.38 -16.07,141.41z"/>
   <path class="fil0" d="M375.7 1136.16l0.96 0.96c-0.06,-0.07 -1.27,-0.64 -0.96,-0.96zm-28.92 67.49l25.71 0 35.36 -86.78c-0.59,26.24 -9.65,60.11 -9.65,86.78l22.5 0c0,-37.8 15.29,-106.55 16.07,-141.41l-28.92 0c-0.98,11.72 -14.63,38.19 -20.63,53.29l-7.12 15.39c-0.23,0.43 -0.73,1.38 -1.18,2.03 0,-26.34 6.43,-47.58 6.43,-70.71l-22.5 0c0,33.93 -12.91,103.38 -16.07,141.41z"/>
   <path class="fil0" d="M1600.27 1181.15l-19.29 0c0,-24.42 2.93,-25.89 3.21,-38.56l19.29 0c0,10.73 1.11,28.9 -3.21,38.56zm-3.22 -64.28l-9.64 0 3.81 -32.05 9.05 -0.08c5.25,0 9.64,1.92 9.64,6.42 0,11.45 -1.57,25.71 -12.86,25.71zm-44.99 86.78c56.91,0 77.13,6.6 77.13,-54.63 0,-13.48 -5.84,-16.41 -12.85,-22.5 9.39,-2.51 9.68,-4.31 13.13,-12.59 25.83,-62.02 -32,-51.69 -61.35,-51.69 0,33.93 -12.9,103.38 -16.06,141.41z"/>
   <path class="fil0" d="M947.81 1203.65l25.71 0c0,-31.13 12.86,-89.54 12.86,-118.91l22.5 0c0,28.7 -12.86,92.66 -12.86,118.91l25.71 0 16.07 -141.41 -73.92 0c0,33.93 -12.91,103.38 -16.07,141.41z"/>
   <path class="fil0" d="M3300.51 1203.65l25.71 0c0,-31.13 12.86,-89.54 12.86,-118.91l22.49 0c0,28.7 -12.85,92.66 -12.85,118.91l25.71 0 16.07 -141.41 -73.92 0c0,21.23 -4.53,47.55 -7,70.13 -2.31,21.14 -7.25,49.43 -9.07,71.28z"/>
   <path class="fil0" d="M2856.97 1203.65l25.71 0c0,-20.73 6,-42.11 6.43,-61.06l22.49 0c0,21.82 -6.42,40.53 -6.42,61.06l25.71 0 16.07 -141.41 -25.71 0c-0.39,17.36 -6.43,39.77 -6.43,57.85l-22.5 0c0,-19.46 4.96,-40.19 6.43,-57.85l-25.71 0c0,33.93 -12.91,103.38 -16.07,141.41z"/>
   <path class="fil0" d="M3149.44 1123.31l-9.64 0 0 -22.5c0,-8.69 1.54,-8.87 3.22,-16.07l19.28 0c-3.49,15 1,38.57 -12.86,38.57zm-35.35 -12.86c0,12.02 4.95,18.7 9.64,25.71 -25.27,16.92 -10.84,43.2 -22.5,67.49l25.72 0c1.39,-16.74 6.09,-39.39 9.64,-54.63l19.18 -3.7c-4.46,9.99 -6.33,42.73 -6.33,58.33l22.5 0c3.34,-40.12 16.07,-105.98 16.07,-141.41 -40.47,0 -73.92,-9.22 -73.92,48.21z"/>
   <path class="fil0" d="M1969.88 1123.31l-9.64 0 0 -22.5c0,-8.69 1.53,-8.87 3.22,-16.07l19.28 0c-3.5,15 1,38.57 -12.86,38.57zm-35.35 -12.86c0,12.02 4.94,18.7 9.64,25.71 -25.27,16.92 -10.84,43.2 -22.5,67.49l25.72 0c1.39,-16.74 6.09,-39.39 9.64,-54.63l19.17 -3.7c-4.45,9.99 -6.32,42.73 -6.32,58.33l22.5 0c3.34,-40.12 16.07,-105.98 16.07,-141.41 -40.47,0 -73.92,-9.22 -73.92,48.21z"/>
   <path class="fil0" d="M3422.64 1181.15c-0.31,14.13 -2.17,10.02 -3.21,22.5 44.95,0 40.31,-18.11 49.17,-79.38 1.32,-9.08 5.23,-28.71 5.47,-39.53l16.07 0c0,40.36 -9.7,80.93 -12.86,118.91l25.72 0c0,-29.69 15.4,-111.8 16.06,-141.41 -85.01,0 -61.91,-13.11 -74.39,60.59 -8.72,51.57 -0.25,57.84 -22.03,58.32z"/>
   <path class="fil0" d="M1674.19 1203.65l25.71 0c0,-20.73 6.01,-42.11 6.43,-61.06l22.5 0c0,21.82 -6.43,40.53 -6.43,61.06l25.71 0c0,-23.32 4.35,-46.2 7.01,-70.13 2.18,-19.66 4.69,-52.51 9.06,-71.28l-25.71 0c-0.39,17.36 -6.43,39.77 -6.43,57.85l-22.5 0c0,-19.46 4.96,-40.19 6.43,-57.85l-25.71 0c0,33.93 -12.91,103.38 -16.07,141.41z"/>
   <path class="fil0" d="M1102.09 1184.37c-3.81,-16.32 0.97,-37.81 3.21,-57.85 4.59,-41.18 0.29,-44.5 22.5,-45 3.47,14.9 -3.62,65.45 -6.33,86.88 -1.88,14.76 -3.47,15.62 -19.38,15.97zm-25.72 -6.43c0,36.07 41.41,34.55 58.84,17.06 7.46,-7.49 10.21,-18.83 11.43,-30.36 5.6,-53.16 22.96,-105.62 -25.27,-105.62 -23.4,0 -35.68,19.09 -38.13,42.23 -2.87,27.22 -6.87,48.66 -6.87,76.69z"/>
   <path class="fil0" d="M3981.89 1184.37c-3.47,-14.9 3.62,-65.45 6.33,-86.88 1.87,-14.76 3.47,-15.62 19.38,-15.97 3.47,14.9 -3.62,65.45 -6.33,86.88 -1.87,14.76 -3.47,15.62 -19.38,15.97zm-25.71 -6.43c0,39.52 64.32,43 70.26,-13.3 5.61,-53.16 22.97,-105.62 -25.26,-105.62 -23.41,0 -35.69,19.09 -38.13,42.23 -2.87,27.22 -6.87,48.66 -6.87,76.69z"/>
   <path class="fil0" d="M2275.22 1184.37c-3.47,-14.9 3.62,-65.45 6.33,-86.88 1.87,-14.76 3.47,-15.62 19.38,-15.97 3.47,14.9 -3.62,65.45 -6.33,86.88 -1.87,14.76 -3.47,15.62 -19.38,15.97zm-25.71 -6.43c0,36.07 41.4,34.55 58.84,17.06 15.27,-15.33 18.29,-88.74 18.29,-110.26 0,-33.11 -64.13,-41.56 -70.26,16.51 -2.87,27.22 -6.87,48.66 -6.87,76.69z"/>
   <path class="fil0" d="M520.34 1181.15l-19.29 0c0,-19.54 3.22,-23.44 3.22,-41.78l19.28 0c3.04,13.05 0.35,26.51 -3.21,41.78zm-48.21 22.5c65.45,0 77.13,4.35 77.13,-61.06 0,-26.5 -26.17,-25.72 -41.78,-25.72l3.81 -32.05c45.77,-0.12 41.19,4.24 41.19,-22.58l-64.28 0 -16.07 141.41z"/>
   <path class="fil0" d="M2365.21 1203.65l25.72 0c0,-13.09 1.65,-18.55 2.76,-29.37 1.81,-17.67 -2.88,-13.37 10.09,-22.05 1.36,16.28 9.09,35.25 12.86,51.42l25.71 0c-2.96,-6.16 -21.79,-72.42 -21.46,-76.76 0.63,-8.24 31.12,-55.08 37.53,-64.65l-25.71 0 -32.14 54.63c0,-16.64 5.12,-38.92 6.43,-54.63l-25.72 0c0,33.93 -12.9,103.38 -16.07,141.41z"/>
   <path class="fil0" d="M2490.56 1203.65l25.71 0c0,-13.09 1.66,-18.55 2.77,-29.37 1.81,-17.67 -2.88,-13.37 10.09,-22.05 1.36,16.28 9.09,35.25 12.86,51.42l25.71 0c-2.96,-6.16 -21.79,-72.42 -21.46,-76.76 0.63,-8.24 31.12,-55.08 37.53,-64.65l-25.71 0 -32.14 54.63c0,-16.64 5.12,-38.92 6.43,-54.63l-25.72 0c0,33.93 -12.9,103.38 -16.07,141.41z"/>
   <path class="fil0" d="M221.43 1203.65l25.71 0c0,-13.09 1.65,-18.55 2.76,-29.37 1.81,-17.67 -2.87,-13.37 10.1,-22.05 1.35,16.28 9.09,35.25 12.85,51.42l25.72 0c-2.96,-6.16 -21.8,-72.42 -21.46,-76.76 0.63,-8.24 31.12,-55.08 37.53,-64.65l-25.72 0 -32.13 54.63c0,-16.64 5.11,-38.92 6.42,-54.63l-25.71 0c0,33.93 -12.91,103.38 -16.07,141.41z"/>
   <path class="fil0" d="M4380.43 1104.02c5.42,3.76 6.43,0.46 6.43,9.64l0 45 -19.28 0c3.77,-16.19 12.44,-36.11 12.85,-54.64zm-48.21 99.63l25.72 0 3.76 -25.62 25.16 -0.09 3.22 25.71 22.5 0 -3.11 -106.17c-0.02,-17.61 -3.01,-21.34 -3.32,-35.24l-35.36 0 -18.14 71.84c-6.09,20.85 -12.52,53.11 -20.43,69.57z"/>
   <path class="fil0" d="M1841.32 1104.02c5.42,3.76 6.43,0.46 6.43,9.64l0 45 -19.29 0c3.77,-16.19 12.45,-36.11 12.86,-54.64zm-48.21 99.63l25.71 0 3.76 -25.62 25.17 -0.09 3.21 25.71 22.5 0 -3.1 -106.17c-0.02,-17.61 -3.02,-21.34 -3.33,-35.24l-35.35 0c-0.9,10.79 -5.33,25.62 -8.51,36.49 -7.41,25.33 -22.38,88.91 -30.06,104.92z"/>
   <path class="fil0" d="M3024.1 1104.02c5.41,3.76 6.43,0.46 6.43,9.64l0 45 -19.29 0c3.77,-16.19 12.45,-36.11 12.86,-54.64zm-48.21 99.63l25.71 0 3.76 -25.62 25.17 -0.09 3.21 25.71 22.5 0c0,-11.81 0.12,-23.66 0.11,-35.46l-6.54 -105.95 -35.36 0c-1.47,17.69 -34.04,131.98 -38.56,141.41z"/>
   <path class="fil0" d="M3599.42 1104.02c5.42,3.76 6.43,0.46 6.43,9.64l0 45 -19.29 0c3.77,-16.19 12.44,-36.11 12.86,-54.64zm-48.21 99.63l25.71 0 3.76 -25.62 25.17 -0.09 3.21 25.71 22.5 0c0,-11.81 0.13,-23.66 0.11,-35.46l-6.54 -105.95 -35.35 0c-1.48,17.69 -34.05,131.98 -38.57,141.41z"/>
   <path class="fil0" d="M2114.52 1203.65l22.5 0c3.7,-15.92 15.09,-30.2 19.28,-48.21 9.95,7.29 5.06,4.73 8.53,20.4 2.49,11.27 4.32,15.04 4.32,27.81l25.72 0c-0.46,-20.8 -16.26,-63.74 -13.54,-75.31 1.24,-5.25 11.55,-26.5 14.61,-32.89 5.89,-12.25 9.1,-22.07 15,-33.21l-22.5 0 -18.38 39.48c-3.87,5.98 -1.32,2.29 -4.12,5.51 -3.39,-14.54 -6.25,-30.45 -9.64,-44.99l-25.72 0c2.92,6.07 7.36,29.23 8.85,36.15 14.9,69.52 -11.33,46.97 -24.91,105.26z"/>
   <path class="fil0" d="M832.1 1177.94c0,41.87 69.02,47.01 70.71,-28.92 -52.15,0 -6.12,15.78 -35.35,35.35 -17.87,-4.77 -12.36,-9.13 -7.03,-52.02 1.71,-13.71 2.28,-19.25 3.53,-31.83 1.67,-16.82 1.78,-18.6 19.57,-19 4.64,19.93 0.44,8.98 0,28.93l22.5 0c16.49,-70.82 -60.97,-66.9 -67.05,-9.2 -2.88,27.22 -6.88,48.66 -6.88,76.69z"/>
   <path class="fil0" d="M4107.24 1129.73l3.21 -44.99c20.66,0 19.84,-2.9 16.47,25.88 -1.98,16.87 -1.65,18.71 -19.68,19.11zm-35.36 73.92l25.72 0c0,-64.22 9.44,-49.75 24.32,-52.82 36.78,-7.56 34.47,-69.73 25.57,-80.63 -9.95,-12.17 -36.09,-7.96 -59.53,-7.96 0,21.23 -4.53,47.55 -7,70.13 -2.32,21.14 -7.26,49.43 -9.08,71.28z"/>
   <path class="fil0" d="M748.54 1129.73l3.21 -44.99c18.76,0 17.27,-0.93 18.36,8.85 0.05,0.41 -1.36,12.49 -1.9,17.03 -1.97,16.87 -1.64,18.71 -19.67,19.11zm-35.36 73.92l25.71 0c0,-64.22 9.45,-49.75 24.33,-52.82 38.02,-7.82 41.52,-88.59 11.03,-88.59l-45 0c0,33.93 -12.9,103.38 -16.07,141.41z"/>
   <path class="fil0" d="M1230.65 1129.73l3.21 -44.99c20.66,0 19.83,-2.9 16.47,25.88 -1.98,16.87 -1.65,18.71 -19.68,19.11zm-35.36 73.92l25.71 0c0,-64.22 9.45,-49.75 24.32,-52.82 38.03,-7.82 41.53,-88.59 11.04,-88.59l-45 0c0,33.93 -12.9,103.38 -16.07,141.41z"/>
   <path class="fil0" d="M2612.7 1203.65l64.28 0 0 -22.5 -35.36 0c0,-24.42 2.94,-25.89 3.22,-38.56l32.14 0 0 -22.5 -28.93 0c0,-17.84 3.22,-19.06 3.22,-35.35l38.56 0c0.32,-14.13 2.18,-10.02 3.22,-22.5l-64.28 0c0,33.93 -12.91,103.38 -16.07,141.41z"/>
   <path class="fil0" d="M597.47 1203.65l64.29 0 0 -22.5 -35.36 0c0,-24.42 2.93,-25.89 3.22,-38.56l32.14 0 0 -22.5 -28.93 0c0,-17.84 3.21,-19.06 3.21,-35.35l38.57 0c0.32,-14.13 2.18,-10.02 3.22,-22.5l-64.29 0c0,33.93 -12.9,103.38 -16.07,141.41z"/>
   <path class="fil0" d="M4692.64 478.08l22.28 0 0 -47.74c6.65,4.46 12.04,13.97 19.73,15 11.19,1.5 11.89,-8.47 21.64,-15l0 47.74 22.28 0 0 -85.93c-33.47,0 -21.93,10.31 -44.56,25.46 -17.27,-25.79 -24.4,-25.46 -41.37,-25.46l0 85.93z"/>
   <path class="fil0" d="M3689.41 1084.74l22.5 0c-5.44,11.34 -10.17,106.61 -16.07,118.91l25.71 0c0.67,-30.16 12.86,-84.17 12.86,-118.91 28.23,0 25.71,2.68 25.71,-22.5l-70.71 0 0 22.5z"/>
   <path class="fil0" d="M1320.64 1084.74l22.5 0c-5.45,11.34 -10.16,106.61 -16.07,118.91l25.71 0c0.67,-30.16 12.86,-84.17 12.86,-118.91 28.23,0 25.71,2.68 25.71,-22.5l-70.71 0 0 22.5z"/>
   <path class="fil0" d="M4606.72 404.88c0,12.38 8.16,9.55 28.63,9.55l0 63.65 22.28 0 0 -63.65 25.46 0 0 -22.28 -76.37 0 0 12.73z"/>
   <path class="fil0" d="M2770.19 1052.59c22.12,0 37.99,3.19 38.57,-22.49 -22.37,0.5 -14.84,9.64 -22.5,9.64 -18.29,0 4.96,-9.64 -25.72,-9.64 0.41,18.36 1.62,10.51 9.65,22.49z"/>
  </g>
 </g>
</svg>
