<?xml version="1.0" encoding="UTF-8"?>
<!DOCTYPE svg PUBLIC "-//W3C//DTD SVG 1.1//EN" "http://www.w3.org/Graphics/SVG/1.1/DTD/svg11.dtd">
<!-- Creator: CorelDRAW 2021.5 -->
<svg xmlns="http://www.w3.org/2000/svg" xml:space="preserve" width="72px" height="72px" version="1.1" style="shape-rendering:geometricPrecision; text-rendering:geometricPrecision; image-rendering:optimizeQuality; fill-rule:evenodd; clip-rule:evenodd"
viewBox="0 0 72 72"
 xmlns:xlink="http://www.w3.org/1999/xlink"
 xmlns:xodm="http://www.corel.com/coreldraw/odm/2003">
 <defs>
  <style type="text/css">
   <![CDATA[
    .fil0 {fill:#E6E6E6}
   ]]>
  </style>
 </defs>
 <g id="Слой_x0020_1">
  <metadata id="CorelCorpID_0Corel-Layer"/>
  <path class="fil0" d="M11.35 36.29c0,-14.06 10.88,-24.94 24.94,-24.94 13.29,0 24.36,10.94 24.36,24.94 0,13.29 -10.94,24.36 -24.94,24.36 -13.23,0 -24.36,-11.13 -24.36,-24.36zm21.46 -12.76l0 12.47c0,1.69 1.5,3.19 3.19,3.19l9.28 0c4.17,0 4.17,-6.38 0,-6.38l-6.09 0 0 -9.28c0,-4 -6.38,-4 -6.38,0zm-27.84 12.18c0,17.49 13.84,31.32 31.32,31.32 16.68,0 30.74,-13.89 30.74,-31.32 0,-16.73 -13.85,-30.74 -31.32,-30.74 -16.69,0 -30.74,14.05 -30.74,30.74z"/>
 </g>
</svg>
