<?xml version="1.0" encoding="UTF-8"?>
<!DOCTYPE svg PUBLIC "-//W3C//DTD SVG 1.1//EN" "http://www.w3.org/Graphics/SVG/1.1/DTD/svg11.dtd">
<!-- Creator: CorelDRAW 2021.5 -->
<svg xmlns="http://www.w3.org/2000/svg" xml:space="preserve" width="2100px" height="2110px" version="1.1" style="shape-rendering:geometricPrecision; text-rendering:geometricPrecision; image-rendering:optimizeQuality; fill-rule:evenodd; clip-rule:evenodd"
viewBox="0 0 2100 2110"
 xmlns:xlink="http://www.w3.org/1999/xlink"
 xmlns:xodm="http://www.corel.com/coreldraw/odm/2003">
 <defs>
  <style type="text/css">
   <![CDATA[
    .fil0 {fill:#EBECEC}
   ]]>
  </style>
 </defs>
 <g id="Слой_x0020_1">
  <metadata id="CorelCorpID_0Corel-Layer"/>
  <g id="_1771979077440">
   <path class="fil0" d="M8.059 1824.247l0 195.364c0,41.596 35.735,77.331 77.332,77.331l476.199 0c87.423,0 176.344,-44.152 232.988,-96.69 62.439,-57.907 136.237,-176.305 187.043,-252.526 15.505,-23.262 29.39,-41.986 44.771,-65.12 7.838,-11.79 15.711,-23.514 23.608,-35.186 7.898,11.673 15.771,23.397 23.61,35.186 15.38,23.135 29.265,41.858 44.772,65.12 50.804,76.221 124.604,194.619 187.043,252.526 56.641,52.538 145.563,96.69 232.987,96.69l476.2 0c41.596,0 77.331,-35.734 77.331,-77.331l0 -195.364c0,-34.18 -24.986,-60.909 -50.298,-71.806 -27.728,-11.935 -77.205,-5.528 -112.506,-5.528l-476.211 0.015c-82.957,0.307 -130.16,-21.922 -172.028,-64.039 -20.106,-20.225 -102.251,-141.607 -125.094,-176.096l-4.577 -6.69c17.945,-26.119 35.795,-52.323 53.435,-78.796l269.436 -393.987c7.813,-11.72 13.053,-19.588 21.144,-31.764l558.405 -817.286c24.419,-35.239 38.292,-41.03 38.292,-87.88 0,-42.784 -34.574,-72.751 -72.897,-77.331l-20.412 0c-19.217,2.354 -38.029,11.532 -52.642,29.064l-61.609 88.984c-15.611,23.572 -31.664,45.353 -48.043,69.986 -170.097,255.853 -359.236,519.466 -530.776,775.723 -16.588,24.776 -31.405,46.728 -47.974,70.058 -16.881,23.772 -31.989,49.462 -48.869,73.233l-158.72 232.017 -158.718 -232.017c-16.88,-23.771 -31.988,-49.461 -48.869,-73.233 -16.568,-23.33 -31.387,-45.282 -47.974,-70.059 -171.538,-256.256 -360.679,-519.869 -530.776,-775.722 -16.377,-24.633 -32.432,-46.414 -48.043,-69.986l-61.609 -88.984c-14.614,-17.531 -33.424,-26.708 -52.643,-29.064l-20.412 0c-38.323,4.58 -72.896,34.547 -72.896,77.331 0,46.851 13.873,52.642 38.291,87.88l558.406 817.285c8.09,12.178 13.331,20.045 21.145,31.765l269.435 393.987c17.639,26.474 35.49,52.678 53.435,78.796l-4.578 6.69c-22.841,34.488 -104.987,155.871 -125.092,176.096 -41.868,42.117 -89.07,64.346 -172.028,64.039l-476.212 -0.015c-35.299,0 -84.778,-6.407 -112.506,5.528 -25.311,10.896 -50.297,37.627 -50.297,71.806l0.001 0z"/>
  </g>
 </g>
</svg>
