<?xml version="1.0" encoding="UTF-8"?>
<!DOCTYPE svg PUBLIC "-//W3C//DTD SVG 1.1//EN" "http://www.w3.org/Graphics/SVG/1.1/DTD/svg11.dtd">
<!-- Creator: CorelDRAW 2021.5 -->
<svg xmlns="http://www.w3.org/2000/svg" xml:space="preserve" width="2980px" height="2110px" version="1.1" style="shape-rendering:geometricPrecision; text-rendering:geometricPrecision; image-rendering:optimizeQuality; fill-rule:evenodd; clip-rule:evenodd"
viewBox="0 0 2980 2110"
 xmlns:xlink="http://www.w3.org/1999/xlink"
 xmlns:xodm="http://www.corel.com/coreldraw/odm/2003">
 <defs>
  <style type="text/css">
   <![CDATA[
    .str0 {stroke:white;stroke-width:115;stroke-miterlimit:22.9256}
    .fil0 {fill:url(#id0)}
   ]]>
  </style>
  <linearGradient id="id0" gradientUnits="userSpaceOnUse" x1="468.716" y1="275.179" x2="2511.284" y2="1834.821">
   <stop offset="0" style="stop-opacity:1; stop-color:#4D68D9"/>
   <stop offset="1" style="stop-opacity:1; stop-color:#A96AB6"/>
  </linearGradient>
 </defs>
 <g id="Слой_x0020_1">
  <metadata id="CorelCorpID_0Corel-Layer"/>
  <path class="fil0 str0" d="M2205.411 61.851c225.705,0 394.181,109.714 501.955,287.819 64.452,106.511 140.078,474.627 163.384,614.775 39.068,234.916 92.471,620.982 -24.568,853.156 -34.665,68.758 -68.465,117.114 -130.778,159.577 -21.071,14.356 -39.349,25.433 -62.842,35.887 -254.389,113.232 -454.916,-60.126 -588.904,-253.142 -17.352,-24.993 -79.02,-123.048 -84.727,-147.555 -116.964,0 -191.384,-17.648 -278.828,-75.413 -12.406,-8.197 -21.715,-14.761 -33.903,-24.164 -8.992,-6.934 -25.324,-22.374 -35.7,-22.374l-278.746 0c-31.927,0 -95.249,121.951 -348.431,121.951 -11.975,51.4 -160.394,261.708 -220.67,307.779 -13.608,10.406 -17.538,16.007 -30.748,27.325 -68.699,58.836 -165.669,100.435 -265.419,100.435 -82.265,0 -161.903,-30.289 -223.105,-73.061 -61.916,-43.266 -94.679,-92.224 -129.27,-161.087 -21.693,-43.189 -36.969,-94.701 -46.901,-144.736 -69.59,-350.578 22.916,-691.457 91.972,-1025.98 31.015,-150.221 70.934,-295.815 180.998,-405.523 217.399,-216.692 512.338,-236.351 756.836,-45.46 18.849,14.719 34.075,26.152 50.474,42.448 40.125,39.864 49.5,77.054 108.769,77.054l429.736 0c62.71,0 73.515,-44.925 111.697,-79.933 102.918,-94.338 236.159,-169.778 387.719,-169.778l0 0zm-771.564 517.002l112.306 0 0 260.867 260.867 0 0 112.305 -260.867 0 0 260.868 -112.306 0 0 -260.868 -260.867 0 0 -112.305 260.867 0 0 -260.867z"/>
 </g>
</svg>
