<svg width="33" height="37" viewBox="0 0 33 37" fill="none" xmlns="http://www.w3.org/2000/svg">
<path d="M16.2594 4.20087C13.5188 4.20087 10.8905 5.27499 8.95261 7.18695L8.5474 7.58674C6.60952 9.4987 5.52083 12.0919 5.52083 14.7958V16.668C5.52083 20.1094 4.13519 23.4098 1.66873 25.8433C1.24055 26.2657 1 26.8387 1 27.4361C1 28.6802 2.0222 29.6887 3.28315 29.6887H29.7169C30.9778 29.6887 32 28.6802 32 27.4361C32 26.8387 31.7594 26.2657 31.3313 25.8433C28.8648 23.4098 27.4792 20.1094 27.4792 16.668V14.7958C27.4792 12.0919 26.3905 9.4987 24.4526 7.58674L24.0474 7.18695C22.1095 5.275 19.4812 4.20087 16.7406 4.20087M16.2594 4.20087H16.7406M16.2594 4.20087C15.9068 4.20087 15.556 4.21865 15.2083 4.25371V2.28928C15.2083 1.58546 15.7866 1.01489 16.5 1.01489C17.2134 1.01489 17.7917 1.58546 17.7917 2.28928V4.25371C17.444 4.21865 17.0932 4.20087 16.7406 4.20087M12.0255 31.6003C12.0255 30.927 12.1809 30.2756 12.4667 29.6887H20.5333C20.8191 30.2756 20.9745 30.927 20.9745 31.6003C20.9745 33.1775 20.1216 34.6348 18.7372 35.4234C17.3528 36.212 15.6472 36.212 14.2628 35.4234C12.8784 34.6348 12.0255 33.1775 12.0255 31.6003Z" stroke="#949494" stroke-linecap="round" stroke-linejoin="round"/>
</svg>
