<svg width="30" height="21" viewBox="0 0 30 21" fill="none" xmlns="http://www.w3.org/2000/svg">
<path d="M4.68103 17.625V19C4.68103 19.5523 4.23332 20 3.68104 20H2C1.44772 20 1 19.5523 1 19V2C1 1.44772 1.44771 1 2 1H10.6552H17.1724H21.5172H28C28.5523 1 29 1.44772 29 2V19C29 19.5523 28.5523 20 28 20H26.319C25.7667 20 25.319 19.5523 25.319 19V17.625M4.68103 17.625H6.7931H11.4799M4.68103 17.625V4.95076C4.68103 4.39847 5.12875 3.95076 5.68103 3.95076H11.4799M11.4799 17.625H15H18.5201M11.4799 17.625V3.95076M11.4799 3.95076H15H18.5201M4.68103 8.53523H15H18.5201M4.68103 13.1485H15H18.5201M25.319 17.625H23.2069H18.5201M25.319 17.625V15.3867V13.1485M18.5201 17.625V13.1485M18.5201 3.95076H23.2069H24.319C24.8712 3.95076 25.319 4.39847 25.319 4.95076V7.03826V8.53523M18.5201 3.95076V7.03826V8.53523M18.5201 13.1485V8.53523M18.5201 13.1485H23.2069H25.319M18.5201 8.53523H23.2069H25.319M25.319 8.53523V13.1485" stroke="white" stroke-width="0.5"/>
</svg>
