<svg width="22" height="21" viewBox="0 0 22 21" fill="none" xmlns="http://www.w3.org/2000/svg">
<path d="M7.25872 18.7573L7.45966 18.906L7.25872 18.7573ZM19.613 1.78753L19.4236 1.62441L19.4168 1.63226L19.4107 1.64065L19.613 1.78753ZM19.4409 1.14474L19.5966 0.94918V0.949179L19.4409 1.14474ZM18.7091 1.18759L18.5089 1.03768L18.506 1.04171L18.7091 1.18759ZM7.08653 17.086L7.28368 17.2397L7.08653 17.086ZM1.40441 18.0288L1.25986 17.8248H1.25986L1.40441 18.0288ZM1.10309 19.3572L0.861604 19.4219H0.861604L1.10309 19.3572ZM10.0361 13.1435L10.2433 13.0037L10.0448 12.7096L9.83465 12.9954L10.0361 13.1435ZM10.6723 14.0863L10.8744 14.2335L10.9777 14.0918L10.8796 13.9464L10.6723 14.0863ZM11.3481 11.3531L11.1463 11.2056L11.0405 11.3503L11.1437 11.4969L11.3481 11.3531ZM11.9938 12.2711L11.7894 12.4149L11.9904 12.7007L12.196 12.4182L11.9938 12.2711ZM3.77196 20.25C5.69644 20.25 6.74636 19.8697 7.45966 18.906L7.05778 18.6085C6.48472 19.3828 5.63557 19.75 3.77196 19.75V20.25ZM19.613 1.78753C19.8025 1.95065 19.8026 1.95052 19.8027 1.95039C19.8028 1.95034 19.8029 1.95021 19.803 1.95012C19.8031 1.94993 19.8033 1.94975 19.8034 1.94955C19.8038 1.94917 19.8041 1.94876 19.8045 1.94833C19.8052 1.94747 19.806 1.94652 19.8068 1.94549C19.8085 1.94342 19.8105 1.941 19.8126 1.93824C19.817 1.93272 19.8222 1.92579 19.828 1.91751C19.8396 1.90101 19.8538 1.87869 19.8683 1.85105C19.8969 1.79632 19.9283 1.71647 19.9373 1.61742C19.9571 1.40105 19.8652 1.1631 19.5966 0.94918L19.2851 1.34031C19.447 1.4692 19.4412 1.55264 19.4394 1.57196C19.4377 1.59075 19.4315 1.60732 19.4251 1.61955C19.422 1.62539 19.4195 1.62918 19.4186 1.63043C19.4182 1.63101 19.4183 1.63086 19.419 1.62991C19.4194 1.62943 19.42 1.62873 19.4207 1.62782C19.4211 1.62737 19.4215 1.62686 19.422 1.62629C19.4222 1.626 19.4225 1.6257 19.4228 1.62539C19.4229 1.62523 19.423 1.62507 19.4232 1.62491C19.4232 1.62483 19.4233 1.6247 19.4234 1.62466C19.4235 1.62453 19.4236 1.62441 19.613 1.78753ZM19.5966 0.949179C19.4579 0.838715 19.3164 0.776014 19.1759 0.756556C19.0353 0.737085 18.9119 0.76318 18.813 0.805114C18.7159 0.846285 18.6421 0.902647 18.5935 0.946942C18.5687 0.96946 18.5493 0.989963 18.5353 1.00572C18.5283 1.01364 18.5226 1.02046 18.5182 1.02588C18.516 1.02858 18.5142 1.03095 18.5126 1.03293C18.5119 1.03393 18.5112 1.03482 18.5106 1.03562C18.5103 1.03602 18.51 1.03639 18.5097 1.03674C18.5096 1.03692 18.5094 1.03709 18.5093 1.03725C18.5093 1.03733 18.5092 1.03745 18.5091 1.03749C18.5091 1.0376 18.509 1.03771 18.7091 1.18759C18.9092 1.33746 18.9091 1.33757 18.909 1.33768C18.909 1.33771 18.9089 1.33782 18.9088 1.33789C18.9087 1.33803 18.9086 1.33816 18.9085 1.33829C18.9084 1.33854 18.9082 1.33877 18.908 1.33899C18.9077 1.33941 18.9074 1.33975 18.9072 1.34001C18.9068 1.34053 18.9066 1.34074 18.9067 1.34067C18.9068 1.34051 18.9079 1.33925 18.9097 1.33713C18.9135 1.33283 18.9204 1.32544 18.9301 1.31668C18.9501 1.29841 18.9771 1.27862 19.0082 1.26545C19.0375 1.25304 19.0697 1.24661 19.1073 1.25183C19.1451 1.25706 19.2047 1.27626 19.2851 1.34031L19.5966 0.949179ZM6.88939 16.9323C6.68659 17.1923 6.3226 17.3776 5.82675 17.4945C5.3363 17.6101 4.75362 17.6502 4.15938 17.6502V18.1502C4.77044 18.1502 5.39689 18.1095 5.94146 17.9812C6.48065 17.8541 6.97758 17.6323 7.28368 17.2397L6.88939 16.9323ZM4.15938 17.6502C3.94429 17.6502 3.7165 17.6266 3.47473 17.597C3.23773 17.568 2.98308 17.5326 2.73561 17.5147C2.24195 17.4789 1.71038 17.5055 1.25986 17.8248L1.54896 18.2327C1.85279 18.0174 2.23572 17.9798 2.69947 18.0134C2.9307 18.0301 3.16548 18.0629 3.41398 18.0933C3.65771 18.1231 3.91149 18.1502 4.15938 18.1502V17.6502ZM1.25986 17.8248C0.987992 18.0175 0.821072 18.2405 0.767965 18.5312C0.718638 18.8013 0.774943 19.0984 0.861604 19.4219L1.34458 19.2925C1.25906 18.9733 1.23231 18.7717 1.25983 18.6211C1.28357 18.4911 1.3534 18.3713 1.54896 18.2327L1.25986 17.8248ZM0.861604 19.4219C0.930265 19.6782 1.12562 19.8448 1.33961 19.9522C1.55335 20.0596 1.81707 20.1249 2.08813 20.1667C2.63113 20.2506 3.27557 20.25 3.77196 20.25V19.75C3.26617 19.75 2.66227 19.7494 2.16442 19.6726C1.91506 19.6341 1.71023 19.5788 1.56401 19.5054C1.41803 19.4321 1.36201 19.3576 1.34458 19.2925L0.861604 19.4219ZM9.83465 12.9954C8.59954 14.6752 7.5327 16.1073 6.88939 16.9323L7.28368 17.2397C7.93192 16.4085 9.00268 14.9709 10.2375 13.2916L9.83465 12.9954ZM7.45966 18.906C7.99682 18.1803 9.3033 16.3906 10.8744 14.2335L10.4703 13.9391C8.89867 16.0969 7.59352 17.8847 7.05778 18.6085L7.45966 18.906ZM9.82884 13.2834L10.4651 14.2262L10.8796 13.9464L10.2433 13.0037L9.82884 13.2834ZM18.7091 1.18759C18.506 1.04171 18.506 1.04173 18.506 1.04177C18.506 1.04182 18.5059 1.04188 18.5059 1.04196C18.5057 1.04213 18.5056 1.04238 18.5053 1.04271C18.5048 1.04337 18.5041 1.04437 18.5032 1.0457C18.5013 1.04835 18.4984 1.05232 18.4946 1.05758C18.4871 1.0681 18.4758 1.08379 18.4609 1.10446C18.4312 1.14579 18.3872 1.20702 18.33 1.28663C18.2155 1.44583 18.0481 1.67849 17.8365 1.9723C17.4135 2.55992 16.8137 3.39213 16.1073 4.37045C14.6942 6.32715 12.8543 8.86811 11.1463 11.2056L11.55 11.5006C13.2588 9.16201 15.0994 6.62021 16.5126 4.66317C17.2192 3.68463 17.8191 2.85222 18.2423 2.26445C18.4539 1.97056 18.6213 1.73783 18.7359 1.57856C18.7932 1.49893 18.8372 1.43766 18.8669 1.3963C18.8818 1.37561 18.8931 1.35991 18.9007 1.34937C18.9045 1.3441 18.9073 1.34013 18.9092 1.33747C18.9102 1.33614 18.9109 1.33514 18.9114 1.33447C18.9116 1.33413 18.9118 1.33388 18.9119 1.33371C18.912 1.33363 18.912 1.33357 18.9121 1.33352C18.9121 1.33348 18.9121 1.33346 18.7091 1.18759ZM12.196 12.4182C13.9581 9.99675 15.8629 7.3758 17.3272 5.36023C18.0594 4.35244 18.6814 3.49598 19.1204 2.89148C19.3399 2.58922 19.5136 2.34995 19.6325 2.18625C19.6919 2.1044 19.7376 2.04144 19.7685 1.99894C19.7839 1.97769 19.7956 1.96155 19.8035 1.95073C19.8074 1.94532 19.8104 1.94124 19.8124 1.93851C19.8134 1.93714 19.8141 1.93611 19.8146 1.93543C19.8149 1.93509 19.815 1.93483 19.8152 1.93466C19.8152 1.93457 19.8153 1.93451 19.8153 1.93446C19.8153 1.93442 19.8154 1.9344 19.613 1.78753C19.4107 1.64065 19.4107 1.64068 19.4107 1.64072C19.4107 1.64076 19.4106 1.64083 19.4106 1.64091C19.4104 1.64108 19.4102 1.64134 19.41 1.64168C19.4095 1.64237 19.4087 1.6434 19.4078 1.64476C19.4058 1.64749 19.4028 1.65157 19.3989 1.65698C19.391 1.6678 19.3793 1.68393 19.3639 1.70518C19.333 1.74767 19.2873 1.81063 19.2279 1.89248C19.109 2.05618 18.9353 2.29543 18.7158 2.59768C18.2769 3.20216 17.6548 4.05859 16.9227 5.06635C15.4584 7.08187 13.5537 9.7027 11.7917 12.124L12.196 12.4182ZM11.1437 11.4969L11.7894 12.4149L12.1983 12.1272L11.5526 11.2093L11.1437 11.4969Z" fill="white"/>
<path d="M14.7408 18.7573L14.5398 18.906L14.7408 18.7573ZM2.38647 1.78753L2.57592 1.62441L2.58268 1.63226L2.58877 1.64065L2.38647 1.78753ZM2.55866 1.14474L2.40292 0.94918V0.949179L2.55866 1.14474ZM3.29044 1.18759L3.49058 1.03768L3.49347 1.04171L3.29044 1.18759ZM14.913 17.086L14.7158 17.2397L14.913 17.086ZM20.5951 18.0288L20.7397 17.8248H20.7397L20.5951 18.0288ZM20.8964 19.3572L21.1379 19.4219H21.1379L20.8964 19.3572ZM18.2276 20.25C16.3031 20.25 15.2531 19.8697 14.5398 18.906L14.9417 18.6085C15.5148 19.3828 16.3639 19.75 18.2276 19.75V20.25ZM14.5398 18.906C13.6351 17.6836 10.5456 13.44 7.68344 9.50343C6.25212 7.53484 4.8773 5.64258 3.86032 4.24248C3.35182 3.54243 2.93278 2.96541 2.64087 2.5634C2.49491 2.3624 2.38073 2.20515 2.30305 2.09815C2.2642 2.04465 2.23448 2.00371 2.21447 1.97615C2.20446 1.96237 2.19689 1.95193 2.19181 1.94494C2.18927 1.94144 2.18736 1.93881 2.18608 1.93705C2.18544 1.93617 2.18496 1.9355 2.18464 1.93506C2.18448 1.93484 2.18436 1.93467 2.18428 1.93456C2.1842 1.93445 2.18416 1.9344 2.38647 1.78753C2.58877 1.64065 2.58881 1.64071 2.58889 1.64082C2.58897 1.64093 2.58909 1.6411 2.58925 1.64132C2.58957 1.64176 2.59006 1.64242 2.59069 1.6433C2.59197 1.64506 2.59389 1.6477 2.59642 1.65119C2.6015 1.65818 2.60908 1.66862 2.61908 1.6824C2.63909 1.70996 2.66881 1.75089 2.70765 1.80439C2.78533 1.91138 2.8995 2.06862 3.04545 2.26962C3.33736 2.6716 3.75638 3.2486 4.26486 3.94863C5.28182 5.3487 6.65659 7.24089 8.08785 9.2094C10.9509 13.1471 14.0386 17.3883 14.9417 18.6085L14.5398 18.906ZM2.38647 1.78753C2.19701 1.95065 2.1969 1.95052 2.19679 1.95039C2.19675 1.95034 2.19664 1.95021 2.19656 1.95012C2.1964 1.94993 2.19624 1.94975 2.19608 1.94955C2.19575 1.94917 2.1954 1.94876 2.19504 1.94833C2.19432 1.94747 2.19353 1.94652 2.19268 1.94549C2.19098 1.94342 2.18903 1.941 2.18686 1.93824C2.18254 1.93272 2.17733 1.92579 2.17152 1.91751C2.15996 1.90101 2.14568 1.87869 2.13124 1.85105C2.10266 1.79632 2.07121 1.71647 2.06217 1.61742C2.04241 1.40105 2.1343 1.1631 2.40292 0.94918L2.7144 1.34031C2.55255 1.4692 2.55834 1.55264 2.5601 1.57196C2.56182 1.59075 2.56804 1.60732 2.57443 1.61955C2.57747 1.62539 2.58002 1.62918 2.58089 1.63043C2.5813 1.63101 2.58122 1.63086 2.58048 1.62991C2.5801 1.62943 2.57955 1.62873 2.5788 1.62782C2.57842 1.62737 2.578 1.62686 2.57752 1.62629C2.57728 1.626 2.57703 1.6257 2.57676 1.62539C2.57663 1.62523 2.57649 1.62507 2.57635 1.62491C2.57628 1.62483 2.57617 1.6247 2.57614 1.62466C2.57603 1.62453 2.57592 1.62441 2.38647 1.78753ZM2.40292 0.949179C2.54163 0.838715 2.68308 0.776014 2.82361 0.756556C2.96423 0.737085 3.08759 0.76318 3.18649 0.805114C3.28359 0.846285 3.35737 0.902647 3.40603 0.946942C3.43076 0.96946 3.45021 0.989963 3.46417 1.00572C3.47117 1.01364 3.47688 1.02046 3.48127 1.02588C3.48347 1.02858 3.48534 1.03095 3.48688 1.03293C3.48765 1.03393 3.48834 1.03482 3.48895 1.03562C3.48926 1.03602 3.48954 1.03639 3.48981 1.03674C3.48994 1.03692 3.49006 1.03709 3.49018 1.03725C3.49025 1.03733 3.49033 1.03745 3.49036 1.03749C3.49045 1.0376 3.49054 1.03771 3.29044 1.18759C3.09034 1.33746 3.09043 1.33757 3.09051 1.33768C3.09053 1.33771 3.09061 1.33782 3.09067 1.33789C3.09077 1.33803 3.09087 1.33816 3.09097 1.33829C3.09116 1.33854 3.09134 1.33877 3.0915 1.33899C3.09182 1.33941 3.09208 1.33975 3.09229 1.34001C3.09269 1.34053 3.09286 1.34074 3.0928 1.34067C3.09267 1.34051 3.09165 1.33925 3.08978 1.33713C3.08597 1.33283 3.07906 1.32544 3.06944 1.31668C3.04936 1.29841 3.02237 1.27862 2.99131 1.26545C2.96206 1.25304 2.92986 1.24661 2.89219 1.25183C2.85442 1.25706 2.79482 1.27626 2.7144 1.34031L2.40292 0.949179ZM3.29044 1.18759C3.49347 1.04171 3.4935 1.04176 3.49357 1.04185C3.49364 1.04195 3.49374 1.04209 3.49388 1.04229C3.49416 1.04267 3.49457 1.04324 3.49512 1.04401C3.49622 1.04554 3.49786 1.04783 3.50005 1.05087C3.50442 1.05695 3.51095 1.06604 3.51958 1.07804C3.53683 1.10205 3.56248 1.13773 3.59604 1.18441C3.66317 1.27777 3.76196 1.41513 3.8886 1.59112C4.14188 1.94309 4.50655 2.44957 4.9521 3.06751C5.8432 4.30342 7.05777 5.98519 8.35166 7.76868C10.9409 11.3377 13.8436 15.3081 15.1101 16.9323L14.7158 17.2397C13.4427 15.6071 10.5341 11.6283 7.94695 8.0623C6.65268 6.27829 5.43781 4.5961 4.54652 3.35994C4.10088 2.74185 3.73611 2.23525 3.48275 1.88316C3.35608 1.70712 3.25725 1.56971 3.19008 1.4763C3.1565 1.42959 3.13084 1.39389 3.11357 1.36986C3.10493 1.35784 3.09839 1.34875 3.09402 1.34265C3.09183 1.3396 3.09018 1.33731 3.08907 1.33577C3.08852 1.335 3.08811 1.33443 3.08783 1.33404C3.08769 1.33385 3.08759 1.3337 3.08751 1.33361C3.08745 1.33351 3.08741 1.33346 3.29044 1.18759ZM15.1101 16.9323C15.3129 17.1923 15.6769 17.3776 16.1728 17.4945C16.6632 17.6101 17.2459 17.6502 17.8401 17.6502V18.1502C17.2291 18.1502 16.6026 18.1095 16.0581 17.9812C15.5189 17.8541 15.0219 17.6323 14.7158 17.2397L15.1101 16.9323ZM17.8401 17.6502C18.0552 17.6502 18.283 17.6266 18.5248 17.597C18.7618 17.568 19.0164 17.5326 19.2639 17.5147C19.7576 17.4789 20.2891 17.5055 20.7397 17.8248L20.4505 18.2327C20.1467 18.0174 19.7638 17.9798 19.3 18.0134C19.0688 18.0301 18.834 18.0629 18.5855 18.0933C18.3418 18.1231 18.088 18.1502 17.8401 18.1502V17.6502ZM20.7397 17.8248C21.0115 18.0175 21.1784 18.2405 21.2315 18.5312C21.2809 18.8013 21.2246 19.0984 21.1379 19.4219L20.6549 19.2925C20.7405 18.9733 20.7672 18.7717 20.7397 18.6211C20.7159 18.4911 20.6461 18.3713 20.4505 18.2327L20.7397 17.8248ZM21.1379 19.4219C21.0692 19.6782 20.8739 19.8448 20.6599 19.9522C20.4462 20.0596 20.1824 20.1249 19.9114 20.1667C19.3684 20.2506 18.7239 20.25 18.2276 20.25V19.75C18.7333 19.75 19.3372 19.7494 19.8351 19.6726C20.0844 19.6341 20.2893 19.5788 20.4355 19.5054C20.5815 19.4321 20.6375 19.3576 20.6549 19.2925L21.1379 19.4219Z" fill="white"/>
</svg>
