<svg width="21" height="21" viewBox="0 0 21 21" fill="none" xmlns="http://www.w3.org/2000/svg">
<path d="M6.86451 1.72314C4.53674 2.68734 2.68734 4.53674 1.72314 6.86451C0.758952 9.19227 0.758952 11.8077 1.72314 14.1355C2.68734 16.4633 4.53674 18.3127 6.86451 19.2769M6.86451 1.72314C9.19227 0.758952 11.8077 0.758952 14.1355 1.72314M6.86451 1.72314C5.76817 2.17726 4.77795 2.8278 3.93635 3.63213C4.22988 4.32713 4.62897 4.96445 5.11415 5.5246M6.86451 19.2769C9.19227 20.241 11.8077 20.241 14.1355 19.2769M6.86451 19.2769C5.76815 18.8227 4.77792 18.1723 3.9363 17.3679C4.22984 16.6729 4.62895 16.0356 5.11415 15.4754M14.1355 19.2769C16.4633 18.3127 18.3127 16.4633 19.2769 14.1355C20.241 11.8077 20.241 9.19227 19.2769 6.86451C18.3127 4.53674 16.4633 2.68734 14.1355 1.72314M14.1355 19.2769C15.2318 18.8228 16.222 18.1724 17.0636 17.3681C16.7701 16.673 16.371 16.0357 15.8858 15.4755M14.1355 1.72314C15.2318 2.17724 16.222 2.82774 17.0635 3.63203C16.77 4.327 16.371 4.96429 15.8858 5.52443" stroke="white" stroke-width="0.5" stroke-linecap="round" stroke-linejoin="round"/>
</svg>
