<svg width="18" height="21" viewBox="0 0 18 21" fill="none" xmlns="http://www.w3.org/2000/svg">
<path d="M9 14.0625V18.2187M4.46667 6.47634V1H13.5335V6.47634M4.46667 6.47634C4.46667 8.84684 5.41585 11.0939 7.0558 12.6059C7.65268 13.1562 8.30984 13.5823 9.00007 13.8842C9.69031 13.5823 10.3475 13.1562 10.9443 12.6059C12.5843 11.0939 13.5335 8.84683 13.5335 6.47634M4.46667 6.47634L4.46641 3.37494H1.23415C1.19005 3.5226 1.15179 3.67309 1.11963 3.82606C0.792161 5.38338 1.14747 7.04094 2.05705 8.27898C2.86294 9.37588 4.03981 10.0735 5.29815 10.2021C4.75835 9.06771 4.46667 7.791 4.46667 6.47634ZM13.5335 6.47634L13.5336 3.37494H16.7659C16.8099 3.5226 16.8482 3.67309 16.8804 3.82606C17.2078 5.38338 16.8525 7.04094 15.943 8.27898C15.1371 9.37588 13.9602 10.0735 12.7018 10.2021C13.2417 9.06771 13.5335 7.79099 13.5335 6.47634ZM5.8 20H12.2C12.2984 20 12.3477 19.8675 12.2781 19.7901L11.8867 19.3543C11.2336 18.6272 10.3478 18.2187 9.42417 18.2187H8.57583C7.65222 18.2187 6.76643 18.6272 6.11333 19.3543L5.7219 19.7901C5.65231 19.8675 5.70159 20 5.8 20Z" stroke="white" stroke-width="0.5" stroke-linecap="round" stroke-linejoin="round"/>
</svg>
