<?xml version="1.0" encoding="UTF-8"?>
<!DOCTYPE svg PUBLIC "-//W3C//DTD SVG 1.1//EN" "http://www.w3.org/Graphics/SVG/1.1/DTD/svg11.dtd">
<!-- Creator: CorelDRAW 2021.5 -->
<svg xmlns="http://www.w3.org/2000/svg" xml:space="preserve" width="85px" height="85px" version="1.1" style="shape-rendering:geometricPrecision; text-rendering:geometricPrecision; image-rendering:optimizeQuality; fill-rule:evenodd; clip-rule:evenodd"
viewBox="0 0 85 85"
 xmlns:xlink="http://www.w3.org/1999/xlink"
 xmlns:xodm="http://www.corel.com/coreldraw/odm/2003">
 <defs>
  <style type="text/css">
   <![CDATA[
    .fil0 {fill:#E6E6E6;fill-rule:nonzero}
   ]]>
  </style>
 </defs>
 <g id="Слой_x0020_1">
  <metadata id="CorelCorpID_0Corel-Layer"/>
  <g>
   <path class="fil0" d="M40.87 24.03l4.47 0 0 13.38 -4.47 0 0 -13.38zm12.29 0l4.46 0 0 13.38 -4.46 0 0 -13.38zm-26.79 -12.28l-11.15 11.16 0 40.19 13.37 0 0 11.15 11.19 -11.15 8.91 0 20.09 -20.1 0 -31.25 -42.41 0zm37.94 29.03l-8.9 8.91 -8.94 0 -7.81 7.81 0 -7.81 -10.07 0 0 -33.47 35.72 0 0 24.56z"/>
  </g>
 </g>
</svg>
