<?xml version="1.0" encoding="UTF-8"?>
<!DOCTYPE svg PUBLIC "-//W3C//DTD SVG 1.1//EN" "http://www.w3.org/Graphics/SVG/1.1/DTD/svg11.dtd">
<!-- Creator: CorelDRAW 2021.5 -->
<svg xmlns="http://www.w3.org/2000/svg" xml:space="preserve" width="3508px" height="2480px" version="1.1" style="shape-rendering:geometricPrecision; text-rendering:geometricPrecision; image-rendering:optimizeQuality; fill-rule:evenodd; clip-rule:evenodd"
viewBox="0 0 3508 2480.4"
 xmlns:xlink="http://www.w3.org/1999/xlink"
 xmlns:xodm="http://www.corel.com/coreldraw/odm/2003">
 <defs>
  <style type="text/css">
   <![CDATA[
    .fil0 {fill:#4EB546}
   ]]>
  </style>
 </defs>
 <g id="Слой_x0020_1">
  <metadata id="CorelCorpID_0Corel-Layer"/>
  <path class="fil0" d="M953.8 581.55c0,30.7 2.06,46.5 14.73,72.79 8.86,18.39 20.94,30.11 34.49,43.64 53,52.91 529.94,525.79 541.51,543.06 -24.19,36.13 -544.33,533.72 -572.67,580.66 -10.23,16.93 -16.18,36.15 -18.06,56l0 27.82c3.15,33.94 17.74,67.51 42.95,92.72 25.5,25.5 57.38,39.86 90.25,42.94l27.07 0c24.48,-2.28 48.7,-10.78 70.47,-25.55 17.57,-11.92 676.22,-669.7 689.5,-688.87 35.99,-51.98 36.67,-117.34 1.24,-169.55 -13.37,-19.72 -31.8,-34.48 -48.67,-51.35l-592.29 -592.29c-46.19,-46.18 -65.52,-72.67 -139.87,-72.67 -73.53,0 -140.65,66.83 -140.65,140.65zm653.24 0c0,55.06 12.56,79.82 49.22,116.43 53,52.91 529.94,525.79 541.5,543.06 -11.27,16.84 -486.92,488.53 -539.93,541.5 -37.41,37.39 -50.79,61.29 -50.79,117.99 0,79.35 67.74,136.11 139.91,140.65l18.65 0c23.65,-1.51 47.19,-8.85 68.41,-23.07 30.42,-20.37 568.17,-564.22 644.27,-640.32 53.28,-53.28 75.8,-67.05 75.8,-149.25 0,-56.36 -43.97,-92.41 -74.23,-122.68l-296.93 -296.92c-28.93,-28.94 -321.45,-326.52 -347.03,-343.72 -22.36,-15.03 -46.7,-22.73 -70.9,-24.32l-19.01 0c-72.74,4.7 -138.94,62.84 -138.94,140.65z"/>
 </g>
</svg>
