<svg width="64" height="64" viewBox="0 0 64 64" fill="none" xmlns="http://www.w3.org/2000/svg">
<path d="M42 46H22C20.8954 46 20 45.1109 20 44.0142C20 40.7296 22.0524 37.7896 25.1502 36.6368L25.7652 36.4079C29.7852 34.912 34.2148 34.912 38.2348 36.4079L38.8498 36.6368C41.9476 37.7896 44 40.7296 44 44.0142C44 45.1109 43.1046 46 42 46Z" stroke="#949494" stroke-width="2" stroke-linecap="round" stroke-linejoin="round"/>
<path d="M28.9507 30.5444C30.8647 31.5205 33.1353 31.5205 35.0493 30.5444C36.8305 29.6359 38.1068 27.9812 38.5258 26.0369L38.6376 25.518C39.0661 23.5297 38.6084 21.4546 37.3822 19.8262L37.2027 19.5877C35.9763 17.959 34.0481 17 32 17C29.9519 17 28.0237 17.959 26.7973 19.5877L26.6178 19.8262C25.3916 21.4546 24.9339 23.5297 25.3624 25.518L25.4742 26.0369C25.8932 27.9812 27.1695 29.6359 28.9507 30.5444Z" stroke="#949494" stroke-width="2" stroke-linecap="round" stroke-linejoin="round"/>
<path d="M64 32C64 49.6731 49.6731 64 32 64C14.3269 64 0 49.6731 0 32C0 14.3269 14.3269 0 32 0C49.6731 0 64 14.3269 64 32ZM2.29308 32C2.29308 48.4067 15.5933 61.7069 32 61.7069C48.4067 61.7069 61.7069 48.4067 61.7069 32C61.7069 15.5933 48.4067 2.29308 32 2.29308C15.5933 2.29308 2.29308 15.5933 2.29308 32Z" fill="#949494"/>
</svg>
