<?xml version="1.0" encoding="UTF-8"?>
<!DOCTYPE svg PUBLIC "-//W3C//DTD SVG 1.1//EN" "http://www.w3.org/Graphics/SVG/1.1/DTD/svg11.dtd">
<!-- Creator: CorelDRAW 2021.5 -->
<svg xmlns="http://www.w3.org/2000/svg" xml:space="preserve" width="85px" height="85px" version="1.1" style="shape-rendering:geometricPrecision; text-rendering:geometricPrecision; image-rendering:optimizeQuality; fill-rule:evenodd; clip-rule:evenodd"
viewBox="0 0 85 85"
 xmlns:xlink="http://www.w3.org/1999/xlink"
 xmlns:xodm="http://www.corel.com/coreldraw/odm/2003">
 <defs>
  <style type="text/css">
   <![CDATA[
    .fil0 {fill:#E6E6E6;fill-rule:nonzero}
   ]]>
  </style>
 </defs>
 <g id="Слой_x0020_1">
  <metadata id="CorelCorpID_0Corel-Layer"/>
  <g id="_3162181547072">
   <g>
    <path class="fil0" d="M81.66 61.44c-0.1,-0.21 -0.19,-0.38 -0.27,-0.52 -1.39,-2.51 -4.05,-5.58 -7.97,-9.23l-0.09 -0.08 -0.04 -0.04 -0.04 -0.04 -0.04 0c-1.78,-1.7 -2.91,-2.84 -3.38,-3.43 -0.87,-1.11 -1.06,-2.24 -0.59,-3.38 0.34,-0.86 1.59,-2.68 3.76,-5.47 1.14,-1.47 2.04,-2.66 2.71,-3.55 4.82,-6.4 6.9,-10.49 6.26,-12.27l-0.25 -0.41c-0.16,-0.26 -0.59,-0.48 -1.29,-0.69 -0.7,-0.21 -1.58,-0.25 -2.67,-0.11l-12.02 0.09c-0.2,-0.07 -0.48,-0.07 -0.84,0.02 -0.36,0.08 -0.54,0.12 -0.54,0.12l-0.21 0.11 -0.17 0.12c-0.14,0.08 -0.29,0.23 -0.46,0.44 -0.16,0.21 -0.3,0.45 -0.41,0.73 -1.31,3.37 -2.8,6.5 -4.47,9.39 -1.03,1.73 -1.97,3.22 -2.84,4.49 -0.86,1.27 -1.58,2.2 -2.17,2.8 -0.58,0.6 -1.11,1.07 -1.59,1.44 -0.47,0.36 -0.83,0.51 -1.08,0.46 -0.25,-0.06 -0.49,-0.12 -0.71,-0.17 -0.39,-0.25 -0.7,-0.59 -0.94,-1.02 -0.24,-0.43 -0.4,-0.98 -0.48,-1.63 -0.08,-0.66 -0.13,-1.22 -0.15,-1.69 -0.01,-0.48 0,-1.14 0.03,-2.01 0.02,-0.86 0.04,-1.44 0.04,-1.75 0,-1.06 0.02,-2.2 0.06,-3.44 0.04,-1.24 0.08,-2.22 0.1,-2.95 0.03,-0.72 0.05,-1.49 0.05,-2.29 0,-0.81 -0.05,-1.44 -0.15,-1.9 -0.1,-0.46 -0.24,-0.91 -0.44,-1.34 -0.19,-0.43 -0.48,-0.76 -0.85,-1 -0.38,-0.24 -0.85,-0.42 -1.4,-0.56 -1.48,-0.34 -3.36,-0.52 -5.64,-0.55 -5.17,-0.05 -8.5,0.28 -9.98,1.01 -0.58,0.3 -1.11,0.72 -1.58,1.25 -0.5,0.61 -0.57,0.95 -0.21,1 1.67,0.25 2.85,0.85 3.55,1.79l0.25 0.51c0.19,0.36 0.39,1 0.58,1.92 0.2,0.92 0.32,1.93 0.38,3.04 0.14,2.03 0.14,3.77 0,5.22 -0.14,1.45 -0.27,2.58 -0.4,3.38 -0.12,0.81 -0.31,1.46 -0.56,1.96 -0.25,0.51 -0.42,0.81 -0.5,0.92 -0.09,0.11 -0.16,0.18 -0.21,0.21 -0.36,0.14 -0.74,0.21 -1.13,0.21 -0.39,0 -0.86,-0.19 -1.42,-0.58 -0.55,-0.39 -1.13,-0.93 -1.73,-1.61 -0.6,-0.68 -1.27,-1.64 -2.02,-2.86 -0.76,-1.23 -1.54,-2.67 -2.34,-4.34l-0.67 -1.21c-0.42,-0.78 -0.99,-1.92 -1.71,-3.4 -0.73,-1.49 -1.36,-2.94 -1.92,-4.33 -0.22,-0.58 -0.56,-1.03 -1,-1.33l-0.21 -0.13c-0.14,-0.11 -0.36,-0.23 -0.67,-0.35 -0.31,-0.13 -0.63,-0.22 -0.96,-0.27l-11.44 0.08c-1.17,0 -1.96,0.26 -2.38,0.79l-0.16 0.25c-0.09,0.14 -0.13,0.37 -0.13,0.67 0,0.31 0.08,0.68 0.25,1.13 1.67,3.92 3.49,7.71 5.45,11.35 1.96,3.65 3.66,6.59 5.11,8.81 1.45,2.23 2.92,4.33 4.43,6.3 1.5,1.98 2.49,3.25 2.98,3.8 0.49,0.56 0.87,0.98 1.15,1.26l1.04 1c0.67,0.67 1.65,1.47 2.95,2.4 1.29,0.93 2.72,1.85 4.3,2.75 1.57,0.91 3.4,1.64 5.49,2.21 2.08,0.58 4.11,0.8 6.09,0.69l4.8 0c0.97,-0.08 1.71,-0.39 2.21,-0.91l0.17 -0.21c0.11,-0.17 0.22,-0.43 0.31,-0.77 0.1,-0.35 0.15,-0.74 0.15,-1.15 -0.03,-1.2 0.06,-2.28 0.27,-3.24 0.21,-0.96 0.44,-1.68 0.71,-2.17 0.26,-0.49 0.56,-0.9 0.9,-1.23 0.33,-0.33 0.57,-0.54 0.71,-0.6 0.14,-0.08 0.25,-0.12 0.33,-0.15 0.67,-0.22 1.45,-0.01 2.36,0.65 0.9,0.65 1.75,1.46 2.55,2.42 0.79,0.96 1.74,2.04 2.85,3.23 1.12,1.2 2.09,2.09 2.93,2.67l0.83 0.51c0.56,0.33 1.28,0.64 2.17,0.91 0.89,0.28 1.67,0.35 2.34,0.21l10.69 -0.16c1.05,0 1.88,-0.18 2.46,-0.53 0.58,-0.34 0.93,-0.73 1.04,-1.14 0.11,-0.42 0.12,-0.9 0.03,-1.42 -0.1,-0.53 -0.2,-0.9 -0.3,-1.11z"/>
   </g>
   <g>
   </g>
   <g>
   </g>
   <g>
   </g>
   <g>
   </g>
   <g>
   </g>
   <g>
   </g>
   <g>
   </g>
   <g>
   </g>
   <g>
   </g>
   <g>
   </g>
   <g>
   </g>
   <g>
   </g>
   <g>
   </g>
   <g>
   </g>
   <g>
   </g>
  </g>
 </g>
</svg>
