<?xml version="1.0" encoding="UTF-8"?>
<!DOCTYPE svg PUBLIC "-//W3C//DTD SVG 1.1//EN" "http://www.w3.org/Graphics/SVG/1.1/DTD/svg11.dtd">
<!-- Creator: CorelDRAW 2021.5 -->
<svg xmlns="http://www.w3.org/2000/svg" xml:space="preserve" width="85px" height="85px" version="1.1" style="shape-rendering:geometricPrecision; text-rendering:geometricPrecision; image-rendering:optimizeQuality; fill-rule:evenodd; clip-rule:evenodd"
viewBox="0 0 85 85"
 xmlns:xlink="http://www.w3.org/1999/xlink"
 xmlns:xodm="http://www.corel.com/coreldraw/odm/2003">
 <defs>
  <style type="text/css">
   <![CDATA[
    .fil0 {fill:url(#id0);fill-rule:nonzero}
   ]]>
  </style>
  <linearGradient id="id0" gradientUnits="userSpaceOnUse" x1="3.25" y1="43" x2="80.74" y2="43">
   <stop offset="0" style="stop-opacity:1; stop-color:#4967DF"/>
   <stop offset="1" style="stop-opacity:1; stop-color:#AF6BB4"/>
  </linearGradient>
 </defs>
 <g id="Слой_x0020_1">
  <metadata id="CorelCorpID_0Corel-Layer"/>
  <g id="_3162057774048">
   <g>
    <path class="fil0" d="M42.49 70.23c-8.71,-0.28 -16.99,-0.49 -25.27,-0.81 -1.78,-0.08 -3.6,-0.35 -5.33,-0.76 -3.27,-0.76 -5.52,-2.73 -6.68,-5.95 -0.93,-2.59 -1.27,-5.26 -1.51,-7.97 -0.54,-6.38 -0.54,-12.75 -0.28,-19.13 0.15,-3.6 0.25,-7.23 1.21,-10.72 0.58,-2.09 1.28,-4.13 2.97,-5.64 1.79,-1.6 3.87,-2.56 6.25,-2.67 6.53,-0.32 13.04,-0.72 19.57,-0.78 8.78,-0.09 17.58,0.03 26.36,0.2 3.8,0.08 7.63,0.28 11.4,0.76 3.44,0.46 6.02,2.38 7.39,5.74 1.05,2.58 1.45,5.27 1.68,8.02 0.59,6.88 0.61,13.75 0.27,20.63 -0.16,3.49 -0.33,7 -1.32,10.4 -1.13,3.91 -3.52,6.48 -7.52,7.37 -1.56,0.33 -3.17,0.46 -4.76,0.52 -8.29,0.29 -16.58,0.54 -24.43,0.79zm-8.43 -17.34c6.95,-3.6 13.83,-7.17 20.85,-10.81 -7.01,-3.66 -13.88,-7.25 -20.85,-10.89 0,7.27 0,14.43 0,21.7z"/>
   </g>
  </g>
 </g>
</svg>
