<?xml version="1.0" encoding="UTF-8"?>
<!DOCTYPE svg PUBLIC "-//W3C//DTD SVG 1.1//EN" "http://www.w3.org/Graphics/SVG/1.1/DTD/svg11.dtd">
<!-- Creator: CorelDRAW 2021.5 -->
<svg xmlns="http://www.w3.org/2000/svg" xml:space="preserve" width="150px" height="150px" version="1.1" style="shape-rendering:geometricPrecision; text-rendering:geometricPrecision; image-rendering:optimizeQuality; fill-rule:evenodd; clip-rule:evenodd"
viewBox="0 0 150 150"
 xmlns:xlink="http://www.w3.org/1999/xlink"
 xmlns:xodm="http://www.corel.com/coreldraw/odm/2003">
 <defs>
  <style type="text/css">
   <![CDATA[
    .fil0 {fill:url(#id0)}
   ]]>
  </style>
  <linearGradient id="id0" gradientUnits="userSpaceOnUse" x1="30.47" y1="81.17" x2="119.53" y2="68.83">
   <stop offset="0" style="stop-opacity:1; stop-color:#4F68DC"/>
   <stop offset="1" style="stop-opacity:1; stop-color:#A86BB8"/>
  </linearGradient>
 </defs>
 <g id="Слой_x0020_1">
  <metadata id="CorelCorpID_0Corel-Layer"/>
  <path class="fil0" d="M37.81 70.63l1.21 -1.06c0.31,-0.31 1.03,-0.87 1.33,-1.17l3.28 -2.89c0.04,-0.03 0.04,-0.02 0.07,-0.05l0.67 -0.6c0.03,-0.03 0.04,-0.02 0.07,-0.05l1.67 -1.48c0.05,-0.05 0.08,-0.06 0.14,-0.11 0.05,-0.06 0.08,-0.07 0.14,-0.13l0.26 -0.23c0.1,-0.08 0.17,-0.16 0.27,-0.23l2.54 -2.23c0.29,-0.27 0.84,-0.73 1.07,-0.95l0.28 -0.24c0.05,-0.05 0.08,-0.07 0.13,-0.12 0.29,-0.28 0.96,-0.81 1.2,-1.06 0.05,-0.05 0.08,-0.06 0.13,-0.11 0.06,-0.05 0.09,-0.07 0.14,-0.12l0.4 -0.36c0.09,-0.07 0.17,-0.16 0.27,-0.23l2.28 -2c0.02,-0.03 0.03,-0.04 0.06,-0.06 0.03,-0.03 0.04,-0.03 0.07,-0.06 0.26,-0.23 0.71,-0.6 0.93,-0.83l0.94 -0.82c0.25,-0.2 0.77,-0.68 1.07,-0.94l1.35 -1.18c0.28,-0.27 0.96,-0.82 1.2,-1.06l0.67 -0.59c0.16,-0.12 0.31,-0.27 0.46,-0.4l1.42 -1.25c0.06,-0.05 0.08,-0.07 0.13,-0.12l0.6 -0.52c0.03,-0.03 0.03,-0.03 0.07,-0.06 0.25,-0.23 0.71,-0.61 0.93,-0.83l0.94 -0.82c0.09,-0.07 0.17,-0.16 0.26,-0.23 0.33,-0.28 0.77,-0.69 1.08,-0.95l1.07 -0.94c0.05,-0.05 0.09,-0.07 0.14,-0.11l0.14 -0.13c0.09,-0.08 0.16,-0.16 0.26,-0.23l0.53 -0.47c0.11,-0.11 0.29,-0.08 0.44,-0.08l20.14 0c2.69,0 5.37,0 8.06,0 0.09,0 0.17,0.02 0.23,-0.02l0.53 -0.46c0.02,-0.02 0.03,-0.04 0.06,-0.06l3.82 -3.36c0.28,-0.23 0.84,-0.76 1.08,-0.94l0.93 -0.82c0.06,-0.05 0.09,-0.07 0.14,-0.12l0.87 -0.76c0.02,-0.03 0.03,-0.04 0.06,-0.07l1.48 -1.29c0.04,-0.05 0.08,-0.07 0.13,-0.12 0.05,-0.05 0.08,-0.06 0.13,-0.11 0.06,-0.06 0.08,-0.07 0.14,-0.12l0.14 -0.12c0.3,-0.28 0.8,-0.68 1.06,-0.95l0.27 -0.23c0.08,-0.08 0.17,-0.15 0.27,-0.23 0.18,-0.15 0.35,-0.33 0.53,-0.48 0.09,-0.07 0.18,-0.15 0.27,-0.23 0.12,-0.12 0.28,-0.23 0.41,-0.36l0.19 -0.17c0.04,-0.03 0.04,-0.03 0.07,-0.06 0.14,-0.11 0.27,-0.25 0.41,-0.36l1.73 -1.52c0.03,-0.03 0.03,-0.03 0.07,-0.06 0.03,-0.02 0.04,-0.04 0.07,-0.07l0.27 -0.23c0.05,-0.05 0.08,-0.06 0.13,-0.11l1.07 -0.95c0.03,-0.03 0.03,-0.03 0.07,-0.05l1.68 -1.48c0.05,-0.06 0.08,-0.07 0.13,-0.12l1 -0.88c0.25,-0.21 0.82,-0.74 1.01,-0.88l0.67 -0.59c0.05,-0.05 0.08,-0.07 0.13,-0.12 0.05,-0.05 0.08,-0.07 0.13,-0.12 0.05,-0.04 0.12,-0.07 0.13,-0.13l-58.39 0 -0.27 0c-0.06,0.01 -0.11,0.03 -0.15,0.07 -0.05,0.05 -0.08,0.07 -0.13,0.12 -0.06,0.05 -0.08,0.06 -0.14,0.11l-1.06 0.95c-0.05,0.05 -0.09,0.06 -0.14,0.11l-0.4 0.36c-0.09,0.07 -0.18,0.16 -0.27,0.23l-2.28 2.01c-0.18,0.18 -0.81,0.7 -1.06,0.94 -0.05,0.05 -0.09,0.06 -0.14,0.11 -0.05,0.05 -0.08,0.07 -0.13,0.12l-3.22 2.83c-0.32,0.31 -0.76,0.63 -1.07,0.94l-3.48 3.06c-0.03,0.02 -0.04,0.04 -0.06,0.06 -0.29,0.26 -0.6,0.5 -0.87,0.77l-3.36 2.94c-0.38,0.37 -0.82,0.69 -1.2,1.06 -0.15,0.14 -0.09,0.12 -0.13,0.38l-0.43 3.11c-0.04,0.27 -0.08,0.58 -0.12,0.87 -0.06,0.59 -0.17,1.19 -0.24,1.77 -0.11,0.91 -0.24,1.77 -0.37,2.67 -0.08,0.6 -0.16,1.18 -0.24,1.77l-0.73 5.32c-0.16,1.17 -0.33,2.34 -0.48,3.53 -0.04,0.28 -0.09,0.58 -0.12,0.87 -0.07,0.59 -0.18,1.19 -0.25,1.78 -0.07,0.6 -0.16,1.18 -0.24,1.77 -0.08,0.57 -0.85,6.01 -0.85,6.22zm49.16 55.59c0.1,0 0.14,-0.05 0.21,-0.12l1.92 -1.69c0.05,-0.05 0.06,-0.05 0.11,-0.09l0.6 -0.54c0.07,-0.06 0.13,-0.11 0.2,-0.17l1.61 -1.42c0.04,-0.04 0.06,-0.04 0.11,-0.09l2.71 -2.39c0.13,-0.12 0.28,-0.23 0.41,-0.35 0.04,-0.05 0.06,-0.05 0.1,-0.09l0.51 -0.46c0.04,-0.03 0.06,-0.04 0.1,-0.08l0.19 -0.17c0.05,-0.04 0.07,-0.05 0.11,-0.09l0.7 -0.62c0.04,-0.03 0.06,-0.06 0.1,-0.09l0.3 -0.27c0.05,-0.04 0.06,-0.05 0.11,-0.09 0.28,-0.27 0.72,-0.6 1,-0.88l0.4 -0.35c0.24,-0.2 0.46,-0.42 0.7,-0.62 0.05,-0.04 0.06,-0.04 0.1,-0.09l1.82 -1.59c0.04,-0.03 0.06,-0.05 0.1,-0.09 0.04,-0.04 0.06,-0.05 0.1,-0.09 0.24,-0.21 0.47,-0.42 0.71,-0.62l0.5 -0.44c0.05,-0.05 0.06,-0.05 0.11,-0.09l0.5 -0.45c0.04,-0.03 0.05,-0.04 0.09,-0.08l0.41 -0.36c0.16,-0.12 0.52,-0.47 0.71,-0.62l1.61 -1.43c0.08,-0.06 0.13,-0.1 0.21,-0.17l2.16 -1.9c0.04,-0.04 0.03,-0.01 0.05,-0.06l-58.29 0c-0.12,0 -0.25,-0.01 -0.37,0 -0.12,0 -0.16,0.07 -0.24,0.14 -0.04,0.04 -0.06,0.06 -0.09,0.09l-0.32 0.27c-0.05,0.04 -0.05,0.05 -0.09,0.09l-1.72 1.5c-0.13,0.12 -0.26,0.25 -0.4,0.36 -0.04,0.03 -0.06,0.05 -0.1,0.08 -0.04,0.05 -0.06,0.05 -0.1,0.09l-0.41 0.36c-0.04,0.03 -0.05,0.06 -0.09,0.09l-2.53 2.22c-0.05,0.03 -0.05,0.04 -0.09,0.08 -0.13,0.13 -0.28,0.23 -0.41,0.36 -0.05,0.04 -0.05,0.05 -0.1,0.09 -0.05,0.03 -0.06,0.05 -0.1,0.08l-0.31 0.28c-0.25,0.21 -0.78,0.66 -1,0.88l-0.21 0.18c-0.05,0.04 -0.05,0.04 -0.1,0.09l-0.8 0.7c-0.04,0.03 -0.06,0.06 -0.1,0.1l-2.81 2.47c-0.05,0.04 -0.06,0.04 -0.11,0.09l-0.5 0.44c-0.04,0.03 -0.05,0.04 -0.09,0.08 -0.24,0.22 -0.5,0.41 -0.72,0.63l-0.9 0.79c-0.04,0.04 -0.06,0.05 -0.11,0.09l-1.41 1.24c-0.31,0.25 -0.59,0.55 -0.91,0.8l-1.4 1.24c-0.05,0.05 -0.07,0.05 -0.11,0.09 -0.07,0.06 -0.13,0.12 -0.2,0.18l-0.2 0.18c-0.08,0.06 -0.47,0.39 -0.49,0.44 -0.03,0.1 -0.14,1.07 -0.16,1.19l-0.09 0.67 56.8 0zm-54.92 -13.76c0.12,-0.03 0.95,-0.82 1.09,-0.92l0.86 -0.76c0.03,-0.03 0.03,-0.03 0.07,-0.06l2.82 -2.48c0.33,-0.31 0.75,-0.63 1.06,-0.94 0.05,-0.05 0.08,-0.06 0.14,-0.11 0.05,-0.05 0.08,-0.07 0.13,-0.12l1.47 -1.3c0.06,-0.05 0.09,-0.06 0.14,-0.11l1.21 -1.07c0.12,-0.12 0.27,-0.23 0.4,-0.35 0.09,-0.08 0.17,-0.16 0.27,-0.24l2.06 -1.81c0.03,-0.03 0.04,-0.04 0.08,-0.07l0.46 -0.41c0.03,-0.03 0.04,-0.03 0.08,-0.06l0.8 -0.71c0.03,-0.03 0.04,-0.03 0.07,-0.06 0.03,-0.02 0.04,-0.04 0.06,-0.06 0.05,-0.05 0.08,-0.06 0.13,-0.12 0.18,-0.16 0.37,-0.31 0.55,-0.47 0.18,-0.16 0.34,-0.32 0.52,-0.46 0.37,-0.3 0.71,-0.65 1.07,-0.94l0.47 -0.41c0.03,-0.03 0.04,-0.04 0.07,-0.07l3.15 -2.76c0.03,-0.02 0.04,-0.04 0.07,-0.07l1.07 -0.94c0.09,-0.08 0.17,-0.15 0.26,-0.23 0.05,-0.05 0.08,-0.07 0.14,-0.12 0.05,-0.05 0.08,-0.07 0.14,-0.12l1.33 -1.17c0.17,-0.17 0.37,-0.32 0.54,-0.48 0.18,-0.16 0.34,-0.32 0.53,-0.46l0.41 -0.36c0.05,-0.05 0.08,-0.07 0.13,-0.12l1.74 -1.53c0.33,-0.31 0.75,-0.63 1.07,-0.94l1.87 -1.64c0.03,-0.03 0.04,-0.04 0.07,-0.06l1.55 -1.37c0.06,-0.05 0.07,-0.07 0.13,-0.11l1.27 -1.12c0.03,-0.03 0.04,-0.03 0.07,-0.06 0.39,-0.34 0.24,-0.32 0.69,-0.32l28.2 0c0.3,0 0.2,0.02 0.37,-0.12l1.07 -0.94c0.09,-0.08 0.18,-0.16 0.27,-0.23l1.07 -0.94c0.05,-0.06 0.08,-0.07 0.13,-0.12l1.48 -1.31c0.32,-0.31 0.74,-0.63 1.07,-0.94l3.35 -2.94c0.35,-0.33 0.73,-0.61 1.07,-0.95l3.48 -3.05c0.06,-0.05 0.07,-0.07 0.14,-0.12 0.08,-0.07 0.17,-0.17 0.26,-0.23l1.74 -1.54c0.03,-0.03 0.03,-0.02 0.07,-0.05 0.02,-0.03 0.03,-0.04 0.06,-0.06l2.15 -1.89c0.26,-0.23 0.71,-0.6 0.94,-0.82l2.28 -2.01c0.09,-0.07 0.17,-0.16 0.26,-0.23 0.09,-0.07 0.21,-0.16 0.27,-0.25l-58.64 0c-0.18,0 -0.24,0.14 -0.44,0.3 -0.37,0.3 -0.7,0.65 -1.07,0.94 -0.09,0.07 -0.18,0.17 -0.26,0.24l-0.21 0.17c-0.28,0.25 -0.72,0.66 -1.01,0.89l-1.21 1.06c-0.28,0.28 -0.81,0.69 -1.07,0.95 -0.05,0.05 -0.08,0.06 -0.13,0.11 -0.05,0.06 -0.08,0.07 -0.13,0.12 -0.06,0.05 -0.09,0.07 -0.14,0.11 -0.02,0.03 -0.03,0.04 -0.06,0.07 -0.03,0.02 -0.04,0.02 -0.07,0.05l-2.54 2.24c-0.06,0.05 -0.09,0.07 -0.14,0.13 -0.06,0.05 -0.09,0.06 -0.14,0.11 -0.34,0.32 -0.72,0.61 -1.06,0.94l-0.94 0.83c-0.1,0.07 -0.17,0.15 -0.27,0.23l-0.27 0.24c-0.05,0.05 -0.08,0.06 -0.13,0.12l-0.27 0.23c-0.33,0.31 -0.75,0.63 -1.07,0.94l-3.36 2.95c-0.05,0.05 -0.08,0.07 -0.13,0.12 -0.03,0.02 -0.04,0.04 -0.06,0.06 -0.27,0.22 -0.53,0.47 -0.8,0.69 -0.03,0.03 -0.04,0.05 -0.07,0.07 -0.05,0.05 -0.08,0.07 -0.14,0.12l-1.73 1.52c-0.1,0.09 -0.17,0.16 -0.28,0.24 -0.11,0.09 -0.1,0.24 -0.12,0.38 -0.02,0.16 -0.04,0.3 -0.06,0.45 -0.06,0.59 -0.17,1.19 -0.24,1.77l-2.8 20.37c-0.08,0.59 -0.15,1.17 -0.24,1.76 -0.04,0.3 -0.08,0.58 -0.12,0.88 -0.08,0.58 -0.18,1.18 -0.24,1.77 -0.04,0.29 -0.09,0.59 -0.13,0.89 -0.01,0.11 -0.21,1.7 -0.25,1.77z"/>
 </g>
</svg>
