<?xml version="1.0" encoding="UTF-8"?>
<!DOCTYPE svg PUBLIC "-//W3C//DTD SVG 1.1//EN" "http://www.w3.org/Graphics/SVG/1.1/DTD/svg11.dtd">
<!-- Creator: CorelDRAW 2021.5 -->
<svg xmlns="http://www.w3.org/2000/svg" xml:space="preserve" width="72px" height="72px" version="1.1" style="shape-rendering:geometricPrecision; text-rendering:geometricPrecision; image-rendering:optimizeQuality; fill-rule:evenodd; clip-rule:evenodd"
viewBox="0 0 72 72"
 xmlns:xlink="http://www.w3.org/1999/xlink"
 xmlns:xodm="http://www.corel.com/coreldraw/odm/2003">
 <defs>
  <style type="text/css">
   <![CDATA[
    .fil0 {fill:#E6E6E6}
   ]]>
  </style>
 </defs>
 <g id="Слой_x0020_1">
  <metadata id="CorelCorpID_0Corel-Layer"/>
  <path class="fil0" d="M48.25 51.03l11.35 0c1.61,0 2.92,-0.62 3.8,-1.42 1.12,-1.01 1.52,-2.35 1.65,-3.83l0 -4.28c0,-2.75 -2.63,-4.79 -5.23,-4.98 -3.03,-0.22 -7.07,-0.02 -10.2,-0.01 -3.39,0.02 -2.44,0.18 -6.42,-3.8 -1.75,-1.76 -3.34,-3.35 -5.1,-5.11l-17.93 -17.92c-1.31,-1.32 -2.08,-2.05 -2.77,-2.22l-0.57 0c-1.09,0.26 -2.31,1.94 -5.51,5.05 -2.23,2.17 -0.95,2.57 2.61,6.13 3.76,3.76 7.36,7.36 11.12,11.12 2.63,2.62 4.39,4.27 6.81,7.03l3.5 3.31c0.41,0.38 0.39,0.41 0.77,0.82l6.46 6.48c0.03,0.03 0.07,0.08 0.11,0.11l1.68 1.72c0.93,0.86 2.14,1.8 3.87,1.8zm-21.33 5.68l0 7.03c0,1.1 0.72,1.82 1.82,1.82l14.52 0c1.1,0 1.82,-0.72 1.82,-1.82l0 -7.03c0,-0.83 -0.63,-1.82 -1.36,-1.82l-15.44 0c-0.73,0 -1.36,0.99 -1.36,1.82zm11.58 -33.59c0.26,0.98 6.88,7.31 7.49,7.72 1.04,-0.7 12.2,-12.08 14.47,-14.35 2.59,-2.6 0.95,-3.24 -2.28,-6.47 -4.13,-4.13 -3.02,-3.68 -11.68,4.99l-8 8.11zm-31.55 22.66c0.13,1.48 0.53,2.82 1.65,3.83 0.88,0.8 2.19,1.42 3.8,1.42l11.35 0c2.87,0 5.75,-3.59 7.66,-5.5 0.73,-0.73 1.81,-1.39 2.09,-2.44l-7.43 -7.54c-0.78,0.54 -0.85,0.92 -2.08,0.97 -3.75,0.17 -11.98,-0.79 -14.67,0.99 -1.23,0.81 -2.37,2.09 -2.37,3.99l0 4.28z"/>
 </g>
 <g id="Слой_x0020_1_0">
  <metadata id="CorelCorpID_1Corel-Layer"/>
 </g>
</svg>
