<?xml version="1.0" encoding="UTF-8"?>
<!DOCTYPE svg PUBLIC "-//W3C//DTD SVG 1.1//EN" "http://www.w3.org/Graphics/SVG/1.1/DTD/svg11.dtd">
<!-- Creator: CorelDRAW 2021.5 -->
<svg xmlns="http://www.w3.org/2000/svg" xml:space="preserve" width="72px" height="72px" version="1.1" style="shape-rendering:geometricPrecision; text-rendering:geometricPrecision; image-rendering:optimizeQuality; fill-rule:evenodd; clip-rule:evenodd"
viewBox="0 0 72 72"
 xmlns:xlink="http://www.w3.org/1999/xlink"
 xmlns:xodm="http://www.corel.com/coreldraw/odm/2003">
 <defs>
  <style type="text/css">
   <![CDATA[
    .fil0 {fill:lime}
   ]]>
  </style>
 </defs>
 <g id="Слой_x0020_1">
  <metadata id="CorelCorpID_0Corel-Layer"/>
  <path class="fil0" d="M10.56 36.3c0,-14.52 11.22,-25.74 25.74,-25.74 13.72,0 25.14,11.28 25.14,25.74 0,13.72 -11.28,25.14 -25.74,25.14 -13.66,0 -25.14,-11.48 -25.14,-25.14zm38.16 -3.66l-10.33 11.99c-1.41,1.62 -4.08,1.82 -5.71,0.42l-8.92 -7.69c-4.01,-3.46 1.27,-9.59 5.28,-6.13l5.86 5.04 7.69 -8.92c3.31,-3.85 9.45,1.44 6.13,5.29zm-44.75 3.06c0,18.05 14.28,32.33 32.33,32.33 17.22,0 31.73,-14.34 31.73,-32.33 0,-17.27 -14.3,-31.73 -32.33,-31.73 -17.22,0 -31.73,14.51 -31.73,31.73z"/>
 </g>
</svg>
