<svg xmlns="http://www.w3.org/2000/svg" xml:space="preserve" width="2500" height="1500" style="shape-rendering:geometricPrecision;text-rendering:geometricPrecision;image-rendering:optimizeQuality;fill-rule:evenodd;clip-rule:evenodd"><path d="M798.998 250.5h737.716l201.871 197.819c-139.756 516.492-211.773 783.627-215.598 801.181h-255.208l106.899-399.465h-251.381L1016.622 1249.5H761.415l219.65-818.96C860.887 313.739 800.349 253.651 798.998 250.5zm379.661 399.69h251.382c0-4.501 17.778-71.116 53.337-199.845h-249.132c-3.15 0-11.027 27.681-23.855 83.043-11.928 37.359-22.28 76.293-31.732 116.802z" style="fill:#039;fill-rule:nonzero"/><path d="M798.998 250.5h737.716l201.871 197.819c-139.756 516.492-211.773 783.627-215.598 801.181h-255.208l106.899-399.465h-251.381L1016.622 1249.5H761.415l219.65-818.96C860.887 313.739 800.349 253.651 798.998 250.5zm379.661 399.69h251.382c0-4.501 17.778-71.116 53.337-199.845h-249.132c-3.15 0-11.027 27.681-23.855 83.043-11.928 37.359-22.28 76.293-31.732 116.802z" style="fill:none;fill-rule:nonzero;stroke:#b3b3b3;stroke-width:20;stroke-miterlimit:22.9256"/></svg>