<svg xmlns="http://www.w3.org/2000/svg" xml:space="preserve" width="2500" height="1500" style="shape-rendering:geometricPrecision;text-rendering:geometricPrecision;image-rendering:optimizeQuality;fill-rule:evenodd;clip-rule:evenodd"><path d="M780.207 250.5h737.716c117.477 114.326 184.767 180.941 201.871 199.845h-504.339c-3.15 0-20.255 62.114-51.537 185.892-2.7 4.951-40.284 142.682-112.75 413.418h506.364c-31.732 114.776-49.511 181.391-53.337 199.845H997.831c-117.477-114.326-184.766-180.941-201.871-199.845C901.509 659.867 956.872 453.496 962.273 430.54 842.096 313.739 781.558 253.651 780.207 250.5z" style="fill:#c30;fill-rule:nonzero"/><path d="M780.207 250.5h737.716c117.477 114.326 184.767 180.941 201.871 199.845h-504.339c-3.15 0-20.255 62.114-51.537 185.892-2.7 4.951-40.284 142.682-112.75 413.418h506.364c-31.732 114.776-49.511 181.391-53.337 199.845H997.831c-117.477-114.326-184.766-180.941-201.871-199.845C901.509 659.867 956.872 453.496 962.273 430.54 842.096 313.739 781.558 253.651 780.207 250.5z" style="fill:none;fill-rule:nonzero;stroke:#b3b3b3;stroke-width:20;stroke-miterlimit:22.9256"/></svg>