<svg xmlns="http://www.w3.org/2000/svg" xml:space="preserve" width="2500" height="1300" style="shape-rendering:geometricPrecision;text-rendering:geometricPrecision;image-rendering:optimizeQuality;fill-rule:evenodd;clip-rule:evenodd"><defs><linearGradient id="a" gradientUnits="userSpaceOnUse" x1="164" y1="650" x2="2336" y2="650"><stop offset="0" style="stop-opacity:1;stop-color:#6c1e73"/><stop offset="1" style="stop-opacity:1;stop-color:#671aba"/></linearGradient></defs><rect x="164" y="145.499" width="2172.001" height="1009" rx="206.182" ry="206.182" style="fill:url(#a)"/><path d="M889.152 266.335h566.639c90.234 87.813 141.919 138.98 155.057 153.5h-387.382c-2.42 0-15.558 47.71-39.585 142.784-2.075 3.802-30.943 109.594-86.604 317.545h192.913l41.141-153.328h-97.321c27.312-98.703 40.969-149.87 40.969-153.5h293.345l-123.078 460.329h-388.937c-90.234-87.813-141.919-138.98-155.056-153.501 81.071-299.395 123.595-457.909 127.744-475.541-92.308-89.714-138.808-135.868-139.845-138.288z" style="fill:#fff;fill-rule:nonzero"/><path d="M889.152 266.335h566.639c90.234 87.813 141.919 138.98 155.057 153.5h-387.382c-2.42 0-15.558 47.71-39.585 142.784-2.075 3.802-30.943 109.594-86.604 317.545h192.913l41.141-153.328h-97.321c27.312-98.703 40.969-149.87 40.969-153.5h293.345l-123.078 460.329h-388.937c-90.234-87.813-141.919-138.98-155.056-153.501 81.071-299.395 123.595-457.909 127.744-475.541-92.308-89.714-138.808-135.868-139.845-138.288z" style="fill:none;fill-rule:nonzero;stroke:gray;stroke-width:35;stroke-miterlimit:22.9256"/></svg>