<svg xmlns="http://www.w3.org/2000/svg" xml:space="preserve" width="2500" height="1300" style="shape-rendering:geometricPrecision;text-rendering:geometricPrecision;image-rendering:optimizeQuality;fill-rule:evenodd;clip-rule:evenodd"><defs><linearGradient id="id0" gradientUnits="userSpaceOnUse" x1="954.757" y1="57.342" x2="1545.243" y2="1242.657"><stop offset="0" style="stop-opacity:1;stop-color:#0cf"/><stop offset="1" style="stop-opacity:1;stop-color:#3d8fbf"/></linearGradient><style>.str0{stroke:gray;stroke-width:35;stroke-miterlimit:22.9256}.fil1,.fil2{fill:none;fill-rule:nonzero}.fil1{fill:#fff}</style></defs><g id="Слой_x0020_1"><g id="_2796492540608"><rect x="164" y="145.499" width="2172.001" height="1009" rx="206.182" ry="206.182" style="fill:url(#id0)"/><path class="fil1" d="M566.335 266.335H940.06L774.459 880.164h388.938c-24.374 88.16-38.03 139.327-40.968 153.501H537.467l168.712-629.042c-92.308-89.714-138.807-135.868-139.844-138.288z"/><path id="_1" class="fil1" d="M1240.839 266.335h566.639a765606.013 765606.013 0 0 0 155.056 151.945c-76.059 282.628-118.064 437.684-126.189 464.996-11.409 6.396-80.38 50.475-206.569 132.238-17.632 12.101-28.176 18.151-31.979 18.151h-385.826l168.712-629.042c-92.308-89.714-138.807-135.868-139.844-138.288zm208.124 613.829h192.913l124.633-460.329h-191.357c-2.42 0-15.557 47.71-39.585 142.784-2.075 3.802-30.943 109.594-86.604 317.545z"/><path id="_2" class="fil2 str0" d="M566.335 266.335H940.06L774.459 880.164h388.938c-24.374 88.16-38.03 139.327-40.968 153.501H537.467l168.712-629.042c-92.308-89.714-138.807-135.868-139.844-138.288z"/><path id="_3" class="fil2 str0" d="M1240.839 266.335h566.639a765606.013 765606.013 0 0 0 155.056 151.945c-76.059 282.628-118.064 437.684-126.189 464.996-11.409 6.396-80.38 50.475-206.569 132.238-17.632 12.101-28.176 18.151-31.979 18.151h-385.826l168.712-629.042c-92.308-89.714-138.807-135.868-139.844-138.288zm208.124 613.829h192.913l124.633-460.329h-191.357c-2.42 0-15.557 47.71-39.585 142.784-2.075 3.802-30.943 109.594-86.604 317.545z"/></g></g></svg>