<svg xmlns="http://www.w3.org/2000/svg" xml:space="preserve" width="2500" height="1300" style="shape-rendering:geometricPrecision;text-rendering:geometricPrecision;image-rendering:optimizeQuality;fill-rule:evenodd;clip-rule:evenodd"><defs><linearGradient id="id0" gradientUnits="userSpaceOnUse" x1="164" y1="650" x2="2336" y2="650"><stop offset="0" style="stop-opacity:1;stop-color:#093"/><stop offset="1" style="stop-opacity:1;stop-color:#25cf39"/></linearGradient><style>.str0{stroke:gray;stroke-width:35;stroke-miterlimit:22.9256}.fil1,.fil2{fill:none;fill-rule:nonzero}.fil1{fill:#fff}</style></defs><g id="Слой_x0020_1"><g id="_2832352039136"><rect x="164" y="145.499" width="2172.001" height="1009" rx="206.182" ry="206.182" style="fill:url(#id0)"/><path class="fil1" d="M371.866 266.335h373.726L579.991 880.164h388.937c-24.374 88.16-38.029 139.327-40.968 153.501H342.998L511.71 404.623c-92.308-89.714-138.807-135.868-139.844-138.288z"/><path id="_1" class="fil1" d="M1046.37 266.335h373.726l-165.601 613.829h192.913l124.633-461.884h196.024l-124.633 461.884h192.913l165.601-613.829 155.056 151.945c-107.346 396.716-162.662 601.902-165.6 615.385h-388.938c-1.037-.691-26.793-25.929-77.441-76.059-67.243 43.907-107.347 69.317-120.139 76.059h-387.382l168.713-629.042c-92.308-89.714-138.808-135.868-139.845-138.288z"/><path id="_2" class="fil2 str0" d="M371.866 266.335h373.726L579.991 880.164h388.937c-24.374 88.16-38.029 139.327-40.968 153.501H342.998L511.71 404.623c-92.308-89.714-138.807-135.868-139.844-138.288z"/><path id="_3" class="fil2 str0" d="M1046.37 266.335h373.726l-165.601 613.829h192.913l124.633-461.884h196.024l-124.633 461.884h192.913l165.601-613.829 155.056 151.945c-107.346 396.716-162.662 601.902-165.6 615.385h-388.938c-1.037-.691-26.793-25.929-77.441-76.059-67.243 43.907-107.347 69.317-120.139 76.059h-387.382l168.713-629.042c-92.308-89.714-138.808-135.868-139.845-138.288z"/></g></g></svg>