<svg xmlns="http://www.w3.org/2000/svg" xml:space="preserve" width="2500" height="1300" style="shape-rendering:geometricPrecision;text-rendering:geometricPrecision;image-rendering:optimizeQuality;fill-rule:evenodd;clip-rule:evenodd"><defs><linearGradient id="id0" gradientUnits="userSpaceOnUse" x1="164" y1="650" x2="2336" y2="650"><stop offset="0" style="stop-opacity:1;stop-color:#0b2f78"/><stop offset="1" style="stop-opacity:1;stop-color:#31488c"/></linearGradient><style>.str0{stroke:gray;stroke-width:35;stroke-miterlimit:22.9256}.fil1,.fil2{fill:none;fill-rule:nonzero}.fil1{fill:#fff}</style></defs><g id="Слой_x0020_1"><g id="_2796751099392"><rect x="164" y="145.499" width="2172.001" height="1009" rx="206.182" ry="206.182" style="fill:url(#id0)"/><path class="fil1" d="M371.866 266.335h566.639a765606.013 765606.013 0 0 0 155.056 151.945c-22.299 83.491-36.473 135.696-42.524 156.612-74.33 46.845-113.397 72.255-117.027 75.886 50.649 48.92 75.886 74.848 75.886 77.442-51.513 189.801-78.997 291.616-81.936 305.445H731.936l82.108-306.829H620.959l-81.936 306.829H342.998L511.71 404.623c-92.308-89.714-138.807-135.868-139.844-138.288zm291.617 307.001h193.085c0-3.457 13.657-54.624 40.969-153.501H706.18c-2.421 0-8.471 21.263-18.324 63.786-9.162 28.695-17.113 58.6-24.373 89.715z"/><path id="_1" class="fil1" d="M1046.37 266.335h373.726l-165.601 613.829h192.913l124.633-461.884h196.024l-124.633 461.884h192.913l165.601-613.829 155.056 151.945c-107.346 396.716-162.662 601.902-165.6 615.385h-388.938c-1.037-.691-26.793-25.929-77.441-76.059-67.243 43.907-107.347 69.317-120.139 76.059h-387.382l168.713-629.042c-92.308-89.714-138.808-135.868-139.845-138.288z"/><path id="_2" class="fil2 str0" d="M371.866 266.335h566.639a765606.013 765606.013 0 0 0 155.056 151.945c-22.299 83.491-36.473 135.696-42.524 156.612-74.33 46.845-113.397 72.255-117.027 75.886 50.649 48.92 75.886 74.848 75.886 77.442-51.513 189.801-78.997 291.616-81.936 305.445H731.936l82.108-306.829H620.959l-81.936 306.829H342.998L511.71 404.623c-92.308-89.714-138.807-135.868-139.844-138.288zm291.617 307.001h193.085c0-3.457 13.657-54.624 40.969-153.501H706.18c-2.421 0-8.471 21.263-18.324 63.786-9.162 28.695-17.113 58.6-24.373 89.715z"/><path id="_3" class="fil2 str0" d="M1046.37 266.335h373.726l-165.601 613.829h192.913l124.633-461.884h196.024l-124.633 461.884h192.913l165.601-613.829 155.056 151.945c-107.346 396.716-162.662 601.902-165.6 615.385h-388.938c-1.037-.691-26.793-25.929-77.441-76.059-67.243 43.907-107.347 69.317-120.139 76.059h-387.382l168.713-629.042c-92.308-89.714-138.808-135.868-139.845-138.288z"/></g></g></svg>