<svg xmlns="http://www.w3.org/2000/svg" xml:space="preserve" width="2500" height="2500" style="shape-rendering:geometricPrecision;text-rendering:geometricPrecision;image-rendering:optimizeQuality;fill-rule:evenodd;clip-rule:evenodd"><path d="M1786.368 505.402c169.219 0 295.531 82.256 376.333 215.788 48.322 79.855 105.022 355.844 122.495 460.918 29.291 176.125 69.329 465.572-18.419 639.641-25.99 51.551-51.331 87.805-98.049 119.641-15.798 10.763-29.502 19.068-47.115 26.905-190.724 84.895-341.066-45.078-441.522-189.789-13.009-18.738-59.244-92.253-63.523-110.627-87.692 0-143.487-13.231-209.047-56.54-9.301-6.145-16.28-11.066-25.418-18.116-6.741-5.199-18.986-16.775-26.765-16.775h-208.986c-23.937 0-71.411 91.431-261.231 91.431-8.978 38.537-120.253 196.212-165.444 230.753-10.202 7.801-13.149 12.002-23.053 20.487-51.506 44.111-124.208 75.299-198.994 75.299-61.677 0-121.384-22.709-167.27-54.776-46.42-32.438-70.984-69.144-96.917-120.773-16.265-32.381-27.718-71.001-35.164-108.514-52.174-262.84 17.181-518.41 68.954-769.213 23.253-112.627 53.182-221.783 135.701-304.035 162.992-162.462 384.118-177.2 567.427-34.083 14.131 11.035 25.547 19.607 37.842 31.825 30.083 29.887 37.112 57.77 81.547 57.77h322.189c47.016 0 55.116-33.682 83.743-59.929 77.161-70.728 177.057-127.288 290.686-127.288zm-128.625 326.162c140.431 0 254.272 113.842 254.272 254.273 0 140.432-113.841 254.273-254.272 254.273-140.432 0-254.273-113.841-254.273-254.273 0-140.431 113.841-254.273 254.273-254.273zM878.287 968.829c140.431 0 254.272 113.842 254.272 254.273 0 140.432-113.841 254.273-254.272 254.273-140.431 0-254.273-113.841-254.273-254.273 0-140.431 113.842-254.273 254.273-254.273z" style="fill:none;stroke:#fff;stroke-width:145;stroke-miterlimit:22.9256"/></svg>