<svg xmlns="http://www.w3.org/2000/svg" xml:space="preserve" width="2500" height="2500" style="shape-rendering:geometricPrecision;text-rendering:geometricPrecision;image-rendering:optimizeQuality;fill-rule:evenodd;clip-rule:evenodd"><path d="M370.374 1899.412v164.929c0 35.116 30.168 65.284 65.285 65.284h402.016c73.804 0 148.872-37.274 196.692-81.627 52.712-48.886 115.014-148.84 157.905-213.187 13.09-19.638 24.812-35.445 37.797-54.976a4437.436 4437.436 0 0 1 19.93-29.705 4437.597 4437.597 0 0 1 19.932 29.705c12.984 19.531 24.706 35.338 37.797 54.976 42.89 64.347 105.193 164.301 157.905 213.187 47.818 44.353 122.887 81.627 196.692 81.627h402.016c35.117 0 65.284-30.167 65.284-65.284v-164.929c0-28.855-21.093-51.421-42.462-60.62-23.408-10.076-65.178-4.667-94.979-4.667l-402.026.012c-70.034.26-109.883-18.506-145.229-54.062-16.974-17.075-86.322-119.548-105.606-148.663l-3.864-5.648c15.15-22.05 30.219-44.172 45.111-66.521l227.462-332.611a18111.99 18111.99 0 0 0 17.85-26.816l471.416-689.967c20.614-29.749 32.326-34.638 32.326-74.19 0-36.119-29.187-61.417-61.54-65.284h-17.232c-16.224 1.988-32.105 9.736-44.442 24.537l-52.011 75.121c-13.18 19.9-26.732 38.288-40.559 59.084-143.599 215.996-303.274 438.542-448.091 654.879-14.003 20.916-26.512 39.449-40.5 59.144-14.251 20.068-27.006 41.757-41.256 61.824l-133.994 195.873-133.993-195.873c-14.25-20.067-27.005-41.756-41.256-61.824-13.987-19.695-26.497-38.228-40.5-59.145-144.816-216.336-304.492-438.882-448.091-654.878-13.826-20.796-27.379-39.184-40.558-59.084l-52.012-75.122c-12.337-14.8-28.217-22.547-44.442-24.536h-17.232c-32.353 3.867-61.54 29.165-61.54 65.284 0 39.552 11.712 44.441 32.326 74.19l471.416 689.966c6.83 10.281 11.254 16.923 17.851 26.817l227.462 332.611c14.891 22.349 29.961 44.471 45.11 66.521l-3.864 5.648c-19.283 29.115-88.632 131.588-105.605 148.663-35.346 35.556-75.195 54.322-145.229 54.062l-402.027-.012c-29.8 0-71.571-5.409-94.979 4.667-21.368 9.198-42.462 31.765-42.462 60.62z" style="fill:#e6e6e6"/></svg>